G04 #@! TF.GenerationSoftware,KiCad,Pcbnew,5.1.5+dfsg1-2*
G04 #@! TF.CreationDate,2020-01-25T11:12:06+01:00*
G04 #@! TF.ProjectId,A500r5_eprom_adapter,41353030-7235-45f6-9570-726f6d5f6164,rev?*
G04 #@! TF.SameCoordinates,Original*
G04 #@! TF.FileFunction,Legend,Top*
G04 #@! TF.FilePolarity,Positive*
%FSLAX46Y46*%
G04 Gerber Fmt 4.6, Leading zero omitted, Abs format (unit mm)*
G04 Created by KiCad (PCBNEW 5.1.5+dfsg1-2) date 2020-01-25 11:12:06*
%MOMM*%
%LPD*%
G04 APERTURE LIST*
%ADD10C,0.150000*%
%ADD11C,0.120000*%
G04 APERTURE END LIST*
D10*
X113109523Y-133516666D02*
X113585714Y-133516666D01*
X113014285Y-133802380D02*
X113347619Y-132802380D01*
X113680952Y-133802380D01*
X114538095Y-133802380D02*
X113966666Y-133802380D01*
X114252380Y-133802380D02*
X114252380Y-132802380D01*
X114157142Y-132945238D01*
X114061904Y-133040476D01*
X113966666Y-133088095D01*
X115014285Y-133802380D02*
X115204761Y-133802380D01*
X115300000Y-133754761D01*
X115347619Y-133707142D01*
X115442857Y-133564285D01*
X115490476Y-133373809D01*
X115490476Y-132992857D01*
X115442857Y-132897619D01*
X115395238Y-132850000D01*
X115300000Y-132802380D01*
X115109523Y-132802380D01*
X115014285Y-132850000D01*
X114966666Y-132897619D01*
X114919047Y-132992857D01*
X114919047Y-133230952D01*
X114966666Y-133326190D01*
X115014285Y-133373809D01*
X115109523Y-133421428D01*
X115300000Y-133421428D01*
X115395238Y-133373809D01*
X115442857Y-133326190D01*
X115490476Y-133230952D01*
X113109523Y-124626666D02*
X113585714Y-124626666D01*
X113014285Y-124912380D02*
X113347619Y-123912380D01*
X113680952Y-124912380D01*
X114538095Y-124912380D02*
X113966666Y-124912380D01*
X114252380Y-124912380D02*
X114252380Y-123912380D01*
X114157142Y-124055238D01*
X114061904Y-124150476D01*
X113966666Y-124198095D01*
X115109523Y-124340952D02*
X115014285Y-124293333D01*
X114966666Y-124245714D01*
X114919047Y-124150476D01*
X114919047Y-124102857D01*
X114966666Y-124007619D01*
X115014285Y-123960000D01*
X115109523Y-123912380D01*
X115300000Y-123912380D01*
X115395238Y-123960000D01*
X115442857Y-124007619D01*
X115490476Y-124102857D01*
X115490476Y-124150476D01*
X115442857Y-124245714D01*
X115395238Y-124293333D01*
X115300000Y-124340952D01*
X115109523Y-124340952D01*
X115014285Y-124388571D01*
X114966666Y-124436190D01*
X114919047Y-124531428D01*
X114919047Y-124721904D01*
X114966666Y-124817142D01*
X115014285Y-124864761D01*
X115109523Y-124912380D01*
X115300000Y-124912380D01*
X115395238Y-124864761D01*
X115442857Y-124817142D01*
X115490476Y-124721904D01*
X115490476Y-124531428D01*
X115442857Y-124436190D01*
X115395238Y-124388571D01*
X115300000Y-124340952D01*
X111061904Y-62301428D02*
X111823809Y-62301428D01*
X111442857Y-62682380D02*
X111442857Y-61920476D01*
X112776190Y-61682380D02*
X112300000Y-61682380D01*
X112252380Y-62158571D01*
X112300000Y-62110952D01*
X112395238Y-62063333D01*
X112633333Y-62063333D01*
X112728571Y-62110952D01*
X112776190Y-62158571D01*
X112823809Y-62253809D01*
X112823809Y-62491904D01*
X112776190Y-62587142D01*
X112728571Y-62634761D01*
X112633333Y-62682380D01*
X112395238Y-62682380D01*
X112300000Y-62634761D01*
X112252380Y-62587142D01*
X113157142Y-62015714D02*
X113395238Y-62682380D01*
X113633333Y-62015714D01*
X114252380Y-63015714D02*
X114252380Y-61587142D01*
X115490476Y-61730000D02*
X115395238Y-61682380D01*
X115252380Y-61682380D01*
X115109523Y-61730000D01*
X115014285Y-61825238D01*
X114966666Y-61920476D01*
X114919047Y-62110952D01*
X114919047Y-62253809D01*
X114966666Y-62444285D01*
X115014285Y-62539523D01*
X115109523Y-62634761D01*
X115252380Y-62682380D01*
X115347619Y-62682380D01*
X115490476Y-62634761D01*
X115538095Y-62587142D01*
X115538095Y-62253809D01*
X115347619Y-62253809D01*
X115966666Y-62682380D02*
X115966666Y-61682380D01*
X116538095Y-62682380D01*
X116538095Y-61682380D01*
X117014285Y-62682380D02*
X117014285Y-61682380D01*
X117252380Y-61682380D01*
X117395238Y-61730000D01*
X117490476Y-61825238D01*
X117538095Y-61920476D01*
X117585714Y-62110952D01*
X117585714Y-62253809D01*
X117538095Y-62444285D01*
X117490476Y-62539523D01*
X117395238Y-62634761D01*
X117252380Y-62682380D01*
X117014285Y-62682380D01*
D11*
X142350000Y-97730000D02*
X136890000Y-97730000D01*
X142350000Y-138490000D02*
X142350000Y-97730000D01*
X129430000Y-138490000D02*
X142350000Y-138490000D01*
X129430000Y-97730000D02*
X129430000Y-138490000D01*
X134890000Y-97730000D02*
X129430000Y-97730000D01*
X136890000Y-97730000D02*
G75*
G02X134890000Y-97730000I-1000000J0D01*
G01*
X142350000Y-55820000D02*
X136890000Y-55820000D01*
X142350000Y-96580000D02*
X142350000Y-55820000D01*
X129430000Y-96580000D02*
X142350000Y-96580000D01*
X129430000Y-55820000D02*
X129430000Y-96580000D01*
X134890000Y-55820000D02*
X129430000Y-55820000D01*
X136890000Y-55820000D02*
G75*
G02X134890000Y-55820000I-1000000J0D01*
G01*
X120760000Y-69790000D02*
X115300000Y-69790000D01*
X120760000Y-120710000D02*
X120760000Y-69790000D01*
X107840000Y-120710000D02*
X120760000Y-120710000D01*
X107840000Y-69790000D02*
X107840000Y-120710000D01*
X113300000Y-69790000D02*
X107840000Y-69790000D01*
X115300000Y-69790000D02*
G75*
G02X113300000Y-69790000I-1000000J0D01*
G01*
X120780000Y-72390000D02*
X117980000Y-72390000D01*
X120780000Y-97960000D02*
X120780000Y-69680000D01*
X117980000Y-97960000D02*
X120780000Y-97960000D01*
X117980000Y-69680000D02*
X117980000Y-97960000D01*
X120780000Y-69680000D02*
X117980000Y-69680000D01*
X110620000Y-72390000D02*
X107820000Y-72390000D01*
X110620000Y-97960000D02*
X110620000Y-69680000D01*
X107820000Y-97960000D02*
X110620000Y-97960000D01*
X107820000Y-69680000D02*
X107820000Y-97960000D01*
X110620000Y-69680000D02*
X107820000Y-69680000D01*
X111700000Y-132140000D02*
X111700000Y-130810000D01*
X113030000Y-132140000D02*
X111700000Y-132140000D01*
X114300000Y-132140000D02*
X114300000Y-129480000D01*
X114300000Y-129480000D02*
X116900000Y-129480000D01*
X114300000Y-132140000D02*
X116900000Y-132140000D01*
X116900000Y-132140000D02*
X116900000Y-129480000D01*
X111700000Y-128330000D02*
X111700000Y-127000000D01*
X113030000Y-128330000D02*
X111700000Y-128330000D01*
X114300000Y-128330000D02*
X114300000Y-125670000D01*
X114300000Y-125670000D02*
X116900000Y-125670000D01*
X114300000Y-128330000D02*
X116900000Y-128330000D01*
X116900000Y-128330000D02*
X116900000Y-125670000D01*
X111700000Y-66100000D02*
X111700000Y-64770000D01*
X113030000Y-66100000D02*
X111700000Y-66100000D01*
X114300000Y-66100000D02*
X114300000Y-63440000D01*
X114300000Y-63440000D02*
X116900000Y-63440000D01*
X114300000Y-66100000D02*
X116900000Y-66100000D01*
X116900000Y-66100000D02*
X116900000Y-63440000D01*
D10*
X135128095Y-96182380D02*
X135128095Y-96991904D01*
X135175714Y-97087142D01*
X135223333Y-97134761D01*
X135318571Y-97182380D01*
X135509047Y-97182380D01*
X135604285Y-97134761D01*
X135651904Y-97087142D01*
X135699523Y-96991904D01*
X135699523Y-96182380D01*
X136080476Y-96182380D02*
X136699523Y-96182380D01*
X136366190Y-96563333D01*
X136509047Y-96563333D01*
X136604285Y-96610952D01*
X136651904Y-96658571D01*
X136699523Y-96753809D01*
X136699523Y-96991904D01*
X136651904Y-97087142D01*
X136604285Y-97134761D01*
X136509047Y-97182380D01*
X136223333Y-97182380D01*
X136128095Y-97134761D01*
X136080476Y-97087142D01*
X135128095Y-54272380D02*
X135128095Y-55081904D01*
X135175714Y-55177142D01*
X135223333Y-55224761D01*
X135318571Y-55272380D01*
X135509047Y-55272380D01*
X135604285Y-55224761D01*
X135651904Y-55177142D01*
X135699523Y-55081904D01*
X135699523Y-54272380D01*
X136128095Y-54367619D02*
X136175714Y-54320000D01*
X136270952Y-54272380D01*
X136509047Y-54272380D01*
X136604285Y-54320000D01*
X136651904Y-54367619D01*
X136699523Y-54462857D01*
X136699523Y-54558095D01*
X136651904Y-54700952D01*
X136080476Y-55272380D01*
X136699523Y-55272380D01*
X113538095Y-68242380D02*
X113538095Y-69051904D01*
X113585714Y-69147142D01*
X113633333Y-69194761D01*
X113728571Y-69242380D01*
X113919047Y-69242380D01*
X114014285Y-69194761D01*
X114061904Y-69147142D01*
X114109523Y-69051904D01*
X114109523Y-68242380D01*
X115109523Y-69242380D02*
X114538095Y-69242380D01*
X114823809Y-69242380D02*
X114823809Y-68242380D01*
X114728571Y-68385238D01*
X114633333Y-68480476D01*
X114538095Y-68528095D01*
X122232380Y-85780476D02*
X121756190Y-86113809D01*
X122232380Y-86351904D02*
X121232380Y-86351904D01*
X121232380Y-85970952D01*
X121280000Y-85875714D01*
X121327619Y-85828095D01*
X121422857Y-85780476D01*
X121565714Y-85780476D01*
X121660952Y-85828095D01*
X121708571Y-85875714D01*
X121756190Y-85970952D01*
X121756190Y-86351904D01*
X122232380Y-85351904D02*
X121232380Y-85351904D01*
X122232380Y-84780476D01*
X121232380Y-84780476D01*
X121327619Y-84351904D02*
X121280000Y-84304285D01*
X121232380Y-84209047D01*
X121232380Y-83970952D01*
X121280000Y-83875714D01*
X121327619Y-83828095D01*
X121422857Y-83780476D01*
X121518095Y-83780476D01*
X121660952Y-83828095D01*
X122232380Y-84399523D01*
X122232380Y-83780476D01*
X112072380Y-85780476D02*
X111596190Y-86113809D01*
X112072380Y-86351904D02*
X111072380Y-86351904D01*
X111072380Y-85970952D01*
X111120000Y-85875714D01*
X111167619Y-85828095D01*
X111262857Y-85780476D01*
X111405714Y-85780476D01*
X111500952Y-85828095D01*
X111548571Y-85875714D01*
X111596190Y-85970952D01*
X111596190Y-86351904D01*
X112072380Y-85351904D02*
X111072380Y-85351904D01*
X112072380Y-84780476D01*
X111072380Y-84780476D01*
X112072380Y-83780476D02*
X112072380Y-84351904D01*
X112072380Y-84066190D02*
X111072380Y-84066190D01*
X111215238Y-84161428D01*
X111310476Y-84256666D01*
X111358095Y-84351904D01*
X110152380Y-131143333D02*
X110866666Y-131143333D01*
X111009523Y-131190952D01*
X111104761Y-131286190D01*
X111152380Y-131429047D01*
X111152380Y-131524285D01*
X110152380Y-130762380D02*
X110152380Y-130143333D01*
X110533333Y-130476666D01*
X110533333Y-130333809D01*
X110580952Y-130238571D01*
X110628571Y-130190952D01*
X110723809Y-130143333D01*
X110961904Y-130143333D01*
X111057142Y-130190952D01*
X111104761Y-130238571D01*
X111152380Y-130333809D01*
X111152380Y-130619523D01*
X111104761Y-130714761D01*
X111057142Y-130762380D01*
X110152380Y-127333333D02*
X110866666Y-127333333D01*
X111009523Y-127380952D01*
X111104761Y-127476190D01*
X111152380Y-127619047D01*
X111152380Y-127714285D01*
X110247619Y-126904761D02*
X110200000Y-126857142D01*
X110152380Y-126761904D01*
X110152380Y-126523809D01*
X110200000Y-126428571D01*
X110247619Y-126380952D01*
X110342857Y-126333333D01*
X110438095Y-126333333D01*
X110580952Y-126380952D01*
X111152380Y-126952380D01*
X111152380Y-126333333D01*
X110152380Y-65103333D02*
X110866666Y-65103333D01*
X111009523Y-65150952D01*
X111104761Y-65246190D01*
X111152380Y-65389047D01*
X111152380Y-65484285D01*
X111152380Y-64103333D02*
X111152380Y-64674761D01*
X111152380Y-64389047D02*
X110152380Y-64389047D01*
X110295238Y-64484285D01*
X110390476Y-64579523D01*
X110438095Y-64674761D01*
M02*
