G04 #@! TF.GenerationSoftware,KiCad,Pcbnew,5.1.5+dfsg1-2*
G04 #@! TF.CreationDate,2020-01-25T11:12:06+01:00*
G04 #@! TF.ProjectId,A500r5_eprom_adapter,41353030-7235-45f6-9570-726f6d5f6164,rev?*
G04 #@! TF.SameCoordinates,Original*
G04 #@! TF.FileFunction,Soldermask,Top*
G04 #@! TF.FilePolarity,Negative*
%FSLAX46Y46*%
G04 Gerber Fmt 4.6, Leading zero omitted, Abs format (unit mm)*
G04 Created by KiCad (PCBNEW 5.1.5+dfsg1-2) date 2020-01-25 11:12:06*
%MOMM*%
%LPD*%
G04 APERTURE LIST*
%ADD10C,0.100000*%
G04 APERTURE END LIST*
D10*
G36*
X143758228Y-136341703D02*
G01*
X143913100Y-136405853D01*
X144052481Y-136498985D01*
X144171015Y-136617519D01*
X144264147Y-136756900D01*
X144328297Y-136911772D01*
X144361000Y-137076184D01*
X144361000Y-137243816D01*
X144328297Y-137408228D01*
X144264147Y-137563100D01*
X144171015Y-137702481D01*
X144052481Y-137821015D01*
X143913100Y-137914147D01*
X143758228Y-137978297D01*
X143593816Y-138011000D01*
X143426184Y-138011000D01*
X143261772Y-137978297D01*
X143106900Y-137914147D01*
X142967519Y-137821015D01*
X142848985Y-137702481D01*
X142755853Y-137563100D01*
X142691703Y-137408228D01*
X142659000Y-137243816D01*
X142659000Y-137076184D01*
X142691703Y-136911772D01*
X142755853Y-136756900D01*
X142848985Y-136617519D01*
X142967519Y-136498985D01*
X143106900Y-136405853D01*
X143261772Y-136341703D01*
X143426184Y-136309000D01*
X143593816Y-136309000D01*
X143758228Y-136341703D01*
G37*
G36*
X128518228Y-136341703D02*
G01*
X128673100Y-136405853D01*
X128812481Y-136498985D01*
X128931015Y-136617519D01*
X129024147Y-136756900D01*
X129088297Y-136911772D01*
X129121000Y-137076184D01*
X129121000Y-137243816D01*
X129088297Y-137408228D01*
X129024147Y-137563100D01*
X128931015Y-137702481D01*
X128812481Y-137821015D01*
X128673100Y-137914147D01*
X128518228Y-137978297D01*
X128353816Y-138011000D01*
X128186184Y-138011000D01*
X128021772Y-137978297D01*
X127866900Y-137914147D01*
X127727519Y-137821015D01*
X127608985Y-137702481D01*
X127515853Y-137563100D01*
X127451703Y-137408228D01*
X127419000Y-137243816D01*
X127419000Y-137076184D01*
X127451703Y-136911772D01*
X127515853Y-136756900D01*
X127608985Y-136617519D01*
X127727519Y-136498985D01*
X127866900Y-136405853D01*
X128021772Y-136341703D01*
X128186184Y-136309000D01*
X128353816Y-136309000D01*
X128518228Y-136341703D01*
G37*
G36*
X128518228Y-133801703D02*
G01*
X128673100Y-133865853D01*
X128812481Y-133958985D01*
X128931015Y-134077519D01*
X129024147Y-134216900D01*
X129088297Y-134371772D01*
X129121000Y-134536184D01*
X129121000Y-134703816D01*
X129088297Y-134868228D01*
X129024147Y-135023100D01*
X128931015Y-135162481D01*
X128812481Y-135281015D01*
X128673100Y-135374147D01*
X128518228Y-135438297D01*
X128353816Y-135471000D01*
X128186184Y-135471000D01*
X128021772Y-135438297D01*
X127866900Y-135374147D01*
X127727519Y-135281015D01*
X127608985Y-135162481D01*
X127515853Y-135023100D01*
X127451703Y-134868228D01*
X127419000Y-134703816D01*
X127419000Y-134536184D01*
X127451703Y-134371772D01*
X127515853Y-134216900D01*
X127608985Y-134077519D01*
X127727519Y-133958985D01*
X127866900Y-133865853D01*
X128021772Y-133801703D01*
X128186184Y-133769000D01*
X128353816Y-133769000D01*
X128518228Y-133801703D01*
G37*
G36*
X143758228Y-133801703D02*
G01*
X143913100Y-133865853D01*
X144052481Y-133958985D01*
X144171015Y-134077519D01*
X144264147Y-134216900D01*
X144328297Y-134371772D01*
X144361000Y-134536184D01*
X144361000Y-134703816D01*
X144328297Y-134868228D01*
X144264147Y-135023100D01*
X144171015Y-135162481D01*
X144052481Y-135281015D01*
X143913100Y-135374147D01*
X143758228Y-135438297D01*
X143593816Y-135471000D01*
X143426184Y-135471000D01*
X143261772Y-135438297D01*
X143106900Y-135374147D01*
X142967519Y-135281015D01*
X142848985Y-135162481D01*
X142755853Y-135023100D01*
X142691703Y-134868228D01*
X142659000Y-134703816D01*
X142659000Y-134536184D01*
X142691703Y-134371772D01*
X142755853Y-134216900D01*
X142848985Y-134077519D01*
X142967519Y-133958985D01*
X143106900Y-133865853D01*
X143261772Y-133801703D01*
X143426184Y-133769000D01*
X143593816Y-133769000D01*
X143758228Y-133801703D01*
G37*
G36*
X128518228Y-131261703D02*
G01*
X128673100Y-131325853D01*
X128812481Y-131418985D01*
X128931015Y-131537519D01*
X129024147Y-131676900D01*
X129088297Y-131831772D01*
X129121000Y-131996184D01*
X129121000Y-132163816D01*
X129088297Y-132328228D01*
X129024147Y-132483100D01*
X128931015Y-132622481D01*
X128812481Y-132741015D01*
X128673100Y-132834147D01*
X128518228Y-132898297D01*
X128353816Y-132931000D01*
X128186184Y-132931000D01*
X128021772Y-132898297D01*
X127866900Y-132834147D01*
X127727519Y-132741015D01*
X127608985Y-132622481D01*
X127515853Y-132483100D01*
X127451703Y-132328228D01*
X127419000Y-132163816D01*
X127419000Y-131996184D01*
X127451703Y-131831772D01*
X127515853Y-131676900D01*
X127608985Y-131537519D01*
X127727519Y-131418985D01*
X127866900Y-131325853D01*
X128021772Y-131261703D01*
X128186184Y-131229000D01*
X128353816Y-131229000D01*
X128518228Y-131261703D01*
G37*
G36*
X143758228Y-131261703D02*
G01*
X143913100Y-131325853D01*
X144052481Y-131418985D01*
X144171015Y-131537519D01*
X144264147Y-131676900D01*
X144328297Y-131831772D01*
X144361000Y-131996184D01*
X144361000Y-132163816D01*
X144328297Y-132328228D01*
X144264147Y-132483100D01*
X144171015Y-132622481D01*
X144052481Y-132741015D01*
X143913100Y-132834147D01*
X143758228Y-132898297D01*
X143593816Y-132931000D01*
X143426184Y-132931000D01*
X143261772Y-132898297D01*
X143106900Y-132834147D01*
X142967519Y-132741015D01*
X142848985Y-132622481D01*
X142755853Y-132483100D01*
X142691703Y-132328228D01*
X142659000Y-132163816D01*
X142659000Y-131996184D01*
X142691703Y-131831772D01*
X142755853Y-131676900D01*
X142848985Y-131537519D01*
X142967519Y-131418985D01*
X143106900Y-131325853D01*
X143261772Y-131261703D01*
X143426184Y-131229000D01*
X143593816Y-131229000D01*
X143758228Y-131261703D01*
G37*
G36*
X115683512Y-129913927D02*
G01*
X115832812Y-129943624D01*
X115996784Y-130011544D01*
X116144354Y-130110147D01*
X116269853Y-130235646D01*
X116368456Y-130383216D01*
X116436376Y-130547188D01*
X116471000Y-130721259D01*
X116471000Y-130898741D01*
X116436376Y-131072812D01*
X116368456Y-131236784D01*
X116269853Y-131384354D01*
X116144354Y-131509853D01*
X115996784Y-131608456D01*
X115832812Y-131676376D01*
X115683512Y-131706073D01*
X115658742Y-131711000D01*
X115481258Y-131711000D01*
X115456488Y-131706073D01*
X115307188Y-131676376D01*
X115143216Y-131608456D01*
X114995646Y-131509853D01*
X114870147Y-131384354D01*
X114771544Y-131236784D01*
X114703624Y-131072812D01*
X114669000Y-130898741D01*
X114669000Y-130721259D01*
X114703624Y-130547188D01*
X114771544Y-130383216D01*
X114870147Y-130235646D01*
X114995646Y-130110147D01*
X115143216Y-130011544D01*
X115307188Y-129943624D01*
X115456488Y-129913927D01*
X115481258Y-129909000D01*
X115658742Y-129909000D01*
X115683512Y-129913927D01*
G37*
G36*
X113931000Y-131711000D02*
G01*
X112129000Y-131711000D01*
X112129000Y-129909000D01*
X113931000Y-129909000D01*
X113931000Y-131711000D01*
G37*
G36*
X128518228Y-128721703D02*
G01*
X128673100Y-128785853D01*
X128812481Y-128878985D01*
X128931015Y-128997519D01*
X129024147Y-129136900D01*
X129088297Y-129291772D01*
X129121000Y-129456184D01*
X129121000Y-129623816D01*
X129088297Y-129788228D01*
X129024147Y-129943100D01*
X128931015Y-130082481D01*
X128812481Y-130201015D01*
X128673100Y-130294147D01*
X128518228Y-130358297D01*
X128353816Y-130391000D01*
X128186184Y-130391000D01*
X128021772Y-130358297D01*
X127866900Y-130294147D01*
X127727519Y-130201015D01*
X127608985Y-130082481D01*
X127515853Y-129943100D01*
X127451703Y-129788228D01*
X127419000Y-129623816D01*
X127419000Y-129456184D01*
X127451703Y-129291772D01*
X127515853Y-129136900D01*
X127608985Y-128997519D01*
X127727519Y-128878985D01*
X127866900Y-128785853D01*
X128021772Y-128721703D01*
X128186184Y-128689000D01*
X128353816Y-128689000D01*
X128518228Y-128721703D01*
G37*
G36*
X143758228Y-128721703D02*
G01*
X143913100Y-128785853D01*
X144052481Y-128878985D01*
X144171015Y-128997519D01*
X144264147Y-129136900D01*
X144328297Y-129291772D01*
X144361000Y-129456184D01*
X144361000Y-129623816D01*
X144328297Y-129788228D01*
X144264147Y-129943100D01*
X144171015Y-130082481D01*
X144052481Y-130201015D01*
X143913100Y-130294147D01*
X143758228Y-130358297D01*
X143593816Y-130391000D01*
X143426184Y-130391000D01*
X143261772Y-130358297D01*
X143106900Y-130294147D01*
X142967519Y-130201015D01*
X142848985Y-130082481D01*
X142755853Y-129943100D01*
X142691703Y-129788228D01*
X142659000Y-129623816D01*
X142659000Y-129456184D01*
X142691703Y-129291772D01*
X142755853Y-129136900D01*
X142848985Y-128997519D01*
X142967519Y-128878985D01*
X143106900Y-128785853D01*
X143261772Y-128721703D01*
X143426184Y-128689000D01*
X143593816Y-128689000D01*
X143758228Y-128721703D01*
G37*
G36*
X113931000Y-127901000D02*
G01*
X112129000Y-127901000D01*
X112129000Y-126099000D01*
X113931000Y-126099000D01*
X113931000Y-127901000D01*
G37*
G36*
X115683512Y-126103927D02*
G01*
X115832812Y-126133624D01*
X115996784Y-126201544D01*
X116144354Y-126300147D01*
X116269853Y-126425646D01*
X116368456Y-126573216D01*
X116436376Y-126737188D01*
X116471000Y-126911259D01*
X116471000Y-127088741D01*
X116436376Y-127262812D01*
X116368456Y-127426784D01*
X116269853Y-127574354D01*
X116144354Y-127699853D01*
X115996784Y-127798456D01*
X115832812Y-127866376D01*
X115683512Y-127896073D01*
X115658742Y-127901000D01*
X115481258Y-127901000D01*
X115456488Y-127896073D01*
X115307188Y-127866376D01*
X115143216Y-127798456D01*
X114995646Y-127699853D01*
X114870147Y-127574354D01*
X114771544Y-127426784D01*
X114703624Y-127262812D01*
X114669000Y-127088741D01*
X114669000Y-126911259D01*
X114703624Y-126737188D01*
X114771544Y-126573216D01*
X114870147Y-126425646D01*
X114995646Y-126300147D01*
X115143216Y-126201544D01*
X115307188Y-126133624D01*
X115456488Y-126103927D01*
X115481258Y-126099000D01*
X115658742Y-126099000D01*
X115683512Y-126103927D01*
G37*
G36*
X143758228Y-126181703D02*
G01*
X143913100Y-126245853D01*
X144052481Y-126338985D01*
X144171015Y-126457519D01*
X144264147Y-126596900D01*
X144328297Y-126751772D01*
X144361000Y-126916184D01*
X144361000Y-127083816D01*
X144328297Y-127248228D01*
X144264147Y-127403100D01*
X144171015Y-127542481D01*
X144052481Y-127661015D01*
X143913100Y-127754147D01*
X143758228Y-127818297D01*
X143593816Y-127851000D01*
X143426184Y-127851000D01*
X143261772Y-127818297D01*
X143106900Y-127754147D01*
X142967519Y-127661015D01*
X142848985Y-127542481D01*
X142755853Y-127403100D01*
X142691703Y-127248228D01*
X142659000Y-127083816D01*
X142659000Y-126916184D01*
X142691703Y-126751772D01*
X142755853Y-126596900D01*
X142848985Y-126457519D01*
X142967519Y-126338985D01*
X143106900Y-126245853D01*
X143261772Y-126181703D01*
X143426184Y-126149000D01*
X143593816Y-126149000D01*
X143758228Y-126181703D01*
G37*
G36*
X128518228Y-126181703D02*
G01*
X128673100Y-126245853D01*
X128812481Y-126338985D01*
X128931015Y-126457519D01*
X129024147Y-126596900D01*
X129088297Y-126751772D01*
X129121000Y-126916184D01*
X129121000Y-127083816D01*
X129088297Y-127248228D01*
X129024147Y-127403100D01*
X128931015Y-127542481D01*
X128812481Y-127661015D01*
X128673100Y-127754147D01*
X128518228Y-127818297D01*
X128353816Y-127851000D01*
X128186184Y-127851000D01*
X128021772Y-127818297D01*
X127866900Y-127754147D01*
X127727519Y-127661015D01*
X127608985Y-127542481D01*
X127515853Y-127403100D01*
X127451703Y-127248228D01*
X127419000Y-127083816D01*
X127419000Y-126916184D01*
X127451703Y-126751772D01*
X127515853Y-126596900D01*
X127608985Y-126457519D01*
X127727519Y-126338985D01*
X127866900Y-126245853D01*
X128021772Y-126181703D01*
X128186184Y-126149000D01*
X128353816Y-126149000D01*
X128518228Y-126181703D01*
G37*
G36*
X128518228Y-123641703D02*
G01*
X128673100Y-123705853D01*
X128812481Y-123798985D01*
X128931015Y-123917519D01*
X129024147Y-124056900D01*
X129088297Y-124211772D01*
X129121000Y-124376184D01*
X129121000Y-124543816D01*
X129088297Y-124708228D01*
X129024147Y-124863100D01*
X128931015Y-125002481D01*
X128812481Y-125121015D01*
X128673100Y-125214147D01*
X128518228Y-125278297D01*
X128353816Y-125311000D01*
X128186184Y-125311000D01*
X128021772Y-125278297D01*
X127866900Y-125214147D01*
X127727519Y-125121015D01*
X127608985Y-125002481D01*
X127515853Y-124863100D01*
X127451703Y-124708228D01*
X127419000Y-124543816D01*
X127419000Y-124376184D01*
X127451703Y-124211772D01*
X127515853Y-124056900D01*
X127608985Y-123917519D01*
X127727519Y-123798985D01*
X127866900Y-123705853D01*
X128021772Y-123641703D01*
X128186184Y-123609000D01*
X128353816Y-123609000D01*
X128518228Y-123641703D01*
G37*
G36*
X143758228Y-123641703D02*
G01*
X143913100Y-123705853D01*
X144052481Y-123798985D01*
X144171015Y-123917519D01*
X144264147Y-124056900D01*
X144328297Y-124211772D01*
X144361000Y-124376184D01*
X144361000Y-124543816D01*
X144328297Y-124708228D01*
X144264147Y-124863100D01*
X144171015Y-125002481D01*
X144052481Y-125121015D01*
X143913100Y-125214147D01*
X143758228Y-125278297D01*
X143593816Y-125311000D01*
X143426184Y-125311000D01*
X143261772Y-125278297D01*
X143106900Y-125214147D01*
X142967519Y-125121015D01*
X142848985Y-125002481D01*
X142755853Y-124863100D01*
X142691703Y-124708228D01*
X142659000Y-124543816D01*
X142659000Y-124376184D01*
X142691703Y-124211772D01*
X142755853Y-124056900D01*
X142848985Y-123917519D01*
X142967519Y-123798985D01*
X143106900Y-123705853D01*
X143261772Y-123641703D01*
X143426184Y-123609000D01*
X143593816Y-123609000D01*
X143758228Y-123641703D01*
G37*
G36*
X143758228Y-121101703D02*
G01*
X143913100Y-121165853D01*
X144052481Y-121258985D01*
X144171015Y-121377519D01*
X144264147Y-121516900D01*
X144328297Y-121671772D01*
X144361000Y-121836184D01*
X144361000Y-122003816D01*
X144328297Y-122168228D01*
X144264147Y-122323100D01*
X144171015Y-122462481D01*
X144052481Y-122581015D01*
X143913100Y-122674147D01*
X143758228Y-122738297D01*
X143593816Y-122771000D01*
X143426184Y-122771000D01*
X143261772Y-122738297D01*
X143106900Y-122674147D01*
X142967519Y-122581015D01*
X142848985Y-122462481D01*
X142755853Y-122323100D01*
X142691703Y-122168228D01*
X142659000Y-122003816D01*
X142659000Y-121836184D01*
X142691703Y-121671772D01*
X142755853Y-121516900D01*
X142848985Y-121377519D01*
X142967519Y-121258985D01*
X143106900Y-121165853D01*
X143261772Y-121101703D01*
X143426184Y-121069000D01*
X143593816Y-121069000D01*
X143758228Y-121101703D01*
G37*
G36*
X128518228Y-121101703D02*
G01*
X128673100Y-121165853D01*
X128812481Y-121258985D01*
X128931015Y-121377519D01*
X129024147Y-121516900D01*
X129088297Y-121671772D01*
X129121000Y-121836184D01*
X129121000Y-122003816D01*
X129088297Y-122168228D01*
X129024147Y-122323100D01*
X128931015Y-122462481D01*
X128812481Y-122581015D01*
X128673100Y-122674147D01*
X128518228Y-122738297D01*
X128353816Y-122771000D01*
X128186184Y-122771000D01*
X128021772Y-122738297D01*
X127866900Y-122674147D01*
X127727519Y-122581015D01*
X127608985Y-122462481D01*
X127515853Y-122323100D01*
X127451703Y-122168228D01*
X127419000Y-122003816D01*
X127419000Y-121836184D01*
X127451703Y-121671772D01*
X127515853Y-121516900D01*
X127608985Y-121377519D01*
X127727519Y-121258985D01*
X127866900Y-121165853D01*
X128021772Y-121101703D01*
X128186184Y-121069000D01*
X128353816Y-121069000D01*
X128518228Y-121101703D01*
G37*
G36*
X106928228Y-118561703D02*
G01*
X107083100Y-118625853D01*
X107222481Y-118718985D01*
X107341015Y-118837519D01*
X107434147Y-118976900D01*
X107498297Y-119131772D01*
X107531000Y-119296184D01*
X107531000Y-119463816D01*
X107498297Y-119628228D01*
X107434147Y-119783100D01*
X107341015Y-119922481D01*
X107222481Y-120041015D01*
X107083100Y-120134147D01*
X106928228Y-120198297D01*
X106763816Y-120231000D01*
X106596184Y-120231000D01*
X106431772Y-120198297D01*
X106276900Y-120134147D01*
X106137519Y-120041015D01*
X106018985Y-119922481D01*
X105925853Y-119783100D01*
X105861703Y-119628228D01*
X105829000Y-119463816D01*
X105829000Y-119296184D01*
X105861703Y-119131772D01*
X105925853Y-118976900D01*
X106018985Y-118837519D01*
X106137519Y-118718985D01*
X106276900Y-118625853D01*
X106431772Y-118561703D01*
X106596184Y-118529000D01*
X106763816Y-118529000D01*
X106928228Y-118561703D01*
G37*
G36*
X143758228Y-118561703D02*
G01*
X143913100Y-118625853D01*
X144052481Y-118718985D01*
X144171015Y-118837519D01*
X144264147Y-118976900D01*
X144328297Y-119131772D01*
X144361000Y-119296184D01*
X144361000Y-119463816D01*
X144328297Y-119628228D01*
X144264147Y-119783100D01*
X144171015Y-119922481D01*
X144052481Y-120041015D01*
X143913100Y-120134147D01*
X143758228Y-120198297D01*
X143593816Y-120231000D01*
X143426184Y-120231000D01*
X143261772Y-120198297D01*
X143106900Y-120134147D01*
X142967519Y-120041015D01*
X142848985Y-119922481D01*
X142755853Y-119783100D01*
X142691703Y-119628228D01*
X142659000Y-119463816D01*
X142659000Y-119296184D01*
X142691703Y-119131772D01*
X142755853Y-118976900D01*
X142848985Y-118837519D01*
X142967519Y-118718985D01*
X143106900Y-118625853D01*
X143261772Y-118561703D01*
X143426184Y-118529000D01*
X143593816Y-118529000D01*
X143758228Y-118561703D01*
G37*
G36*
X128518228Y-118561703D02*
G01*
X128673100Y-118625853D01*
X128812481Y-118718985D01*
X128931015Y-118837519D01*
X129024147Y-118976900D01*
X129088297Y-119131772D01*
X129121000Y-119296184D01*
X129121000Y-119463816D01*
X129088297Y-119628228D01*
X129024147Y-119783100D01*
X128931015Y-119922481D01*
X128812481Y-120041015D01*
X128673100Y-120134147D01*
X128518228Y-120198297D01*
X128353816Y-120231000D01*
X128186184Y-120231000D01*
X128021772Y-120198297D01*
X127866900Y-120134147D01*
X127727519Y-120041015D01*
X127608985Y-119922481D01*
X127515853Y-119783100D01*
X127451703Y-119628228D01*
X127419000Y-119463816D01*
X127419000Y-119296184D01*
X127451703Y-119131772D01*
X127515853Y-118976900D01*
X127608985Y-118837519D01*
X127727519Y-118718985D01*
X127866900Y-118625853D01*
X128021772Y-118561703D01*
X128186184Y-118529000D01*
X128353816Y-118529000D01*
X128518228Y-118561703D01*
G37*
G36*
X122168228Y-118561703D02*
G01*
X122323100Y-118625853D01*
X122462481Y-118718985D01*
X122581015Y-118837519D01*
X122674147Y-118976900D01*
X122738297Y-119131772D01*
X122771000Y-119296184D01*
X122771000Y-119463816D01*
X122738297Y-119628228D01*
X122674147Y-119783100D01*
X122581015Y-119922481D01*
X122462481Y-120041015D01*
X122323100Y-120134147D01*
X122168228Y-120198297D01*
X122003816Y-120231000D01*
X121836184Y-120231000D01*
X121671772Y-120198297D01*
X121516900Y-120134147D01*
X121377519Y-120041015D01*
X121258985Y-119922481D01*
X121165853Y-119783100D01*
X121101703Y-119628228D01*
X121069000Y-119463816D01*
X121069000Y-119296184D01*
X121101703Y-119131772D01*
X121165853Y-118976900D01*
X121258985Y-118837519D01*
X121377519Y-118718985D01*
X121516900Y-118625853D01*
X121671772Y-118561703D01*
X121836184Y-118529000D01*
X122003816Y-118529000D01*
X122168228Y-118561703D01*
G37*
G36*
X106928228Y-116021703D02*
G01*
X107083100Y-116085853D01*
X107222481Y-116178985D01*
X107341015Y-116297519D01*
X107434147Y-116436900D01*
X107498297Y-116591772D01*
X107531000Y-116756184D01*
X107531000Y-116923816D01*
X107498297Y-117088228D01*
X107434147Y-117243100D01*
X107341015Y-117382481D01*
X107222481Y-117501015D01*
X107083100Y-117594147D01*
X106928228Y-117658297D01*
X106763816Y-117691000D01*
X106596184Y-117691000D01*
X106431772Y-117658297D01*
X106276900Y-117594147D01*
X106137519Y-117501015D01*
X106018985Y-117382481D01*
X105925853Y-117243100D01*
X105861703Y-117088228D01*
X105829000Y-116923816D01*
X105829000Y-116756184D01*
X105861703Y-116591772D01*
X105925853Y-116436900D01*
X106018985Y-116297519D01*
X106137519Y-116178985D01*
X106276900Y-116085853D01*
X106431772Y-116021703D01*
X106596184Y-115989000D01*
X106763816Y-115989000D01*
X106928228Y-116021703D01*
G37*
G36*
X122168228Y-116021703D02*
G01*
X122323100Y-116085853D01*
X122462481Y-116178985D01*
X122581015Y-116297519D01*
X122674147Y-116436900D01*
X122738297Y-116591772D01*
X122771000Y-116756184D01*
X122771000Y-116923816D01*
X122738297Y-117088228D01*
X122674147Y-117243100D01*
X122581015Y-117382481D01*
X122462481Y-117501015D01*
X122323100Y-117594147D01*
X122168228Y-117658297D01*
X122003816Y-117691000D01*
X121836184Y-117691000D01*
X121671772Y-117658297D01*
X121516900Y-117594147D01*
X121377519Y-117501015D01*
X121258985Y-117382481D01*
X121165853Y-117243100D01*
X121101703Y-117088228D01*
X121069000Y-116923816D01*
X121069000Y-116756184D01*
X121101703Y-116591772D01*
X121165853Y-116436900D01*
X121258985Y-116297519D01*
X121377519Y-116178985D01*
X121516900Y-116085853D01*
X121671772Y-116021703D01*
X121836184Y-115989000D01*
X122003816Y-115989000D01*
X122168228Y-116021703D01*
G37*
G36*
X128518228Y-116021703D02*
G01*
X128673100Y-116085853D01*
X128812481Y-116178985D01*
X128931015Y-116297519D01*
X129024147Y-116436900D01*
X129088297Y-116591772D01*
X129121000Y-116756184D01*
X129121000Y-116923816D01*
X129088297Y-117088228D01*
X129024147Y-117243100D01*
X128931015Y-117382481D01*
X128812481Y-117501015D01*
X128673100Y-117594147D01*
X128518228Y-117658297D01*
X128353816Y-117691000D01*
X128186184Y-117691000D01*
X128021772Y-117658297D01*
X127866900Y-117594147D01*
X127727519Y-117501015D01*
X127608985Y-117382481D01*
X127515853Y-117243100D01*
X127451703Y-117088228D01*
X127419000Y-116923816D01*
X127419000Y-116756184D01*
X127451703Y-116591772D01*
X127515853Y-116436900D01*
X127608985Y-116297519D01*
X127727519Y-116178985D01*
X127866900Y-116085853D01*
X128021772Y-116021703D01*
X128186184Y-115989000D01*
X128353816Y-115989000D01*
X128518228Y-116021703D01*
G37*
G36*
X143758228Y-116021703D02*
G01*
X143913100Y-116085853D01*
X144052481Y-116178985D01*
X144171015Y-116297519D01*
X144264147Y-116436900D01*
X144328297Y-116591772D01*
X144361000Y-116756184D01*
X144361000Y-116923816D01*
X144328297Y-117088228D01*
X144264147Y-117243100D01*
X144171015Y-117382481D01*
X144052481Y-117501015D01*
X143913100Y-117594147D01*
X143758228Y-117658297D01*
X143593816Y-117691000D01*
X143426184Y-117691000D01*
X143261772Y-117658297D01*
X143106900Y-117594147D01*
X142967519Y-117501015D01*
X142848985Y-117382481D01*
X142755853Y-117243100D01*
X142691703Y-117088228D01*
X142659000Y-116923816D01*
X142659000Y-116756184D01*
X142691703Y-116591772D01*
X142755853Y-116436900D01*
X142848985Y-116297519D01*
X142967519Y-116178985D01*
X143106900Y-116085853D01*
X143261772Y-116021703D01*
X143426184Y-115989000D01*
X143593816Y-115989000D01*
X143758228Y-116021703D01*
G37*
G36*
X106928228Y-113481703D02*
G01*
X107083100Y-113545853D01*
X107222481Y-113638985D01*
X107341015Y-113757519D01*
X107434147Y-113896900D01*
X107498297Y-114051772D01*
X107531000Y-114216184D01*
X107531000Y-114383816D01*
X107498297Y-114548228D01*
X107434147Y-114703100D01*
X107341015Y-114842481D01*
X107222481Y-114961015D01*
X107083100Y-115054147D01*
X106928228Y-115118297D01*
X106763816Y-115151000D01*
X106596184Y-115151000D01*
X106431772Y-115118297D01*
X106276900Y-115054147D01*
X106137519Y-114961015D01*
X106018985Y-114842481D01*
X105925853Y-114703100D01*
X105861703Y-114548228D01*
X105829000Y-114383816D01*
X105829000Y-114216184D01*
X105861703Y-114051772D01*
X105925853Y-113896900D01*
X106018985Y-113757519D01*
X106137519Y-113638985D01*
X106276900Y-113545853D01*
X106431772Y-113481703D01*
X106596184Y-113449000D01*
X106763816Y-113449000D01*
X106928228Y-113481703D01*
G37*
G36*
X128518228Y-113481703D02*
G01*
X128673100Y-113545853D01*
X128812481Y-113638985D01*
X128931015Y-113757519D01*
X129024147Y-113896900D01*
X129088297Y-114051772D01*
X129121000Y-114216184D01*
X129121000Y-114383816D01*
X129088297Y-114548228D01*
X129024147Y-114703100D01*
X128931015Y-114842481D01*
X128812481Y-114961015D01*
X128673100Y-115054147D01*
X128518228Y-115118297D01*
X128353816Y-115151000D01*
X128186184Y-115151000D01*
X128021772Y-115118297D01*
X127866900Y-115054147D01*
X127727519Y-114961015D01*
X127608985Y-114842481D01*
X127515853Y-114703100D01*
X127451703Y-114548228D01*
X127419000Y-114383816D01*
X127419000Y-114216184D01*
X127451703Y-114051772D01*
X127515853Y-113896900D01*
X127608985Y-113757519D01*
X127727519Y-113638985D01*
X127866900Y-113545853D01*
X128021772Y-113481703D01*
X128186184Y-113449000D01*
X128353816Y-113449000D01*
X128518228Y-113481703D01*
G37*
G36*
X122168228Y-113481703D02*
G01*
X122323100Y-113545853D01*
X122462481Y-113638985D01*
X122581015Y-113757519D01*
X122674147Y-113896900D01*
X122738297Y-114051772D01*
X122771000Y-114216184D01*
X122771000Y-114383816D01*
X122738297Y-114548228D01*
X122674147Y-114703100D01*
X122581015Y-114842481D01*
X122462481Y-114961015D01*
X122323100Y-115054147D01*
X122168228Y-115118297D01*
X122003816Y-115151000D01*
X121836184Y-115151000D01*
X121671772Y-115118297D01*
X121516900Y-115054147D01*
X121377519Y-114961015D01*
X121258985Y-114842481D01*
X121165853Y-114703100D01*
X121101703Y-114548228D01*
X121069000Y-114383816D01*
X121069000Y-114216184D01*
X121101703Y-114051772D01*
X121165853Y-113896900D01*
X121258985Y-113757519D01*
X121377519Y-113638985D01*
X121516900Y-113545853D01*
X121671772Y-113481703D01*
X121836184Y-113449000D01*
X122003816Y-113449000D01*
X122168228Y-113481703D01*
G37*
G36*
X143758228Y-113481703D02*
G01*
X143913100Y-113545853D01*
X144052481Y-113638985D01*
X144171015Y-113757519D01*
X144264147Y-113896900D01*
X144328297Y-114051772D01*
X144361000Y-114216184D01*
X144361000Y-114383816D01*
X144328297Y-114548228D01*
X144264147Y-114703100D01*
X144171015Y-114842481D01*
X144052481Y-114961015D01*
X143913100Y-115054147D01*
X143758228Y-115118297D01*
X143593816Y-115151000D01*
X143426184Y-115151000D01*
X143261772Y-115118297D01*
X143106900Y-115054147D01*
X142967519Y-114961015D01*
X142848985Y-114842481D01*
X142755853Y-114703100D01*
X142691703Y-114548228D01*
X142659000Y-114383816D01*
X142659000Y-114216184D01*
X142691703Y-114051772D01*
X142755853Y-113896900D01*
X142848985Y-113757519D01*
X142967519Y-113638985D01*
X143106900Y-113545853D01*
X143261772Y-113481703D01*
X143426184Y-113449000D01*
X143593816Y-113449000D01*
X143758228Y-113481703D01*
G37*
G36*
X122168228Y-110941703D02*
G01*
X122323100Y-111005853D01*
X122462481Y-111098985D01*
X122581015Y-111217519D01*
X122674147Y-111356900D01*
X122738297Y-111511772D01*
X122771000Y-111676184D01*
X122771000Y-111843816D01*
X122738297Y-112008228D01*
X122674147Y-112163100D01*
X122581015Y-112302481D01*
X122462481Y-112421015D01*
X122323100Y-112514147D01*
X122168228Y-112578297D01*
X122003816Y-112611000D01*
X121836184Y-112611000D01*
X121671772Y-112578297D01*
X121516900Y-112514147D01*
X121377519Y-112421015D01*
X121258985Y-112302481D01*
X121165853Y-112163100D01*
X121101703Y-112008228D01*
X121069000Y-111843816D01*
X121069000Y-111676184D01*
X121101703Y-111511772D01*
X121165853Y-111356900D01*
X121258985Y-111217519D01*
X121377519Y-111098985D01*
X121516900Y-111005853D01*
X121671772Y-110941703D01*
X121836184Y-110909000D01*
X122003816Y-110909000D01*
X122168228Y-110941703D01*
G37*
G36*
X143758228Y-110941703D02*
G01*
X143913100Y-111005853D01*
X144052481Y-111098985D01*
X144171015Y-111217519D01*
X144264147Y-111356900D01*
X144328297Y-111511772D01*
X144361000Y-111676184D01*
X144361000Y-111843816D01*
X144328297Y-112008228D01*
X144264147Y-112163100D01*
X144171015Y-112302481D01*
X144052481Y-112421015D01*
X143913100Y-112514147D01*
X143758228Y-112578297D01*
X143593816Y-112611000D01*
X143426184Y-112611000D01*
X143261772Y-112578297D01*
X143106900Y-112514147D01*
X142967519Y-112421015D01*
X142848985Y-112302481D01*
X142755853Y-112163100D01*
X142691703Y-112008228D01*
X142659000Y-111843816D01*
X142659000Y-111676184D01*
X142691703Y-111511772D01*
X142755853Y-111356900D01*
X142848985Y-111217519D01*
X142967519Y-111098985D01*
X143106900Y-111005853D01*
X143261772Y-110941703D01*
X143426184Y-110909000D01*
X143593816Y-110909000D01*
X143758228Y-110941703D01*
G37*
G36*
X128518228Y-110941703D02*
G01*
X128673100Y-111005853D01*
X128812481Y-111098985D01*
X128931015Y-111217519D01*
X129024147Y-111356900D01*
X129088297Y-111511772D01*
X129121000Y-111676184D01*
X129121000Y-111843816D01*
X129088297Y-112008228D01*
X129024147Y-112163100D01*
X128931015Y-112302481D01*
X128812481Y-112421015D01*
X128673100Y-112514147D01*
X128518228Y-112578297D01*
X128353816Y-112611000D01*
X128186184Y-112611000D01*
X128021772Y-112578297D01*
X127866900Y-112514147D01*
X127727519Y-112421015D01*
X127608985Y-112302481D01*
X127515853Y-112163100D01*
X127451703Y-112008228D01*
X127419000Y-111843816D01*
X127419000Y-111676184D01*
X127451703Y-111511772D01*
X127515853Y-111356900D01*
X127608985Y-111217519D01*
X127727519Y-111098985D01*
X127866900Y-111005853D01*
X128021772Y-110941703D01*
X128186184Y-110909000D01*
X128353816Y-110909000D01*
X128518228Y-110941703D01*
G37*
G36*
X106928228Y-110941703D02*
G01*
X107083100Y-111005853D01*
X107222481Y-111098985D01*
X107341015Y-111217519D01*
X107434147Y-111356900D01*
X107498297Y-111511772D01*
X107531000Y-111676184D01*
X107531000Y-111843816D01*
X107498297Y-112008228D01*
X107434147Y-112163100D01*
X107341015Y-112302481D01*
X107222481Y-112421015D01*
X107083100Y-112514147D01*
X106928228Y-112578297D01*
X106763816Y-112611000D01*
X106596184Y-112611000D01*
X106431772Y-112578297D01*
X106276900Y-112514147D01*
X106137519Y-112421015D01*
X106018985Y-112302481D01*
X105925853Y-112163100D01*
X105861703Y-112008228D01*
X105829000Y-111843816D01*
X105829000Y-111676184D01*
X105861703Y-111511772D01*
X105925853Y-111356900D01*
X106018985Y-111217519D01*
X106137519Y-111098985D01*
X106276900Y-111005853D01*
X106431772Y-110941703D01*
X106596184Y-110909000D01*
X106763816Y-110909000D01*
X106928228Y-110941703D01*
G37*
G36*
X122168228Y-108401703D02*
G01*
X122323100Y-108465853D01*
X122462481Y-108558985D01*
X122581015Y-108677519D01*
X122674147Y-108816900D01*
X122738297Y-108971772D01*
X122771000Y-109136184D01*
X122771000Y-109303816D01*
X122738297Y-109468228D01*
X122674147Y-109623100D01*
X122581015Y-109762481D01*
X122462481Y-109881015D01*
X122323100Y-109974147D01*
X122168228Y-110038297D01*
X122003816Y-110071000D01*
X121836184Y-110071000D01*
X121671772Y-110038297D01*
X121516900Y-109974147D01*
X121377519Y-109881015D01*
X121258985Y-109762481D01*
X121165853Y-109623100D01*
X121101703Y-109468228D01*
X121069000Y-109303816D01*
X121069000Y-109136184D01*
X121101703Y-108971772D01*
X121165853Y-108816900D01*
X121258985Y-108677519D01*
X121377519Y-108558985D01*
X121516900Y-108465853D01*
X121671772Y-108401703D01*
X121836184Y-108369000D01*
X122003816Y-108369000D01*
X122168228Y-108401703D01*
G37*
G36*
X143758228Y-108401703D02*
G01*
X143913100Y-108465853D01*
X144052481Y-108558985D01*
X144171015Y-108677519D01*
X144264147Y-108816900D01*
X144328297Y-108971772D01*
X144361000Y-109136184D01*
X144361000Y-109303816D01*
X144328297Y-109468228D01*
X144264147Y-109623100D01*
X144171015Y-109762481D01*
X144052481Y-109881015D01*
X143913100Y-109974147D01*
X143758228Y-110038297D01*
X143593816Y-110071000D01*
X143426184Y-110071000D01*
X143261772Y-110038297D01*
X143106900Y-109974147D01*
X142967519Y-109881015D01*
X142848985Y-109762481D01*
X142755853Y-109623100D01*
X142691703Y-109468228D01*
X142659000Y-109303816D01*
X142659000Y-109136184D01*
X142691703Y-108971772D01*
X142755853Y-108816900D01*
X142848985Y-108677519D01*
X142967519Y-108558985D01*
X143106900Y-108465853D01*
X143261772Y-108401703D01*
X143426184Y-108369000D01*
X143593816Y-108369000D01*
X143758228Y-108401703D01*
G37*
G36*
X128518228Y-108401703D02*
G01*
X128673100Y-108465853D01*
X128812481Y-108558985D01*
X128931015Y-108677519D01*
X129024147Y-108816900D01*
X129088297Y-108971772D01*
X129121000Y-109136184D01*
X129121000Y-109303816D01*
X129088297Y-109468228D01*
X129024147Y-109623100D01*
X128931015Y-109762481D01*
X128812481Y-109881015D01*
X128673100Y-109974147D01*
X128518228Y-110038297D01*
X128353816Y-110071000D01*
X128186184Y-110071000D01*
X128021772Y-110038297D01*
X127866900Y-109974147D01*
X127727519Y-109881015D01*
X127608985Y-109762481D01*
X127515853Y-109623100D01*
X127451703Y-109468228D01*
X127419000Y-109303816D01*
X127419000Y-109136184D01*
X127451703Y-108971772D01*
X127515853Y-108816900D01*
X127608985Y-108677519D01*
X127727519Y-108558985D01*
X127866900Y-108465853D01*
X128021772Y-108401703D01*
X128186184Y-108369000D01*
X128353816Y-108369000D01*
X128518228Y-108401703D01*
G37*
G36*
X106928228Y-108401703D02*
G01*
X107083100Y-108465853D01*
X107222481Y-108558985D01*
X107341015Y-108677519D01*
X107434147Y-108816900D01*
X107498297Y-108971772D01*
X107531000Y-109136184D01*
X107531000Y-109303816D01*
X107498297Y-109468228D01*
X107434147Y-109623100D01*
X107341015Y-109762481D01*
X107222481Y-109881015D01*
X107083100Y-109974147D01*
X106928228Y-110038297D01*
X106763816Y-110071000D01*
X106596184Y-110071000D01*
X106431772Y-110038297D01*
X106276900Y-109974147D01*
X106137519Y-109881015D01*
X106018985Y-109762481D01*
X105925853Y-109623100D01*
X105861703Y-109468228D01*
X105829000Y-109303816D01*
X105829000Y-109136184D01*
X105861703Y-108971772D01*
X105925853Y-108816900D01*
X106018985Y-108677519D01*
X106137519Y-108558985D01*
X106276900Y-108465853D01*
X106431772Y-108401703D01*
X106596184Y-108369000D01*
X106763816Y-108369000D01*
X106928228Y-108401703D01*
G37*
G36*
X143758228Y-105861703D02*
G01*
X143913100Y-105925853D01*
X144052481Y-106018985D01*
X144171015Y-106137519D01*
X144264147Y-106276900D01*
X144328297Y-106431772D01*
X144361000Y-106596184D01*
X144361000Y-106763816D01*
X144328297Y-106928228D01*
X144264147Y-107083100D01*
X144171015Y-107222481D01*
X144052481Y-107341015D01*
X143913100Y-107434147D01*
X143758228Y-107498297D01*
X143593816Y-107531000D01*
X143426184Y-107531000D01*
X143261772Y-107498297D01*
X143106900Y-107434147D01*
X142967519Y-107341015D01*
X142848985Y-107222481D01*
X142755853Y-107083100D01*
X142691703Y-106928228D01*
X142659000Y-106763816D01*
X142659000Y-106596184D01*
X142691703Y-106431772D01*
X142755853Y-106276900D01*
X142848985Y-106137519D01*
X142967519Y-106018985D01*
X143106900Y-105925853D01*
X143261772Y-105861703D01*
X143426184Y-105829000D01*
X143593816Y-105829000D01*
X143758228Y-105861703D01*
G37*
G36*
X122168228Y-105861703D02*
G01*
X122323100Y-105925853D01*
X122462481Y-106018985D01*
X122581015Y-106137519D01*
X122674147Y-106276900D01*
X122738297Y-106431772D01*
X122771000Y-106596184D01*
X122771000Y-106763816D01*
X122738297Y-106928228D01*
X122674147Y-107083100D01*
X122581015Y-107222481D01*
X122462481Y-107341015D01*
X122323100Y-107434147D01*
X122168228Y-107498297D01*
X122003816Y-107531000D01*
X121836184Y-107531000D01*
X121671772Y-107498297D01*
X121516900Y-107434147D01*
X121377519Y-107341015D01*
X121258985Y-107222481D01*
X121165853Y-107083100D01*
X121101703Y-106928228D01*
X121069000Y-106763816D01*
X121069000Y-106596184D01*
X121101703Y-106431772D01*
X121165853Y-106276900D01*
X121258985Y-106137519D01*
X121377519Y-106018985D01*
X121516900Y-105925853D01*
X121671772Y-105861703D01*
X121836184Y-105829000D01*
X122003816Y-105829000D01*
X122168228Y-105861703D01*
G37*
G36*
X106928228Y-105861703D02*
G01*
X107083100Y-105925853D01*
X107222481Y-106018985D01*
X107341015Y-106137519D01*
X107434147Y-106276900D01*
X107498297Y-106431772D01*
X107531000Y-106596184D01*
X107531000Y-106763816D01*
X107498297Y-106928228D01*
X107434147Y-107083100D01*
X107341015Y-107222481D01*
X107222481Y-107341015D01*
X107083100Y-107434147D01*
X106928228Y-107498297D01*
X106763816Y-107531000D01*
X106596184Y-107531000D01*
X106431772Y-107498297D01*
X106276900Y-107434147D01*
X106137519Y-107341015D01*
X106018985Y-107222481D01*
X105925853Y-107083100D01*
X105861703Y-106928228D01*
X105829000Y-106763816D01*
X105829000Y-106596184D01*
X105861703Y-106431772D01*
X105925853Y-106276900D01*
X106018985Y-106137519D01*
X106137519Y-106018985D01*
X106276900Y-105925853D01*
X106431772Y-105861703D01*
X106596184Y-105829000D01*
X106763816Y-105829000D01*
X106928228Y-105861703D01*
G37*
G36*
X128518228Y-105861703D02*
G01*
X128673100Y-105925853D01*
X128812481Y-106018985D01*
X128931015Y-106137519D01*
X129024147Y-106276900D01*
X129088297Y-106431772D01*
X129121000Y-106596184D01*
X129121000Y-106763816D01*
X129088297Y-106928228D01*
X129024147Y-107083100D01*
X128931015Y-107222481D01*
X128812481Y-107341015D01*
X128673100Y-107434147D01*
X128518228Y-107498297D01*
X128353816Y-107531000D01*
X128186184Y-107531000D01*
X128021772Y-107498297D01*
X127866900Y-107434147D01*
X127727519Y-107341015D01*
X127608985Y-107222481D01*
X127515853Y-107083100D01*
X127451703Y-106928228D01*
X127419000Y-106763816D01*
X127419000Y-106596184D01*
X127451703Y-106431772D01*
X127515853Y-106276900D01*
X127608985Y-106137519D01*
X127727519Y-106018985D01*
X127866900Y-105925853D01*
X128021772Y-105861703D01*
X128186184Y-105829000D01*
X128353816Y-105829000D01*
X128518228Y-105861703D01*
G37*
G36*
X128518228Y-103321703D02*
G01*
X128673100Y-103385853D01*
X128812481Y-103478985D01*
X128931015Y-103597519D01*
X129024147Y-103736900D01*
X129088297Y-103891772D01*
X129121000Y-104056184D01*
X129121000Y-104223816D01*
X129088297Y-104388228D01*
X129024147Y-104543100D01*
X128931015Y-104682481D01*
X128812481Y-104801015D01*
X128673100Y-104894147D01*
X128518228Y-104958297D01*
X128353816Y-104991000D01*
X128186184Y-104991000D01*
X128021772Y-104958297D01*
X127866900Y-104894147D01*
X127727519Y-104801015D01*
X127608985Y-104682481D01*
X127515853Y-104543100D01*
X127451703Y-104388228D01*
X127419000Y-104223816D01*
X127419000Y-104056184D01*
X127451703Y-103891772D01*
X127515853Y-103736900D01*
X127608985Y-103597519D01*
X127727519Y-103478985D01*
X127866900Y-103385853D01*
X128021772Y-103321703D01*
X128186184Y-103289000D01*
X128353816Y-103289000D01*
X128518228Y-103321703D01*
G37*
G36*
X143758228Y-103321703D02*
G01*
X143913100Y-103385853D01*
X144052481Y-103478985D01*
X144171015Y-103597519D01*
X144264147Y-103736900D01*
X144328297Y-103891772D01*
X144361000Y-104056184D01*
X144361000Y-104223816D01*
X144328297Y-104388228D01*
X144264147Y-104543100D01*
X144171015Y-104682481D01*
X144052481Y-104801015D01*
X143913100Y-104894147D01*
X143758228Y-104958297D01*
X143593816Y-104991000D01*
X143426184Y-104991000D01*
X143261772Y-104958297D01*
X143106900Y-104894147D01*
X142967519Y-104801015D01*
X142848985Y-104682481D01*
X142755853Y-104543100D01*
X142691703Y-104388228D01*
X142659000Y-104223816D01*
X142659000Y-104056184D01*
X142691703Y-103891772D01*
X142755853Y-103736900D01*
X142848985Y-103597519D01*
X142967519Y-103478985D01*
X143106900Y-103385853D01*
X143261772Y-103321703D01*
X143426184Y-103289000D01*
X143593816Y-103289000D01*
X143758228Y-103321703D01*
G37*
G36*
X122168228Y-103321703D02*
G01*
X122323100Y-103385853D01*
X122462481Y-103478985D01*
X122581015Y-103597519D01*
X122674147Y-103736900D01*
X122738297Y-103891772D01*
X122771000Y-104056184D01*
X122771000Y-104223816D01*
X122738297Y-104388228D01*
X122674147Y-104543100D01*
X122581015Y-104682481D01*
X122462481Y-104801015D01*
X122323100Y-104894147D01*
X122168228Y-104958297D01*
X122003816Y-104991000D01*
X121836184Y-104991000D01*
X121671772Y-104958297D01*
X121516900Y-104894147D01*
X121377519Y-104801015D01*
X121258985Y-104682481D01*
X121165853Y-104543100D01*
X121101703Y-104388228D01*
X121069000Y-104223816D01*
X121069000Y-104056184D01*
X121101703Y-103891772D01*
X121165853Y-103736900D01*
X121258985Y-103597519D01*
X121377519Y-103478985D01*
X121516900Y-103385853D01*
X121671772Y-103321703D01*
X121836184Y-103289000D01*
X122003816Y-103289000D01*
X122168228Y-103321703D01*
G37*
G36*
X106928228Y-103321703D02*
G01*
X107083100Y-103385853D01*
X107222481Y-103478985D01*
X107341015Y-103597519D01*
X107434147Y-103736900D01*
X107498297Y-103891772D01*
X107531000Y-104056184D01*
X107531000Y-104223816D01*
X107498297Y-104388228D01*
X107434147Y-104543100D01*
X107341015Y-104682481D01*
X107222481Y-104801015D01*
X107083100Y-104894147D01*
X106928228Y-104958297D01*
X106763816Y-104991000D01*
X106596184Y-104991000D01*
X106431772Y-104958297D01*
X106276900Y-104894147D01*
X106137519Y-104801015D01*
X106018985Y-104682481D01*
X105925853Y-104543100D01*
X105861703Y-104388228D01*
X105829000Y-104223816D01*
X105829000Y-104056184D01*
X105861703Y-103891772D01*
X105925853Y-103736900D01*
X106018985Y-103597519D01*
X106137519Y-103478985D01*
X106276900Y-103385853D01*
X106431772Y-103321703D01*
X106596184Y-103289000D01*
X106763816Y-103289000D01*
X106928228Y-103321703D01*
G37*
G36*
X122168228Y-100781703D02*
G01*
X122323100Y-100845853D01*
X122462481Y-100938985D01*
X122581015Y-101057519D01*
X122674147Y-101196900D01*
X122738297Y-101351772D01*
X122771000Y-101516184D01*
X122771000Y-101683816D01*
X122738297Y-101848228D01*
X122674147Y-102003100D01*
X122581015Y-102142481D01*
X122462481Y-102261015D01*
X122323100Y-102354147D01*
X122168228Y-102418297D01*
X122003816Y-102451000D01*
X121836184Y-102451000D01*
X121671772Y-102418297D01*
X121516900Y-102354147D01*
X121377519Y-102261015D01*
X121258985Y-102142481D01*
X121165853Y-102003100D01*
X121101703Y-101848228D01*
X121069000Y-101683816D01*
X121069000Y-101516184D01*
X121101703Y-101351772D01*
X121165853Y-101196900D01*
X121258985Y-101057519D01*
X121377519Y-100938985D01*
X121516900Y-100845853D01*
X121671772Y-100781703D01*
X121836184Y-100749000D01*
X122003816Y-100749000D01*
X122168228Y-100781703D01*
G37*
G36*
X128518228Y-100781703D02*
G01*
X128673100Y-100845853D01*
X128812481Y-100938985D01*
X128931015Y-101057519D01*
X129024147Y-101196900D01*
X129088297Y-101351772D01*
X129121000Y-101516184D01*
X129121000Y-101683816D01*
X129088297Y-101848228D01*
X129024147Y-102003100D01*
X128931015Y-102142481D01*
X128812481Y-102261015D01*
X128673100Y-102354147D01*
X128518228Y-102418297D01*
X128353816Y-102451000D01*
X128186184Y-102451000D01*
X128021772Y-102418297D01*
X127866900Y-102354147D01*
X127727519Y-102261015D01*
X127608985Y-102142481D01*
X127515853Y-102003100D01*
X127451703Y-101848228D01*
X127419000Y-101683816D01*
X127419000Y-101516184D01*
X127451703Y-101351772D01*
X127515853Y-101196900D01*
X127608985Y-101057519D01*
X127727519Y-100938985D01*
X127866900Y-100845853D01*
X128021772Y-100781703D01*
X128186184Y-100749000D01*
X128353816Y-100749000D01*
X128518228Y-100781703D01*
G37*
G36*
X106928228Y-100781703D02*
G01*
X107083100Y-100845853D01*
X107222481Y-100938985D01*
X107341015Y-101057519D01*
X107434147Y-101196900D01*
X107498297Y-101351772D01*
X107531000Y-101516184D01*
X107531000Y-101683816D01*
X107498297Y-101848228D01*
X107434147Y-102003100D01*
X107341015Y-102142481D01*
X107222481Y-102261015D01*
X107083100Y-102354147D01*
X106928228Y-102418297D01*
X106763816Y-102451000D01*
X106596184Y-102451000D01*
X106431772Y-102418297D01*
X106276900Y-102354147D01*
X106137519Y-102261015D01*
X106018985Y-102142481D01*
X105925853Y-102003100D01*
X105861703Y-101848228D01*
X105829000Y-101683816D01*
X105829000Y-101516184D01*
X105861703Y-101351772D01*
X105925853Y-101196900D01*
X106018985Y-101057519D01*
X106137519Y-100938985D01*
X106276900Y-100845853D01*
X106431772Y-100781703D01*
X106596184Y-100749000D01*
X106763816Y-100749000D01*
X106928228Y-100781703D01*
G37*
G36*
X143758228Y-100781703D02*
G01*
X143913100Y-100845853D01*
X144052481Y-100938985D01*
X144171015Y-101057519D01*
X144264147Y-101196900D01*
X144328297Y-101351772D01*
X144361000Y-101516184D01*
X144361000Y-101683816D01*
X144328297Y-101848228D01*
X144264147Y-102003100D01*
X144171015Y-102142481D01*
X144052481Y-102261015D01*
X143913100Y-102354147D01*
X143758228Y-102418297D01*
X143593816Y-102451000D01*
X143426184Y-102451000D01*
X143261772Y-102418297D01*
X143106900Y-102354147D01*
X142967519Y-102261015D01*
X142848985Y-102142481D01*
X142755853Y-102003100D01*
X142691703Y-101848228D01*
X142659000Y-101683816D01*
X142659000Y-101516184D01*
X142691703Y-101351772D01*
X142755853Y-101196900D01*
X142848985Y-101057519D01*
X142967519Y-100938985D01*
X143106900Y-100845853D01*
X143261772Y-100781703D01*
X143426184Y-100749000D01*
X143593816Y-100749000D01*
X143758228Y-100781703D01*
G37*
G36*
X122168228Y-98241703D02*
G01*
X122323100Y-98305853D01*
X122462481Y-98398985D01*
X122581015Y-98517519D01*
X122674147Y-98656900D01*
X122738297Y-98811772D01*
X122771000Y-98976184D01*
X122771000Y-99143816D01*
X122738297Y-99308228D01*
X122674147Y-99463100D01*
X122581015Y-99602481D01*
X122462481Y-99721015D01*
X122323100Y-99814147D01*
X122168228Y-99878297D01*
X122003816Y-99911000D01*
X121836184Y-99911000D01*
X121671772Y-99878297D01*
X121516900Y-99814147D01*
X121377519Y-99721015D01*
X121258985Y-99602481D01*
X121165853Y-99463100D01*
X121101703Y-99308228D01*
X121069000Y-99143816D01*
X121069000Y-98976184D01*
X121101703Y-98811772D01*
X121165853Y-98656900D01*
X121258985Y-98517519D01*
X121377519Y-98398985D01*
X121516900Y-98305853D01*
X121671772Y-98241703D01*
X121836184Y-98209000D01*
X122003816Y-98209000D01*
X122168228Y-98241703D01*
G37*
G36*
X133678228Y-98241703D02*
G01*
X133833100Y-98305853D01*
X133972481Y-98398985D01*
X134091015Y-98517519D01*
X134184147Y-98656900D01*
X134248297Y-98811772D01*
X134281000Y-98976184D01*
X134281000Y-99143816D01*
X134248297Y-99308228D01*
X134184147Y-99463100D01*
X134091015Y-99602481D01*
X133972481Y-99721015D01*
X133833100Y-99814147D01*
X133678228Y-99878297D01*
X133513816Y-99911000D01*
X133346184Y-99911000D01*
X133181772Y-99878297D01*
X133026900Y-99814147D01*
X132887519Y-99721015D01*
X132768985Y-99602481D01*
X132675853Y-99463100D01*
X132611703Y-99308228D01*
X132579000Y-99143816D01*
X132579000Y-98976184D01*
X132611703Y-98811772D01*
X132675853Y-98656900D01*
X132768985Y-98517519D01*
X132887519Y-98398985D01*
X133026900Y-98305853D01*
X133181772Y-98241703D01*
X133346184Y-98209000D01*
X133513816Y-98209000D01*
X133678228Y-98241703D01*
G37*
G36*
X138678228Y-98241703D02*
G01*
X138833100Y-98305853D01*
X138972481Y-98398985D01*
X139091015Y-98517519D01*
X139184147Y-98656900D01*
X139248297Y-98811772D01*
X139281000Y-98976184D01*
X139281000Y-99143816D01*
X139248297Y-99308228D01*
X139184147Y-99463100D01*
X139091015Y-99602481D01*
X138972481Y-99721015D01*
X138833100Y-99814147D01*
X138678228Y-99878297D01*
X138513816Y-99911000D01*
X138346184Y-99911000D01*
X138181772Y-99878297D01*
X138026900Y-99814147D01*
X137887519Y-99721015D01*
X137768985Y-99602481D01*
X137675853Y-99463100D01*
X137611703Y-99308228D01*
X137579000Y-99143816D01*
X137579000Y-98976184D01*
X137611703Y-98811772D01*
X137675853Y-98656900D01*
X137768985Y-98517519D01*
X137887519Y-98398985D01*
X138026900Y-98305853D01*
X138181772Y-98241703D01*
X138346184Y-98209000D01*
X138513816Y-98209000D01*
X138678228Y-98241703D01*
G37*
G36*
X106928228Y-98241703D02*
G01*
X107083100Y-98305853D01*
X107222481Y-98398985D01*
X107341015Y-98517519D01*
X107434147Y-98656900D01*
X107498297Y-98811772D01*
X107531000Y-98976184D01*
X107531000Y-99143816D01*
X107498297Y-99308228D01*
X107434147Y-99463100D01*
X107341015Y-99602481D01*
X107222481Y-99721015D01*
X107083100Y-99814147D01*
X106928228Y-99878297D01*
X106763816Y-99911000D01*
X106596184Y-99911000D01*
X106431772Y-99878297D01*
X106276900Y-99814147D01*
X106137519Y-99721015D01*
X106018985Y-99602481D01*
X105925853Y-99463100D01*
X105861703Y-99308228D01*
X105829000Y-99143816D01*
X105829000Y-98976184D01*
X105861703Y-98811772D01*
X105925853Y-98656900D01*
X106018985Y-98517519D01*
X106137519Y-98398985D01*
X106276900Y-98305853D01*
X106431772Y-98241703D01*
X106596184Y-98209000D01*
X106763816Y-98209000D01*
X106928228Y-98241703D01*
G37*
G36*
X129121000Y-99911000D02*
G01*
X127419000Y-99911000D01*
X127419000Y-98209000D01*
X129121000Y-98209000D01*
X129121000Y-99911000D01*
G37*
G36*
X143758228Y-98241703D02*
G01*
X143913100Y-98305853D01*
X144052481Y-98398985D01*
X144171015Y-98517519D01*
X144264147Y-98656900D01*
X144328297Y-98811772D01*
X144361000Y-98976184D01*
X144361000Y-99143816D01*
X144328297Y-99308228D01*
X144264147Y-99463100D01*
X144171015Y-99602481D01*
X144052481Y-99721015D01*
X143913100Y-99814147D01*
X143758228Y-99878297D01*
X143593816Y-99911000D01*
X143426184Y-99911000D01*
X143261772Y-99878297D01*
X143106900Y-99814147D01*
X142967519Y-99721015D01*
X142848985Y-99602481D01*
X142755853Y-99463100D01*
X142691703Y-99308228D01*
X142659000Y-99143816D01*
X142659000Y-98976184D01*
X142691703Y-98811772D01*
X142755853Y-98656900D01*
X142848985Y-98517519D01*
X142967519Y-98398985D01*
X143106900Y-98305853D01*
X143261772Y-98241703D01*
X143426184Y-98209000D01*
X143593816Y-98209000D01*
X143758228Y-98241703D01*
G37*
G36*
X106928228Y-95701703D02*
G01*
X107083100Y-95765853D01*
X107222481Y-95858985D01*
X107341015Y-95977519D01*
X107434147Y-96116900D01*
X107498297Y-96271772D01*
X107531000Y-96436184D01*
X107531000Y-96603816D01*
X107498297Y-96768228D01*
X107434147Y-96923100D01*
X107341015Y-97062481D01*
X107222481Y-97181015D01*
X107083100Y-97274147D01*
X106928228Y-97338297D01*
X106763816Y-97371000D01*
X106596184Y-97371000D01*
X106431772Y-97338297D01*
X106276900Y-97274147D01*
X106137519Y-97181015D01*
X106018985Y-97062481D01*
X105925853Y-96923100D01*
X105861703Y-96768228D01*
X105829000Y-96603816D01*
X105829000Y-96436184D01*
X105861703Y-96271772D01*
X105925853Y-96116900D01*
X106018985Y-95977519D01*
X106137519Y-95858985D01*
X106276900Y-95765853D01*
X106431772Y-95701703D01*
X106596184Y-95669000D01*
X106763816Y-95669000D01*
X106928228Y-95701703D01*
G37*
G36*
X109468228Y-95701703D02*
G01*
X109623100Y-95765853D01*
X109762481Y-95858985D01*
X109881015Y-95977519D01*
X109974147Y-96116900D01*
X110038297Y-96271772D01*
X110071000Y-96436184D01*
X110071000Y-96603816D01*
X110038297Y-96768228D01*
X109974147Y-96923100D01*
X109881015Y-97062481D01*
X109762481Y-97181015D01*
X109623100Y-97274147D01*
X109468228Y-97338297D01*
X109303816Y-97371000D01*
X109136184Y-97371000D01*
X108971772Y-97338297D01*
X108816900Y-97274147D01*
X108677519Y-97181015D01*
X108558985Y-97062481D01*
X108465853Y-96923100D01*
X108401703Y-96768228D01*
X108369000Y-96603816D01*
X108369000Y-96436184D01*
X108401703Y-96271772D01*
X108465853Y-96116900D01*
X108558985Y-95977519D01*
X108677519Y-95858985D01*
X108816900Y-95765853D01*
X108971772Y-95701703D01*
X109136184Y-95669000D01*
X109303816Y-95669000D01*
X109468228Y-95701703D01*
G37*
G36*
X122168228Y-95701703D02*
G01*
X122323100Y-95765853D01*
X122462481Y-95858985D01*
X122581015Y-95977519D01*
X122674147Y-96116900D01*
X122738297Y-96271772D01*
X122771000Y-96436184D01*
X122771000Y-96603816D01*
X122738297Y-96768228D01*
X122674147Y-96923100D01*
X122581015Y-97062481D01*
X122462481Y-97181015D01*
X122323100Y-97274147D01*
X122168228Y-97338297D01*
X122003816Y-97371000D01*
X121836184Y-97371000D01*
X121671772Y-97338297D01*
X121516900Y-97274147D01*
X121377519Y-97181015D01*
X121258985Y-97062481D01*
X121165853Y-96923100D01*
X121101703Y-96768228D01*
X121069000Y-96603816D01*
X121069000Y-96436184D01*
X121101703Y-96271772D01*
X121165853Y-96116900D01*
X121258985Y-95977519D01*
X121377519Y-95858985D01*
X121516900Y-95765853D01*
X121671772Y-95701703D01*
X121836184Y-95669000D01*
X122003816Y-95669000D01*
X122168228Y-95701703D01*
G37*
G36*
X119628228Y-95701703D02*
G01*
X119783100Y-95765853D01*
X119922481Y-95858985D01*
X120041015Y-95977519D01*
X120134147Y-96116900D01*
X120198297Y-96271772D01*
X120231000Y-96436184D01*
X120231000Y-96603816D01*
X120198297Y-96768228D01*
X120134147Y-96923100D01*
X120041015Y-97062481D01*
X119922481Y-97181015D01*
X119783100Y-97274147D01*
X119628228Y-97338297D01*
X119463816Y-97371000D01*
X119296184Y-97371000D01*
X119131772Y-97338297D01*
X118976900Y-97274147D01*
X118837519Y-97181015D01*
X118718985Y-97062481D01*
X118625853Y-96923100D01*
X118561703Y-96768228D01*
X118529000Y-96603816D01*
X118529000Y-96436184D01*
X118561703Y-96271772D01*
X118625853Y-96116900D01*
X118718985Y-95977519D01*
X118837519Y-95858985D01*
X118976900Y-95765853D01*
X119131772Y-95701703D01*
X119296184Y-95669000D01*
X119463816Y-95669000D01*
X119628228Y-95701703D01*
G37*
G36*
X128518228Y-94431703D02*
G01*
X128673100Y-94495853D01*
X128812481Y-94588985D01*
X128931015Y-94707519D01*
X129024147Y-94846900D01*
X129088297Y-95001772D01*
X129121000Y-95166184D01*
X129121000Y-95333816D01*
X129088297Y-95498228D01*
X129024147Y-95653100D01*
X128931015Y-95792481D01*
X128812481Y-95911015D01*
X128673100Y-96004147D01*
X128518228Y-96068297D01*
X128353816Y-96101000D01*
X128186184Y-96101000D01*
X128021772Y-96068297D01*
X127866900Y-96004147D01*
X127727519Y-95911015D01*
X127608985Y-95792481D01*
X127515853Y-95653100D01*
X127451703Y-95498228D01*
X127419000Y-95333816D01*
X127419000Y-95166184D01*
X127451703Y-95001772D01*
X127515853Y-94846900D01*
X127608985Y-94707519D01*
X127727519Y-94588985D01*
X127866900Y-94495853D01*
X128021772Y-94431703D01*
X128186184Y-94399000D01*
X128353816Y-94399000D01*
X128518228Y-94431703D01*
G37*
G36*
X143758228Y-94431703D02*
G01*
X143913100Y-94495853D01*
X144052481Y-94588985D01*
X144171015Y-94707519D01*
X144264147Y-94846900D01*
X144328297Y-95001772D01*
X144361000Y-95166184D01*
X144361000Y-95333816D01*
X144328297Y-95498228D01*
X144264147Y-95653100D01*
X144171015Y-95792481D01*
X144052481Y-95911015D01*
X143913100Y-96004147D01*
X143758228Y-96068297D01*
X143593816Y-96101000D01*
X143426184Y-96101000D01*
X143261772Y-96068297D01*
X143106900Y-96004147D01*
X142967519Y-95911015D01*
X142848985Y-95792481D01*
X142755853Y-95653100D01*
X142691703Y-95498228D01*
X142659000Y-95333816D01*
X142659000Y-95166184D01*
X142691703Y-95001772D01*
X142755853Y-94846900D01*
X142848985Y-94707519D01*
X142967519Y-94588985D01*
X143106900Y-94495853D01*
X143261772Y-94431703D01*
X143426184Y-94399000D01*
X143593816Y-94399000D01*
X143758228Y-94431703D01*
G37*
G36*
X122168228Y-93161703D02*
G01*
X122323100Y-93225853D01*
X122462481Y-93318985D01*
X122581015Y-93437519D01*
X122674147Y-93576900D01*
X122738297Y-93731772D01*
X122771000Y-93896184D01*
X122771000Y-94063816D01*
X122738297Y-94228228D01*
X122674147Y-94383100D01*
X122581015Y-94522481D01*
X122462481Y-94641015D01*
X122323100Y-94734147D01*
X122168228Y-94798297D01*
X122003816Y-94831000D01*
X121836184Y-94831000D01*
X121671772Y-94798297D01*
X121516900Y-94734147D01*
X121377519Y-94641015D01*
X121258985Y-94522481D01*
X121165853Y-94383100D01*
X121101703Y-94228228D01*
X121069000Y-94063816D01*
X121069000Y-93896184D01*
X121101703Y-93731772D01*
X121165853Y-93576900D01*
X121258985Y-93437519D01*
X121377519Y-93318985D01*
X121516900Y-93225853D01*
X121671772Y-93161703D01*
X121836184Y-93129000D01*
X122003816Y-93129000D01*
X122168228Y-93161703D01*
G37*
G36*
X109468228Y-93161703D02*
G01*
X109623100Y-93225853D01*
X109762481Y-93318985D01*
X109881015Y-93437519D01*
X109974147Y-93576900D01*
X110038297Y-93731772D01*
X110071000Y-93896184D01*
X110071000Y-94063816D01*
X110038297Y-94228228D01*
X109974147Y-94383100D01*
X109881015Y-94522481D01*
X109762481Y-94641015D01*
X109623100Y-94734147D01*
X109468228Y-94798297D01*
X109303816Y-94831000D01*
X109136184Y-94831000D01*
X108971772Y-94798297D01*
X108816900Y-94734147D01*
X108677519Y-94641015D01*
X108558985Y-94522481D01*
X108465853Y-94383100D01*
X108401703Y-94228228D01*
X108369000Y-94063816D01*
X108369000Y-93896184D01*
X108401703Y-93731772D01*
X108465853Y-93576900D01*
X108558985Y-93437519D01*
X108677519Y-93318985D01*
X108816900Y-93225853D01*
X108971772Y-93161703D01*
X109136184Y-93129000D01*
X109303816Y-93129000D01*
X109468228Y-93161703D01*
G37*
G36*
X106928228Y-93161703D02*
G01*
X107083100Y-93225853D01*
X107222481Y-93318985D01*
X107341015Y-93437519D01*
X107434147Y-93576900D01*
X107498297Y-93731772D01*
X107531000Y-93896184D01*
X107531000Y-94063816D01*
X107498297Y-94228228D01*
X107434147Y-94383100D01*
X107341015Y-94522481D01*
X107222481Y-94641015D01*
X107083100Y-94734147D01*
X106928228Y-94798297D01*
X106763816Y-94831000D01*
X106596184Y-94831000D01*
X106431772Y-94798297D01*
X106276900Y-94734147D01*
X106137519Y-94641015D01*
X106018985Y-94522481D01*
X105925853Y-94383100D01*
X105861703Y-94228228D01*
X105829000Y-94063816D01*
X105829000Y-93896184D01*
X105861703Y-93731772D01*
X105925853Y-93576900D01*
X106018985Y-93437519D01*
X106137519Y-93318985D01*
X106276900Y-93225853D01*
X106431772Y-93161703D01*
X106596184Y-93129000D01*
X106763816Y-93129000D01*
X106928228Y-93161703D01*
G37*
G36*
X119628228Y-93161703D02*
G01*
X119783100Y-93225853D01*
X119922481Y-93318985D01*
X120041015Y-93437519D01*
X120134147Y-93576900D01*
X120198297Y-93731772D01*
X120231000Y-93896184D01*
X120231000Y-94063816D01*
X120198297Y-94228228D01*
X120134147Y-94383100D01*
X120041015Y-94522481D01*
X119922481Y-94641015D01*
X119783100Y-94734147D01*
X119628228Y-94798297D01*
X119463816Y-94831000D01*
X119296184Y-94831000D01*
X119131772Y-94798297D01*
X118976900Y-94734147D01*
X118837519Y-94641015D01*
X118718985Y-94522481D01*
X118625853Y-94383100D01*
X118561703Y-94228228D01*
X118529000Y-94063816D01*
X118529000Y-93896184D01*
X118561703Y-93731772D01*
X118625853Y-93576900D01*
X118718985Y-93437519D01*
X118837519Y-93318985D01*
X118976900Y-93225853D01*
X119131772Y-93161703D01*
X119296184Y-93129000D01*
X119463816Y-93129000D01*
X119628228Y-93161703D01*
G37*
G36*
X143758228Y-91891703D02*
G01*
X143913100Y-91955853D01*
X144052481Y-92048985D01*
X144171015Y-92167519D01*
X144264147Y-92306900D01*
X144328297Y-92461772D01*
X144361000Y-92626184D01*
X144361000Y-92793816D01*
X144328297Y-92958228D01*
X144264147Y-93113100D01*
X144171015Y-93252481D01*
X144052481Y-93371015D01*
X143913100Y-93464147D01*
X143758228Y-93528297D01*
X143593816Y-93561000D01*
X143426184Y-93561000D01*
X143261772Y-93528297D01*
X143106900Y-93464147D01*
X142967519Y-93371015D01*
X142848985Y-93252481D01*
X142755853Y-93113100D01*
X142691703Y-92958228D01*
X142659000Y-92793816D01*
X142659000Y-92626184D01*
X142691703Y-92461772D01*
X142755853Y-92306900D01*
X142848985Y-92167519D01*
X142967519Y-92048985D01*
X143106900Y-91955853D01*
X143261772Y-91891703D01*
X143426184Y-91859000D01*
X143593816Y-91859000D01*
X143758228Y-91891703D01*
G37*
G36*
X128518228Y-91891703D02*
G01*
X128673100Y-91955853D01*
X128812481Y-92048985D01*
X128931015Y-92167519D01*
X129024147Y-92306900D01*
X129088297Y-92461772D01*
X129121000Y-92626184D01*
X129121000Y-92793816D01*
X129088297Y-92958228D01*
X129024147Y-93113100D01*
X128931015Y-93252481D01*
X128812481Y-93371015D01*
X128673100Y-93464147D01*
X128518228Y-93528297D01*
X128353816Y-93561000D01*
X128186184Y-93561000D01*
X128021772Y-93528297D01*
X127866900Y-93464147D01*
X127727519Y-93371015D01*
X127608985Y-93252481D01*
X127515853Y-93113100D01*
X127451703Y-92958228D01*
X127419000Y-92793816D01*
X127419000Y-92626184D01*
X127451703Y-92461772D01*
X127515853Y-92306900D01*
X127608985Y-92167519D01*
X127727519Y-92048985D01*
X127866900Y-91955853D01*
X128021772Y-91891703D01*
X128186184Y-91859000D01*
X128353816Y-91859000D01*
X128518228Y-91891703D01*
G37*
G36*
X119628228Y-90621703D02*
G01*
X119783100Y-90685853D01*
X119922481Y-90778985D01*
X120041015Y-90897519D01*
X120134147Y-91036900D01*
X120198297Y-91191772D01*
X120231000Y-91356184D01*
X120231000Y-91523816D01*
X120198297Y-91688228D01*
X120134147Y-91843100D01*
X120041015Y-91982481D01*
X119922481Y-92101015D01*
X119783100Y-92194147D01*
X119628228Y-92258297D01*
X119463816Y-92291000D01*
X119296184Y-92291000D01*
X119131772Y-92258297D01*
X118976900Y-92194147D01*
X118837519Y-92101015D01*
X118718985Y-91982481D01*
X118625853Y-91843100D01*
X118561703Y-91688228D01*
X118529000Y-91523816D01*
X118529000Y-91356184D01*
X118561703Y-91191772D01*
X118625853Y-91036900D01*
X118718985Y-90897519D01*
X118837519Y-90778985D01*
X118976900Y-90685853D01*
X119131772Y-90621703D01*
X119296184Y-90589000D01*
X119463816Y-90589000D01*
X119628228Y-90621703D01*
G37*
G36*
X106928228Y-90621703D02*
G01*
X107083100Y-90685853D01*
X107222481Y-90778985D01*
X107341015Y-90897519D01*
X107434147Y-91036900D01*
X107498297Y-91191772D01*
X107531000Y-91356184D01*
X107531000Y-91523816D01*
X107498297Y-91688228D01*
X107434147Y-91843100D01*
X107341015Y-91982481D01*
X107222481Y-92101015D01*
X107083100Y-92194147D01*
X106928228Y-92258297D01*
X106763816Y-92291000D01*
X106596184Y-92291000D01*
X106431772Y-92258297D01*
X106276900Y-92194147D01*
X106137519Y-92101015D01*
X106018985Y-91982481D01*
X105925853Y-91843100D01*
X105861703Y-91688228D01*
X105829000Y-91523816D01*
X105829000Y-91356184D01*
X105861703Y-91191772D01*
X105925853Y-91036900D01*
X106018985Y-90897519D01*
X106137519Y-90778985D01*
X106276900Y-90685853D01*
X106431772Y-90621703D01*
X106596184Y-90589000D01*
X106763816Y-90589000D01*
X106928228Y-90621703D01*
G37*
G36*
X122168228Y-90621703D02*
G01*
X122323100Y-90685853D01*
X122462481Y-90778985D01*
X122581015Y-90897519D01*
X122674147Y-91036900D01*
X122738297Y-91191772D01*
X122771000Y-91356184D01*
X122771000Y-91523816D01*
X122738297Y-91688228D01*
X122674147Y-91843100D01*
X122581015Y-91982481D01*
X122462481Y-92101015D01*
X122323100Y-92194147D01*
X122168228Y-92258297D01*
X122003816Y-92291000D01*
X121836184Y-92291000D01*
X121671772Y-92258297D01*
X121516900Y-92194147D01*
X121377519Y-92101015D01*
X121258985Y-91982481D01*
X121165853Y-91843100D01*
X121101703Y-91688228D01*
X121069000Y-91523816D01*
X121069000Y-91356184D01*
X121101703Y-91191772D01*
X121165853Y-91036900D01*
X121258985Y-90897519D01*
X121377519Y-90778985D01*
X121516900Y-90685853D01*
X121671772Y-90621703D01*
X121836184Y-90589000D01*
X122003816Y-90589000D01*
X122168228Y-90621703D01*
G37*
G36*
X109468228Y-90621703D02*
G01*
X109623100Y-90685853D01*
X109762481Y-90778985D01*
X109881015Y-90897519D01*
X109974147Y-91036900D01*
X110038297Y-91191772D01*
X110071000Y-91356184D01*
X110071000Y-91523816D01*
X110038297Y-91688228D01*
X109974147Y-91843100D01*
X109881015Y-91982481D01*
X109762481Y-92101015D01*
X109623100Y-92194147D01*
X109468228Y-92258297D01*
X109303816Y-92291000D01*
X109136184Y-92291000D01*
X108971772Y-92258297D01*
X108816900Y-92194147D01*
X108677519Y-92101015D01*
X108558985Y-91982481D01*
X108465853Y-91843100D01*
X108401703Y-91688228D01*
X108369000Y-91523816D01*
X108369000Y-91356184D01*
X108401703Y-91191772D01*
X108465853Y-91036900D01*
X108558985Y-90897519D01*
X108677519Y-90778985D01*
X108816900Y-90685853D01*
X108971772Y-90621703D01*
X109136184Y-90589000D01*
X109303816Y-90589000D01*
X109468228Y-90621703D01*
G37*
G36*
X143758228Y-89351703D02*
G01*
X143913100Y-89415853D01*
X144052481Y-89508985D01*
X144171015Y-89627519D01*
X144264147Y-89766900D01*
X144328297Y-89921772D01*
X144361000Y-90086184D01*
X144361000Y-90253816D01*
X144328297Y-90418228D01*
X144264147Y-90573100D01*
X144171015Y-90712481D01*
X144052481Y-90831015D01*
X143913100Y-90924147D01*
X143758228Y-90988297D01*
X143593816Y-91021000D01*
X143426184Y-91021000D01*
X143261772Y-90988297D01*
X143106900Y-90924147D01*
X142967519Y-90831015D01*
X142848985Y-90712481D01*
X142755853Y-90573100D01*
X142691703Y-90418228D01*
X142659000Y-90253816D01*
X142659000Y-90086184D01*
X142691703Y-89921772D01*
X142755853Y-89766900D01*
X142848985Y-89627519D01*
X142967519Y-89508985D01*
X143106900Y-89415853D01*
X143261772Y-89351703D01*
X143426184Y-89319000D01*
X143593816Y-89319000D01*
X143758228Y-89351703D01*
G37*
G36*
X128518228Y-89351703D02*
G01*
X128673100Y-89415853D01*
X128812481Y-89508985D01*
X128931015Y-89627519D01*
X129024147Y-89766900D01*
X129088297Y-89921772D01*
X129121000Y-90086184D01*
X129121000Y-90253816D01*
X129088297Y-90418228D01*
X129024147Y-90573100D01*
X128931015Y-90712481D01*
X128812481Y-90831015D01*
X128673100Y-90924147D01*
X128518228Y-90988297D01*
X128353816Y-91021000D01*
X128186184Y-91021000D01*
X128021772Y-90988297D01*
X127866900Y-90924147D01*
X127727519Y-90831015D01*
X127608985Y-90712481D01*
X127515853Y-90573100D01*
X127451703Y-90418228D01*
X127419000Y-90253816D01*
X127419000Y-90086184D01*
X127451703Y-89921772D01*
X127515853Y-89766900D01*
X127608985Y-89627519D01*
X127727519Y-89508985D01*
X127866900Y-89415853D01*
X128021772Y-89351703D01*
X128186184Y-89319000D01*
X128353816Y-89319000D01*
X128518228Y-89351703D01*
G37*
G36*
X109468228Y-88081703D02*
G01*
X109623100Y-88145853D01*
X109762481Y-88238985D01*
X109881015Y-88357519D01*
X109974147Y-88496900D01*
X110038297Y-88651772D01*
X110071000Y-88816184D01*
X110071000Y-88983816D01*
X110038297Y-89148228D01*
X109974147Y-89303100D01*
X109881015Y-89442481D01*
X109762481Y-89561015D01*
X109623100Y-89654147D01*
X109468228Y-89718297D01*
X109303816Y-89751000D01*
X109136184Y-89751000D01*
X108971772Y-89718297D01*
X108816900Y-89654147D01*
X108677519Y-89561015D01*
X108558985Y-89442481D01*
X108465853Y-89303100D01*
X108401703Y-89148228D01*
X108369000Y-88983816D01*
X108369000Y-88816184D01*
X108401703Y-88651772D01*
X108465853Y-88496900D01*
X108558985Y-88357519D01*
X108677519Y-88238985D01*
X108816900Y-88145853D01*
X108971772Y-88081703D01*
X109136184Y-88049000D01*
X109303816Y-88049000D01*
X109468228Y-88081703D01*
G37*
G36*
X106928228Y-88081703D02*
G01*
X107083100Y-88145853D01*
X107222481Y-88238985D01*
X107341015Y-88357519D01*
X107434147Y-88496900D01*
X107498297Y-88651772D01*
X107531000Y-88816184D01*
X107531000Y-88983816D01*
X107498297Y-89148228D01*
X107434147Y-89303100D01*
X107341015Y-89442481D01*
X107222481Y-89561015D01*
X107083100Y-89654147D01*
X106928228Y-89718297D01*
X106763816Y-89751000D01*
X106596184Y-89751000D01*
X106431772Y-89718297D01*
X106276900Y-89654147D01*
X106137519Y-89561015D01*
X106018985Y-89442481D01*
X105925853Y-89303100D01*
X105861703Y-89148228D01*
X105829000Y-88983816D01*
X105829000Y-88816184D01*
X105861703Y-88651772D01*
X105925853Y-88496900D01*
X106018985Y-88357519D01*
X106137519Y-88238985D01*
X106276900Y-88145853D01*
X106431772Y-88081703D01*
X106596184Y-88049000D01*
X106763816Y-88049000D01*
X106928228Y-88081703D01*
G37*
G36*
X119628228Y-88081703D02*
G01*
X119783100Y-88145853D01*
X119922481Y-88238985D01*
X120041015Y-88357519D01*
X120134147Y-88496900D01*
X120198297Y-88651772D01*
X120231000Y-88816184D01*
X120231000Y-88983816D01*
X120198297Y-89148228D01*
X120134147Y-89303100D01*
X120041015Y-89442481D01*
X119922481Y-89561015D01*
X119783100Y-89654147D01*
X119628228Y-89718297D01*
X119463816Y-89751000D01*
X119296184Y-89751000D01*
X119131772Y-89718297D01*
X118976900Y-89654147D01*
X118837519Y-89561015D01*
X118718985Y-89442481D01*
X118625853Y-89303100D01*
X118561703Y-89148228D01*
X118529000Y-88983816D01*
X118529000Y-88816184D01*
X118561703Y-88651772D01*
X118625853Y-88496900D01*
X118718985Y-88357519D01*
X118837519Y-88238985D01*
X118976900Y-88145853D01*
X119131772Y-88081703D01*
X119296184Y-88049000D01*
X119463816Y-88049000D01*
X119628228Y-88081703D01*
G37*
G36*
X122168228Y-88081703D02*
G01*
X122323100Y-88145853D01*
X122462481Y-88238985D01*
X122581015Y-88357519D01*
X122674147Y-88496900D01*
X122738297Y-88651772D01*
X122771000Y-88816184D01*
X122771000Y-88983816D01*
X122738297Y-89148228D01*
X122674147Y-89303100D01*
X122581015Y-89442481D01*
X122462481Y-89561015D01*
X122323100Y-89654147D01*
X122168228Y-89718297D01*
X122003816Y-89751000D01*
X121836184Y-89751000D01*
X121671772Y-89718297D01*
X121516900Y-89654147D01*
X121377519Y-89561015D01*
X121258985Y-89442481D01*
X121165853Y-89303100D01*
X121101703Y-89148228D01*
X121069000Y-88983816D01*
X121069000Y-88816184D01*
X121101703Y-88651772D01*
X121165853Y-88496900D01*
X121258985Y-88357519D01*
X121377519Y-88238985D01*
X121516900Y-88145853D01*
X121671772Y-88081703D01*
X121836184Y-88049000D01*
X122003816Y-88049000D01*
X122168228Y-88081703D01*
G37*
G36*
X128518228Y-86811703D02*
G01*
X128673100Y-86875853D01*
X128812481Y-86968985D01*
X128931015Y-87087519D01*
X129024147Y-87226900D01*
X129088297Y-87381772D01*
X129121000Y-87546184D01*
X129121000Y-87713816D01*
X129088297Y-87878228D01*
X129024147Y-88033100D01*
X128931015Y-88172481D01*
X128812481Y-88291015D01*
X128673100Y-88384147D01*
X128518228Y-88448297D01*
X128353816Y-88481000D01*
X128186184Y-88481000D01*
X128021772Y-88448297D01*
X127866900Y-88384147D01*
X127727519Y-88291015D01*
X127608985Y-88172481D01*
X127515853Y-88033100D01*
X127451703Y-87878228D01*
X127419000Y-87713816D01*
X127419000Y-87546184D01*
X127451703Y-87381772D01*
X127515853Y-87226900D01*
X127608985Y-87087519D01*
X127727519Y-86968985D01*
X127866900Y-86875853D01*
X128021772Y-86811703D01*
X128186184Y-86779000D01*
X128353816Y-86779000D01*
X128518228Y-86811703D01*
G37*
G36*
X143758228Y-86811703D02*
G01*
X143913100Y-86875853D01*
X144052481Y-86968985D01*
X144171015Y-87087519D01*
X144264147Y-87226900D01*
X144328297Y-87381772D01*
X144361000Y-87546184D01*
X144361000Y-87713816D01*
X144328297Y-87878228D01*
X144264147Y-88033100D01*
X144171015Y-88172481D01*
X144052481Y-88291015D01*
X143913100Y-88384147D01*
X143758228Y-88448297D01*
X143593816Y-88481000D01*
X143426184Y-88481000D01*
X143261772Y-88448297D01*
X143106900Y-88384147D01*
X142967519Y-88291015D01*
X142848985Y-88172481D01*
X142755853Y-88033100D01*
X142691703Y-87878228D01*
X142659000Y-87713816D01*
X142659000Y-87546184D01*
X142691703Y-87381772D01*
X142755853Y-87226900D01*
X142848985Y-87087519D01*
X142967519Y-86968985D01*
X143106900Y-86875853D01*
X143261772Y-86811703D01*
X143426184Y-86779000D01*
X143593816Y-86779000D01*
X143758228Y-86811703D01*
G37*
G36*
X122168228Y-85541703D02*
G01*
X122323100Y-85605853D01*
X122462481Y-85698985D01*
X122581015Y-85817519D01*
X122674147Y-85956900D01*
X122738297Y-86111772D01*
X122771000Y-86276184D01*
X122771000Y-86443816D01*
X122738297Y-86608228D01*
X122674147Y-86763100D01*
X122581015Y-86902481D01*
X122462481Y-87021015D01*
X122323100Y-87114147D01*
X122168228Y-87178297D01*
X122003816Y-87211000D01*
X121836184Y-87211000D01*
X121671772Y-87178297D01*
X121516900Y-87114147D01*
X121377519Y-87021015D01*
X121258985Y-86902481D01*
X121165853Y-86763100D01*
X121101703Y-86608228D01*
X121069000Y-86443816D01*
X121069000Y-86276184D01*
X121101703Y-86111772D01*
X121165853Y-85956900D01*
X121258985Y-85817519D01*
X121377519Y-85698985D01*
X121516900Y-85605853D01*
X121671772Y-85541703D01*
X121836184Y-85509000D01*
X122003816Y-85509000D01*
X122168228Y-85541703D01*
G37*
G36*
X106928228Y-85541703D02*
G01*
X107083100Y-85605853D01*
X107222481Y-85698985D01*
X107341015Y-85817519D01*
X107434147Y-85956900D01*
X107498297Y-86111772D01*
X107531000Y-86276184D01*
X107531000Y-86443816D01*
X107498297Y-86608228D01*
X107434147Y-86763100D01*
X107341015Y-86902481D01*
X107222481Y-87021015D01*
X107083100Y-87114147D01*
X106928228Y-87178297D01*
X106763816Y-87211000D01*
X106596184Y-87211000D01*
X106431772Y-87178297D01*
X106276900Y-87114147D01*
X106137519Y-87021015D01*
X106018985Y-86902481D01*
X105925853Y-86763100D01*
X105861703Y-86608228D01*
X105829000Y-86443816D01*
X105829000Y-86276184D01*
X105861703Y-86111772D01*
X105925853Y-85956900D01*
X106018985Y-85817519D01*
X106137519Y-85698985D01*
X106276900Y-85605853D01*
X106431772Y-85541703D01*
X106596184Y-85509000D01*
X106763816Y-85509000D01*
X106928228Y-85541703D01*
G37*
G36*
X119628228Y-85541703D02*
G01*
X119783100Y-85605853D01*
X119922481Y-85698985D01*
X120041015Y-85817519D01*
X120134147Y-85956900D01*
X120198297Y-86111772D01*
X120231000Y-86276184D01*
X120231000Y-86443816D01*
X120198297Y-86608228D01*
X120134147Y-86763100D01*
X120041015Y-86902481D01*
X119922481Y-87021015D01*
X119783100Y-87114147D01*
X119628228Y-87178297D01*
X119463816Y-87211000D01*
X119296184Y-87211000D01*
X119131772Y-87178297D01*
X118976900Y-87114147D01*
X118837519Y-87021015D01*
X118718985Y-86902481D01*
X118625853Y-86763100D01*
X118561703Y-86608228D01*
X118529000Y-86443816D01*
X118529000Y-86276184D01*
X118561703Y-86111772D01*
X118625853Y-85956900D01*
X118718985Y-85817519D01*
X118837519Y-85698985D01*
X118976900Y-85605853D01*
X119131772Y-85541703D01*
X119296184Y-85509000D01*
X119463816Y-85509000D01*
X119628228Y-85541703D01*
G37*
G36*
X109468228Y-85541703D02*
G01*
X109623100Y-85605853D01*
X109762481Y-85698985D01*
X109881015Y-85817519D01*
X109974147Y-85956900D01*
X110038297Y-86111772D01*
X110071000Y-86276184D01*
X110071000Y-86443816D01*
X110038297Y-86608228D01*
X109974147Y-86763100D01*
X109881015Y-86902481D01*
X109762481Y-87021015D01*
X109623100Y-87114147D01*
X109468228Y-87178297D01*
X109303816Y-87211000D01*
X109136184Y-87211000D01*
X108971772Y-87178297D01*
X108816900Y-87114147D01*
X108677519Y-87021015D01*
X108558985Y-86902481D01*
X108465853Y-86763100D01*
X108401703Y-86608228D01*
X108369000Y-86443816D01*
X108369000Y-86276184D01*
X108401703Y-86111772D01*
X108465853Y-85956900D01*
X108558985Y-85817519D01*
X108677519Y-85698985D01*
X108816900Y-85605853D01*
X108971772Y-85541703D01*
X109136184Y-85509000D01*
X109303816Y-85509000D01*
X109468228Y-85541703D01*
G37*
G36*
X143758228Y-84271703D02*
G01*
X143913100Y-84335853D01*
X144052481Y-84428985D01*
X144171015Y-84547519D01*
X144264147Y-84686900D01*
X144328297Y-84841772D01*
X144361000Y-85006184D01*
X144361000Y-85173816D01*
X144328297Y-85338228D01*
X144264147Y-85493100D01*
X144171015Y-85632481D01*
X144052481Y-85751015D01*
X143913100Y-85844147D01*
X143758228Y-85908297D01*
X143593816Y-85941000D01*
X143426184Y-85941000D01*
X143261772Y-85908297D01*
X143106900Y-85844147D01*
X142967519Y-85751015D01*
X142848985Y-85632481D01*
X142755853Y-85493100D01*
X142691703Y-85338228D01*
X142659000Y-85173816D01*
X142659000Y-85006184D01*
X142691703Y-84841772D01*
X142755853Y-84686900D01*
X142848985Y-84547519D01*
X142967519Y-84428985D01*
X143106900Y-84335853D01*
X143261772Y-84271703D01*
X143426184Y-84239000D01*
X143593816Y-84239000D01*
X143758228Y-84271703D01*
G37*
G36*
X128518228Y-84271703D02*
G01*
X128673100Y-84335853D01*
X128812481Y-84428985D01*
X128931015Y-84547519D01*
X129024147Y-84686900D01*
X129088297Y-84841772D01*
X129121000Y-85006184D01*
X129121000Y-85173816D01*
X129088297Y-85338228D01*
X129024147Y-85493100D01*
X128931015Y-85632481D01*
X128812481Y-85751015D01*
X128673100Y-85844147D01*
X128518228Y-85908297D01*
X128353816Y-85941000D01*
X128186184Y-85941000D01*
X128021772Y-85908297D01*
X127866900Y-85844147D01*
X127727519Y-85751015D01*
X127608985Y-85632481D01*
X127515853Y-85493100D01*
X127451703Y-85338228D01*
X127419000Y-85173816D01*
X127419000Y-85006184D01*
X127451703Y-84841772D01*
X127515853Y-84686900D01*
X127608985Y-84547519D01*
X127727519Y-84428985D01*
X127866900Y-84335853D01*
X128021772Y-84271703D01*
X128186184Y-84239000D01*
X128353816Y-84239000D01*
X128518228Y-84271703D01*
G37*
G36*
X119628228Y-83001703D02*
G01*
X119783100Y-83065853D01*
X119922481Y-83158985D01*
X120041015Y-83277519D01*
X120134147Y-83416900D01*
X120198297Y-83571772D01*
X120231000Y-83736184D01*
X120231000Y-83903816D01*
X120198297Y-84068228D01*
X120134147Y-84223100D01*
X120041015Y-84362481D01*
X119922481Y-84481015D01*
X119783100Y-84574147D01*
X119628228Y-84638297D01*
X119463816Y-84671000D01*
X119296184Y-84671000D01*
X119131772Y-84638297D01*
X118976900Y-84574147D01*
X118837519Y-84481015D01*
X118718985Y-84362481D01*
X118625853Y-84223100D01*
X118561703Y-84068228D01*
X118529000Y-83903816D01*
X118529000Y-83736184D01*
X118561703Y-83571772D01*
X118625853Y-83416900D01*
X118718985Y-83277519D01*
X118837519Y-83158985D01*
X118976900Y-83065853D01*
X119131772Y-83001703D01*
X119296184Y-82969000D01*
X119463816Y-82969000D01*
X119628228Y-83001703D01*
G37*
G36*
X122168228Y-83001703D02*
G01*
X122323100Y-83065853D01*
X122462481Y-83158985D01*
X122581015Y-83277519D01*
X122674147Y-83416900D01*
X122738297Y-83571772D01*
X122771000Y-83736184D01*
X122771000Y-83903816D01*
X122738297Y-84068228D01*
X122674147Y-84223100D01*
X122581015Y-84362481D01*
X122462481Y-84481015D01*
X122323100Y-84574147D01*
X122168228Y-84638297D01*
X122003816Y-84671000D01*
X121836184Y-84671000D01*
X121671772Y-84638297D01*
X121516900Y-84574147D01*
X121377519Y-84481015D01*
X121258985Y-84362481D01*
X121165853Y-84223100D01*
X121101703Y-84068228D01*
X121069000Y-83903816D01*
X121069000Y-83736184D01*
X121101703Y-83571772D01*
X121165853Y-83416900D01*
X121258985Y-83277519D01*
X121377519Y-83158985D01*
X121516900Y-83065853D01*
X121671772Y-83001703D01*
X121836184Y-82969000D01*
X122003816Y-82969000D01*
X122168228Y-83001703D01*
G37*
G36*
X106928228Y-83001703D02*
G01*
X107083100Y-83065853D01*
X107222481Y-83158985D01*
X107341015Y-83277519D01*
X107434147Y-83416900D01*
X107498297Y-83571772D01*
X107531000Y-83736184D01*
X107531000Y-83903816D01*
X107498297Y-84068228D01*
X107434147Y-84223100D01*
X107341015Y-84362481D01*
X107222481Y-84481015D01*
X107083100Y-84574147D01*
X106928228Y-84638297D01*
X106763816Y-84671000D01*
X106596184Y-84671000D01*
X106431772Y-84638297D01*
X106276900Y-84574147D01*
X106137519Y-84481015D01*
X106018985Y-84362481D01*
X105925853Y-84223100D01*
X105861703Y-84068228D01*
X105829000Y-83903816D01*
X105829000Y-83736184D01*
X105861703Y-83571772D01*
X105925853Y-83416900D01*
X106018985Y-83277519D01*
X106137519Y-83158985D01*
X106276900Y-83065853D01*
X106431772Y-83001703D01*
X106596184Y-82969000D01*
X106763816Y-82969000D01*
X106928228Y-83001703D01*
G37*
G36*
X109468228Y-83001703D02*
G01*
X109623100Y-83065853D01*
X109762481Y-83158985D01*
X109881015Y-83277519D01*
X109974147Y-83416900D01*
X110038297Y-83571772D01*
X110071000Y-83736184D01*
X110071000Y-83903816D01*
X110038297Y-84068228D01*
X109974147Y-84223100D01*
X109881015Y-84362481D01*
X109762481Y-84481015D01*
X109623100Y-84574147D01*
X109468228Y-84638297D01*
X109303816Y-84671000D01*
X109136184Y-84671000D01*
X108971772Y-84638297D01*
X108816900Y-84574147D01*
X108677519Y-84481015D01*
X108558985Y-84362481D01*
X108465853Y-84223100D01*
X108401703Y-84068228D01*
X108369000Y-83903816D01*
X108369000Y-83736184D01*
X108401703Y-83571772D01*
X108465853Y-83416900D01*
X108558985Y-83277519D01*
X108677519Y-83158985D01*
X108816900Y-83065853D01*
X108971772Y-83001703D01*
X109136184Y-82969000D01*
X109303816Y-82969000D01*
X109468228Y-83001703D01*
G37*
G36*
X128518228Y-81731703D02*
G01*
X128673100Y-81795853D01*
X128812481Y-81888985D01*
X128931015Y-82007519D01*
X129024147Y-82146900D01*
X129088297Y-82301772D01*
X129121000Y-82466184D01*
X129121000Y-82633816D01*
X129088297Y-82798228D01*
X129024147Y-82953100D01*
X128931015Y-83092481D01*
X128812481Y-83211015D01*
X128673100Y-83304147D01*
X128518228Y-83368297D01*
X128353816Y-83401000D01*
X128186184Y-83401000D01*
X128021772Y-83368297D01*
X127866900Y-83304147D01*
X127727519Y-83211015D01*
X127608985Y-83092481D01*
X127515853Y-82953100D01*
X127451703Y-82798228D01*
X127419000Y-82633816D01*
X127419000Y-82466184D01*
X127451703Y-82301772D01*
X127515853Y-82146900D01*
X127608985Y-82007519D01*
X127727519Y-81888985D01*
X127866900Y-81795853D01*
X128021772Y-81731703D01*
X128186184Y-81699000D01*
X128353816Y-81699000D01*
X128518228Y-81731703D01*
G37*
G36*
X143758228Y-81731703D02*
G01*
X143913100Y-81795853D01*
X144052481Y-81888985D01*
X144171015Y-82007519D01*
X144264147Y-82146900D01*
X144328297Y-82301772D01*
X144361000Y-82466184D01*
X144361000Y-82633816D01*
X144328297Y-82798228D01*
X144264147Y-82953100D01*
X144171015Y-83092481D01*
X144052481Y-83211015D01*
X143913100Y-83304147D01*
X143758228Y-83368297D01*
X143593816Y-83401000D01*
X143426184Y-83401000D01*
X143261772Y-83368297D01*
X143106900Y-83304147D01*
X142967519Y-83211015D01*
X142848985Y-83092481D01*
X142755853Y-82953100D01*
X142691703Y-82798228D01*
X142659000Y-82633816D01*
X142659000Y-82466184D01*
X142691703Y-82301772D01*
X142755853Y-82146900D01*
X142848985Y-82007519D01*
X142967519Y-81888985D01*
X143106900Y-81795853D01*
X143261772Y-81731703D01*
X143426184Y-81699000D01*
X143593816Y-81699000D01*
X143758228Y-81731703D01*
G37*
G36*
X106928228Y-80461703D02*
G01*
X107083100Y-80525853D01*
X107222481Y-80618985D01*
X107341015Y-80737519D01*
X107434147Y-80876900D01*
X107498297Y-81031772D01*
X107531000Y-81196184D01*
X107531000Y-81363816D01*
X107498297Y-81528228D01*
X107434147Y-81683100D01*
X107341015Y-81822481D01*
X107222481Y-81941015D01*
X107083100Y-82034147D01*
X106928228Y-82098297D01*
X106763816Y-82131000D01*
X106596184Y-82131000D01*
X106431772Y-82098297D01*
X106276900Y-82034147D01*
X106137519Y-81941015D01*
X106018985Y-81822481D01*
X105925853Y-81683100D01*
X105861703Y-81528228D01*
X105829000Y-81363816D01*
X105829000Y-81196184D01*
X105861703Y-81031772D01*
X105925853Y-80876900D01*
X106018985Y-80737519D01*
X106137519Y-80618985D01*
X106276900Y-80525853D01*
X106431772Y-80461703D01*
X106596184Y-80429000D01*
X106763816Y-80429000D01*
X106928228Y-80461703D01*
G37*
G36*
X109468228Y-80461703D02*
G01*
X109623100Y-80525853D01*
X109762481Y-80618985D01*
X109881015Y-80737519D01*
X109974147Y-80876900D01*
X110038297Y-81031772D01*
X110071000Y-81196184D01*
X110071000Y-81363816D01*
X110038297Y-81528228D01*
X109974147Y-81683100D01*
X109881015Y-81822481D01*
X109762481Y-81941015D01*
X109623100Y-82034147D01*
X109468228Y-82098297D01*
X109303816Y-82131000D01*
X109136184Y-82131000D01*
X108971772Y-82098297D01*
X108816900Y-82034147D01*
X108677519Y-81941015D01*
X108558985Y-81822481D01*
X108465853Y-81683100D01*
X108401703Y-81528228D01*
X108369000Y-81363816D01*
X108369000Y-81196184D01*
X108401703Y-81031772D01*
X108465853Y-80876900D01*
X108558985Y-80737519D01*
X108677519Y-80618985D01*
X108816900Y-80525853D01*
X108971772Y-80461703D01*
X109136184Y-80429000D01*
X109303816Y-80429000D01*
X109468228Y-80461703D01*
G37*
G36*
X119628228Y-80461703D02*
G01*
X119783100Y-80525853D01*
X119922481Y-80618985D01*
X120041015Y-80737519D01*
X120134147Y-80876900D01*
X120198297Y-81031772D01*
X120231000Y-81196184D01*
X120231000Y-81363816D01*
X120198297Y-81528228D01*
X120134147Y-81683100D01*
X120041015Y-81822481D01*
X119922481Y-81941015D01*
X119783100Y-82034147D01*
X119628228Y-82098297D01*
X119463816Y-82131000D01*
X119296184Y-82131000D01*
X119131772Y-82098297D01*
X118976900Y-82034147D01*
X118837519Y-81941015D01*
X118718985Y-81822481D01*
X118625853Y-81683100D01*
X118561703Y-81528228D01*
X118529000Y-81363816D01*
X118529000Y-81196184D01*
X118561703Y-81031772D01*
X118625853Y-80876900D01*
X118718985Y-80737519D01*
X118837519Y-80618985D01*
X118976900Y-80525853D01*
X119131772Y-80461703D01*
X119296184Y-80429000D01*
X119463816Y-80429000D01*
X119628228Y-80461703D01*
G37*
G36*
X122168228Y-80461703D02*
G01*
X122323100Y-80525853D01*
X122462481Y-80618985D01*
X122581015Y-80737519D01*
X122674147Y-80876900D01*
X122738297Y-81031772D01*
X122771000Y-81196184D01*
X122771000Y-81363816D01*
X122738297Y-81528228D01*
X122674147Y-81683100D01*
X122581015Y-81822481D01*
X122462481Y-81941015D01*
X122323100Y-82034147D01*
X122168228Y-82098297D01*
X122003816Y-82131000D01*
X121836184Y-82131000D01*
X121671772Y-82098297D01*
X121516900Y-82034147D01*
X121377519Y-81941015D01*
X121258985Y-81822481D01*
X121165853Y-81683100D01*
X121101703Y-81528228D01*
X121069000Y-81363816D01*
X121069000Y-81196184D01*
X121101703Y-81031772D01*
X121165853Y-80876900D01*
X121258985Y-80737519D01*
X121377519Y-80618985D01*
X121516900Y-80525853D01*
X121671772Y-80461703D01*
X121836184Y-80429000D01*
X122003816Y-80429000D01*
X122168228Y-80461703D01*
G37*
G36*
X143758228Y-79191703D02*
G01*
X143913100Y-79255853D01*
X144052481Y-79348985D01*
X144171015Y-79467519D01*
X144264147Y-79606900D01*
X144328297Y-79761772D01*
X144361000Y-79926184D01*
X144361000Y-80093816D01*
X144328297Y-80258228D01*
X144264147Y-80413100D01*
X144171015Y-80552481D01*
X144052481Y-80671015D01*
X143913100Y-80764147D01*
X143758228Y-80828297D01*
X143593816Y-80861000D01*
X143426184Y-80861000D01*
X143261772Y-80828297D01*
X143106900Y-80764147D01*
X142967519Y-80671015D01*
X142848985Y-80552481D01*
X142755853Y-80413100D01*
X142691703Y-80258228D01*
X142659000Y-80093816D01*
X142659000Y-79926184D01*
X142691703Y-79761772D01*
X142755853Y-79606900D01*
X142848985Y-79467519D01*
X142967519Y-79348985D01*
X143106900Y-79255853D01*
X143261772Y-79191703D01*
X143426184Y-79159000D01*
X143593816Y-79159000D01*
X143758228Y-79191703D01*
G37*
G36*
X128518228Y-79191703D02*
G01*
X128673100Y-79255853D01*
X128812481Y-79348985D01*
X128931015Y-79467519D01*
X129024147Y-79606900D01*
X129088297Y-79761772D01*
X129121000Y-79926184D01*
X129121000Y-80093816D01*
X129088297Y-80258228D01*
X129024147Y-80413100D01*
X128931015Y-80552481D01*
X128812481Y-80671015D01*
X128673100Y-80764147D01*
X128518228Y-80828297D01*
X128353816Y-80861000D01*
X128186184Y-80861000D01*
X128021772Y-80828297D01*
X127866900Y-80764147D01*
X127727519Y-80671015D01*
X127608985Y-80552481D01*
X127515853Y-80413100D01*
X127451703Y-80258228D01*
X127419000Y-80093816D01*
X127419000Y-79926184D01*
X127451703Y-79761772D01*
X127515853Y-79606900D01*
X127608985Y-79467519D01*
X127727519Y-79348985D01*
X127866900Y-79255853D01*
X128021772Y-79191703D01*
X128186184Y-79159000D01*
X128353816Y-79159000D01*
X128518228Y-79191703D01*
G37*
G36*
X122168228Y-77921703D02*
G01*
X122323100Y-77985853D01*
X122462481Y-78078985D01*
X122581015Y-78197519D01*
X122674147Y-78336900D01*
X122738297Y-78491772D01*
X122771000Y-78656184D01*
X122771000Y-78823816D01*
X122738297Y-78988228D01*
X122674147Y-79143100D01*
X122581015Y-79282481D01*
X122462481Y-79401015D01*
X122323100Y-79494147D01*
X122168228Y-79558297D01*
X122003816Y-79591000D01*
X121836184Y-79591000D01*
X121671772Y-79558297D01*
X121516900Y-79494147D01*
X121377519Y-79401015D01*
X121258985Y-79282481D01*
X121165853Y-79143100D01*
X121101703Y-78988228D01*
X121069000Y-78823816D01*
X121069000Y-78656184D01*
X121101703Y-78491772D01*
X121165853Y-78336900D01*
X121258985Y-78197519D01*
X121377519Y-78078985D01*
X121516900Y-77985853D01*
X121671772Y-77921703D01*
X121836184Y-77889000D01*
X122003816Y-77889000D01*
X122168228Y-77921703D01*
G37*
G36*
X109468228Y-77921703D02*
G01*
X109623100Y-77985853D01*
X109762481Y-78078985D01*
X109881015Y-78197519D01*
X109974147Y-78336900D01*
X110038297Y-78491772D01*
X110071000Y-78656184D01*
X110071000Y-78823816D01*
X110038297Y-78988228D01*
X109974147Y-79143100D01*
X109881015Y-79282481D01*
X109762481Y-79401015D01*
X109623100Y-79494147D01*
X109468228Y-79558297D01*
X109303816Y-79591000D01*
X109136184Y-79591000D01*
X108971772Y-79558297D01*
X108816900Y-79494147D01*
X108677519Y-79401015D01*
X108558985Y-79282481D01*
X108465853Y-79143100D01*
X108401703Y-78988228D01*
X108369000Y-78823816D01*
X108369000Y-78656184D01*
X108401703Y-78491772D01*
X108465853Y-78336900D01*
X108558985Y-78197519D01*
X108677519Y-78078985D01*
X108816900Y-77985853D01*
X108971772Y-77921703D01*
X109136184Y-77889000D01*
X109303816Y-77889000D01*
X109468228Y-77921703D01*
G37*
G36*
X119628228Y-77921703D02*
G01*
X119783100Y-77985853D01*
X119922481Y-78078985D01*
X120041015Y-78197519D01*
X120134147Y-78336900D01*
X120198297Y-78491772D01*
X120231000Y-78656184D01*
X120231000Y-78823816D01*
X120198297Y-78988228D01*
X120134147Y-79143100D01*
X120041015Y-79282481D01*
X119922481Y-79401015D01*
X119783100Y-79494147D01*
X119628228Y-79558297D01*
X119463816Y-79591000D01*
X119296184Y-79591000D01*
X119131772Y-79558297D01*
X118976900Y-79494147D01*
X118837519Y-79401015D01*
X118718985Y-79282481D01*
X118625853Y-79143100D01*
X118561703Y-78988228D01*
X118529000Y-78823816D01*
X118529000Y-78656184D01*
X118561703Y-78491772D01*
X118625853Y-78336900D01*
X118718985Y-78197519D01*
X118837519Y-78078985D01*
X118976900Y-77985853D01*
X119131772Y-77921703D01*
X119296184Y-77889000D01*
X119463816Y-77889000D01*
X119628228Y-77921703D01*
G37*
G36*
X106928228Y-77921703D02*
G01*
X107083100Y-77985853D01*
X107222481Y-78078985D01*
X107341015Y-78197519D01*
X107434147Y-78336900D01*
X107498297Y-78491772D01*
X107531000Y-78656184D01*
X107531000Y-78823816D01*
X107498297Y-78988228D01*
X107434147Y-79143100D01*
X107341015Y-79282481D01*
X107222481Y-79401015D01*
X107083100Y-79494147D01*
X106928228Y-79558297D01*
X106763816Y-79591000D01*
X106596184Y-79591000D01*
X106431772Y-79558297D01*
X106276900Y-79494147D01*
X106137519Y-79401015D01*
X106018985Y-79282481D01*
X105925853Y-79143100D01*
X105861703Y-78988228D01*
X105829000Y-78823816D01*
X105829000Y-78656184D01*
X105861703Y-78491772D01*
X105925853Y-78336900D01*
X106018985Y-78197519D01*
X106137519Y-78078985D01*
X106276900Y-77985853D01*
X106431772Y-77921703D01*
X106596184Y-77889000D01*
X106763816Y-77889000D01*
X106928228Y-77921703D01*
G37*
G36*
X128518228Y-76651703D02*
G01*
X128673100Y-76715853D01*
X128812481Y-76808985D01*
X128931015Y-76927519D01*
X129024147Y-77066900D01*
X129088297Y-77221772D01*
X129121000Y-77386184D01*
X129121000Y-77553816D01*
X129088297Y-77718228D01*
X129024147Y-77873100D01*
X128931015Y-78012481D01*
X128812481Y-78131015D01*
X128673100Y-78224147D01*
X128518228Y-78288297D01*
X128353816Y-78321000D01*
X128186184Y-78321000D01*
X128021772Y-78288297D01*
X127866900Y-78224147D01*
X127727519Y-78131015D01*
X127608985Y-78012481D01*
X127515853Y-77873100D01*
X127451703Y-77718228D01*
X127419000Y-77553816D01*
X127419000Y-77386184D01*
X127451703Y-77221772D01*
X127515853Y-77066900D01*
X127608985Y-76927519D01*
X127727519Y-76808985D01*
X127866900Y-76715853D01*
X128021772Y-76651703D01*
X128186184Y-76619000D01*
X128353816Y-76619000D01*
X128518228Y-76651703D01*
G37*
G36*
X143758228Y-76651703D02*
G01*
X143913100Y-76715853D01*
X144052481Y-76808985D01*
X144171015Y-76927519D01*
X144264147Y-77066900D01*
X144328297Y-77221772D01*
X144361000Y-77386184D01*
X144361000Y-77553816D01*
X144328297Y-77718228D01*
X144264147Y-77873100D01*
X144171015Y-78012481D01*
X144052481Y-78131015D01*
X143913100Y-78224147D01*
X143758228Y-78288297D01*
X143593816Y-78321000D01*
X143426184Y-78321000D01*
X143261772Y-78288297D01*
X143106900Y-78224147D01*
X142967519Y-78131015D01*
X142848985Y-78012481D01*
X142755853Y-77873100D01*
X142691703Y-77718228D01*
X142659000Y-77553816D01*
X142659000Y-77386184D01*
X142691703Y-77221772D01*
X142755853Y-77066900D01*
X142848985Y-76927519D01*
X142967519Y-76808985D01*
X143106900Y-76715853D01*
X143261772Y-76651703D01*
X143426184Y-76619000D01*
X143593816Y-76619000D01*
X143758228Y-76651703D01*
G37*
G36*
X119628228Y-75381703D02*
G01*
X119783100Y-75445853D01*
X119922481Y-75538985D01*
X120041015Y-75657519D01*
X120134147Y-75796900D01*
X120198297Y-75951772D01*
X120231000Y-76116184D01*
X120231000Y-76283816D01*
X120198297Y-76448228D01*
X120134147Y-76603100D01*
X120041015Y-76742481D01*
X119922481Y-76861015D01*
X119783100Y-76954147D01*
X119628228Y-77018297D01*
X119463816Y-77051000D01*
X119296184Y-77051000D01*
X119131772Y-77018297D01*
X118976900Y-76954147D01*
X118837519Y-76861015D01*
X118718985Y-76742481D01*
X118625853Y-76603100D01*
X118561703Y-76448228D01*
X118529000Y-76283816D01*
X118529000Y-76116184D01*
X118561703Y-75951772D01*
X118625853Y-75796900D01*
X118718985Y-75657519D01*
X118837519Y-75538985D01*
X118976900Y-75445853D01*
X119131772Y-75381703D01*
X119296184Y-75349000D01*
X119463816Y-75349000D01*
X119628228Y-75381703D01*
G37*
G36*
X106928228Y-75381703D02*
G01*
X107083100Y-75445853D01*
X107222481Y-75538985D01*
X107341015Y-75657519D01*
X107434147Y-75796900D01*
X107498297Y-75951772D01*
X107531000Y-76116184D01*
X107531000Y-76283816D01*
X107498297Y-76448228D01*
X107434147Y-76603100D01*
X107341015Y-76742481D01*
X107222481Y-76861015D01*
X107083100Y-76954147D01*
X106928228Y-77018297D01*
X106763816Y-77051000D01*
X106596184Y-77051000D01*
X106431772Y-77018297D01*
X106276900Y-76954147D01*
X106137519Y-76861015D01*
X106018985Y-76742481D01*
X105925853Y-76603100D01*
X105861703Y-76448228D01*
X105829000Y-76283816D01*
X105829000Y-76116184D01*
X105861703Y-75951772D01*
X105925853Y-75796900D01*
X106018985Y-75657519D01*
X106137519Y-75538985D01*
X106276900Y-75445853D01*
X106431772Y-75381703D01*
X106596184Y-75349000D01*
X106763816Y-75349000D01*
X106928228Y-75381703D01*
G37*
G36*
X109468228Y-75381703D02*
G01*
X109623100Y-75445853D01*
X109762481Y-75538985D01*
X109881015Y-75657519D01*
X109974147Y-75796900D01*
X110038297Y-75951772D01*
X110071000Y-76116184D01*
X110071000Y-76283816D01*
X110038297Y-76448228D01*
X109974147Y-76603100D01*
X109881015Y-76742481D01*
X109762481Y-76861015D01*
X109623100Y-76954147D01*
X109468228Y-77018297D01*
X109303816Y-77051000D01*
X109136184Y-77051000D01*
X108971772Y-77018297D01*
X108816900Y-76954147D01*
X108677519Y-76861015D01*
X108558985Y-76742481D01*
X108465853Y-76603100D01*
X108401703Y-76448228D01*
X108369000Y-76283816D01*
X108369000Y-76116184D01*
X108401703Y-75951772D01*
X108465853Y-75796900D01*
X108558985Y-75657519D01*
X108677519Y-75538985D01*
X108816900Y-75445853D01*
X108971772Y-75381703D01*
X109136184Y-75349000D01*
X109303816Y-75349000D01*
X109468228Y-75381703D01*
G37*
G36*
X122168228Y-75381703D02*
G01*
X122323100Y-75445853D01*
X122462481Y-75538985D01*
X122581015Y-75657519D01*
X122674147Y-75796900D01*
X122738297Y-75951772D01*
X122771000Y-76116184D01*
X122771000Y-76283816D01*
X122738297Y-76448228D01*
X122674147Y-76603100D01*
X122581015Y-76742481D01*
X122462481Y-76861015D01*
X122323100Y-76954147D01*
X122168228Y-77018297D01*
X122003816Y-77051000D01*
X121836184Y-77051000D01*
X121671772Y-77018297D01*
X121516900Y-76954147D01*
X121377519Y-76861015D01*
X121258985Y-76742481D01*
X121165853Y-76603100D01*
X121101703Y-76448228D01*
X121069000Y-76283816D01*
X121069000Y-76116184D01*
X121101703Y-75951772D01*
X121165853Y-75796900D01*
X121258985Y-75657519D01*
X121377519Y-75538985D01*
X121516900Y-75445853D01*
X121671772Y-75381703D01*
X121836184Y-75349000D01*
X122003816Y-75349000D01*
X122168228Y-75381703D01*
G37*
G36*
X143758228Y-74111703D02*
G01*
X143913100Y-74175853D01*
X144052481Y-74268985D01*
X144171015Y-74387519D01*
X144264147Y-74526900D01*
X144328297Y-74681772D01*
X144361000Y-74846184D01*
X144361000Y-75013816D01*
X144328297Y-75178228D01*
X144264147Y-75333100D01*
X144171015Y-75472481D01*
X144052481Y-75591015D01*
X143913100Y-75684147D01*
X143758228Y-75748297D01*
X143593816Y-75781000D01*
X143426184Y-75781000D01*
X143261772Y-75748297D01*
X143106900Y-75684147D01*
X142967519Y-75591015D01*
X142848985Y-75472481D01*
X142755853Y-75333100D01*
X142691703Y-75178228D01*
X142659000Y-75013816D01*
X142659000Y-74846184D01*
X142691703Y-74681772D01*
X142755853Y-74526900D01*
X142848985Y-74387519D01*
X142967519Y-74268985D01*
X143106900Y-74175853D01*
X143261772Y-74111703D01*
X143426184Y-74079000D01*
X143593816Y-74079000D01*
X143758228Y-74111703D01*
G37*
G36*
X128518228Y-74111703D02*
G01*
X128673100Y-74175853D01*
X128812481Y-74268985D01*
X128931015Y-74387519D01*
X129024147Y-74526900D01*
X129088297Y-74681772D01*
X129121000Y-74846184D01*
X129121000Y-75013816D01*
X129088297Y-75178228D01*
X129024147Y-75333100D01*
X128931015Y-75472481D01*
X128812481Y-75591015D01*
X128673100Y-75684147D01*
X128518228Y-75748297D01*
X128353816Y-75781000D01*
X128186184Y-75781000D01*
X128021772Y-75748297D01*
X127866900Y-75684147D01*
X127727519Y-75591015D01*
X127608985Y-75472481D01*
X127515853Y-75333100D01*
X127451703Y-75178228D01*
X127419000Y-75013816D01*
X127419000Y-74846184D01*
X127451703Y-74681772D01*
X127515853Y-74526900D01*
X127608985Y-74387519D01*
X127727519Y-74268985D01*
X127866900Y-74175853D01*
X128021772Y-74111703D01*
X128186184Y-74079000D01*
X128353816Y-74079000D01*
X128518228Y-74111703D01*
G37*
G36*
X122168228Y-72841703D02*
G01*
X122323100Y-72905853D01*
X122462481Y-72998985D01*
X122581015Y-73117519D01*
X122674147Y-73256900D01*
X122738297Y-73411772D01*
X122771000Y-73576184D01*
X122771000Y-73743816D01*
X122738297Y-73908228D01*
X122674147Y-74063100D01*
X122581015Y-74202481D01*
X122462481Y-74321015D01*
X122323100Y-74414147D01*
X122168228Y-74478297D01*
X122003816Y-74511000D01*
X121836184Y-74511000D01*
X121671772Y-74478297D01*
X121516900Y-74414147D01*
X121377519Y-74321015D01*
X121258985Y-74202481D01*
X121165853Y-74063100D01*
X121101703Y-73908228D01*
X121069000Y-73743816D01*
X121069000Y-73576184D01*
X121101703Y-73411772D01*
X121165853Y-73256900D01*
X121258985Y-73117519D01*
X121377519Y-72998985D01*
X121516900Y-72905853D01*
X121671772Y-72841703D01*
X121836184Y-72809000D01*
X122003816Y-72809000D01*
X122168228Y-72841703D01*
G37*
G36*
X119628228Y-72841703D02*
G01*
X119783100Y-72905853D01*
X119922481Y-72998985D01*
X120041015Y-73117519D01*
X120134147Y-73256900D01*
X120198297Y-73411772D01*
X120231000Y-73576184D01*
X120231000Y-73743816D01*
X120198297Y-73908228D01*
X120134147Y-74063100D01*
X120041015Y-74202481D01*
X119922481Y-74321015D01*
X119783100Y-74414147D01*
X119628228Y-74478297D01*
X119463816Y-74511000D01*
X119296184Y-74511000D01*
X119131772Y-74478297D01*
X118976900Y-74414147D01*
X118837519Y-74321015D01*
X118718985Y-74202481D01*
X118625853Y-74063100D01*
X118561703Y-73908228D01*
X118529000Y-73743816D01*
X118529000Y-73576184D01*
X118561703Y-73411772D01*
X118625853Y-73256900D01*
X118718985Y-73117519D01*
X118837519Y-72998985D01*
X118976900Y-72905853D01*
X119131772Y-72841703D01*
X119296184Y-72809000D01*
X119463816Y-72809000D01*
X119628228Y-72841703D01*
G37*
G36*
X109468228Y-72841703D02*
G01*
X109623100Y-72905853D01*
X109762481Y-72998985D01*
X109881015Y-73117519D01*
X109974147Y-73256900D01*
X110038297Y-73411772D01*
X110071000Y-73576184D01*
X110071000Y-73743816D01*
X110038297Y-73908228D01*
X109974147Y-74063100D01*
X109881015Y-74202481D01*
X109762481Y-74321015D01*
X109623100Y-74414147D01*
X109468228Y-74478297D01*
X109303816Y-74511000D01*
X109136184Y-74511000D01*
X108971772Y-74478297D01*
X108816900Y-74414147D01*
X108677519Y-74321015D01*
X108558985Y-74202481D01*
X108465853Y-74063100D01*
X108401703Y-73908228D01*
X108369000Y-73743816D01*
X108369000Y-73576184D01*
X108401703Y-73411772D01*
X108465853Y-73256900D01*
X108558985Y-73117519D01*
X108677519Y-72998985D01*
X108816900Y-72905853D01*
X108971772Y-72841703D01*
X109136184Y-72809000D01*
X109303816Y-72809000D01*
X109468228Y-72841703D01*
G37*
G36*
X106928228Y-72841703D02*
G01*
X107083100Y-72905853D01*
X107222481Y-72998985D01*
X107341015Y-73117519D01*
X107434147Y-73256900D01*
X107498297Y-73411772D01*
X107531000Y-73576184D01*
X107531000Y-73743816D01*
X107498297Y-73908228D01*
X107434147Y-74063100D01*
X107341015Y-74202481D01*
X107222481Y-74321015D01*
X107083100Y-74414147D01*
X106928228Y-74478297D01*
X106763816Y-74511000D01*
X106596184Y-74511000D01*
X106431772Y-74478297D01*
X106276900Y-74414147D01*
X106137519Y-74321015D01*
X106018985Y-74202481D01*
X105925853Y-74063100D01*
X105861703Y-73908228D01*
X105829000Y-73743816D01*
X105829000Y-73576184D01*
X105861703Y-73411772D01*
X105925853Y-73256900D01*
X106018985Y-73117519D01*
X106137519Y-72998985D01*
X106276900Y-72905853D01*
X106431772Y-72841703D01*
X106596184Y-72809000D01*
X106763816Y-72809000D01*
X106928228Y-72841703D01*
G37*
G36*
X128518228Y-71571703D02*
G01*
X128673100Y-71635853D01*
X128812481Y-71728985D01*
X128931015Y-71847519D01*
X129024147Y-71986900D01*
X129088297Y-72141772D01*
X129121000Y-72306184D01*
X129121000Y-72473816D01*
X129088297Y-72638228D01*
X129024147Y-72793100D01*
X128931015Y-72932481D01*
X128812481Y-73051015D01*
X128673100Y-73144147D01*
X128518228Y-73208297D01*
X128353816Y-73241000D01*
X128186184Y-73241000D01*
X128021772Y-73208297D01*
X127866900Y-73144147D01*
X127727519Y-73051015D01*
X127608985Y-72932481D01*
X127515853Y-72793100D01*
X127451703Y-72638228D01*
X127419000Y-72473816D01*
X127419000Y-72306184D01*
X127451703Y-72141772D01*
X127515853Y-71986900D01*
X127608985Y-71847519D01*
X127727519Y-71728985D01*
X127866900Y-71635853D01*
X128021772Y-71571703D01*
X128186184Y-71539000D01*
X128353816Y-71539000D01*
X128518228Y-71571703D01*
G37*
G36*
X143758228Y-71571703D02*
G01*
X143913100Y-71635853D01*
X144052481Y-71728985D01*
X144171015Y-71847519D01*
X144264147Y-71986900D01*
X144328297Y-72141772D01*
X144361000Y-72306184D01*
X144361000Y-72473816D01*
X144328297Y-72638228D01*
X144264147Y-72793100D01*
X144171015Y-72932481D01*
X144052481Y-73051015D01*
X143913100Y-73144147D01*
X143758228Y-73208297D01*
X143593816Y-73241000D01*
X143426184Y-73241000D01*
X143261772Y-73208297D01*
X143106900Y-73144147D01*
X142967519Y-73051015D01*
X142848985Y-72932481D01*
X142755853Y-72793100D01*
X142691703Y-72638228D01*
X142659000Y-72473816D01*
X142659000Y-72306184D01*
X142691703Y-72141772D01*
X142755853Y-71986900D01*
X142848985Y-71847519D01*
X142967519Y-71728985D01*
X143106900Y-71635853D01*
X143261772Y-71571703D01*
X143426184Y-71539000D01*
X143593816Y-71539000D01*
X143758228Y-71571703D01*
G37*
G36*
X107531000Y-71971000D02*
G01*
X105829000Y-71971000D01*
X105829000Y-70269000D01*
X107531000Y-70269000D01*
X107531000Y-71971000D01*
G37*
G36*
X110071000Y-71971000D02*
G01*
X108369000Y-71971000D01*
X108369000Y-70269000D01*
X110071000Y-70269000D01*
X110071000Y-71971000D01*
G37*
G36*
X120231000Y-71971000D02*
G01*
X118529000Y-71971000D01*
X118529000Y-70269000D01*
X120231000Y-70269000D01*
X120231000Y-71971000D01*
G37*
G36*
X122168228Y-70301703D02*
G01*
X122323100Y-70365853D01*
X122462481Y-70458985D01*
X122581015Y-70577519D01*
X122674147Y-70716900D01*
X122738297Y-70871772D01*
X122771000Y-71036184D01*
X122771000Y-71203816D01*
X122738297Y-71368228D01*
X122674147Y-71523100D01*
X122581015Y-71662481D01*
X122462481Y-71781015D01*
X122323100Y-71874147D01*
X122168228Y-71938297D01*
X122003816Y-71971000D01*
X121836184Y-71971000D01*
X121671772Y-71938297D01*
X121516900Y-71874147D01*
X121377519Y-71781015D01*
X121258985Y-71662481D01*
X121165853Y-71523100D01*
X121101703Y-71368228D01*
X121069000Y-71203816D01*
X121069000Y-71036184D01*
X121101703Y-70871772D01*
X121165853Y-70716900D01*
X121258985Y-70577519D01*
X121377519Y-70458985D01*
X121516900Y-70365853D01*
X121671772Y-70301703D01*
X121836184Y-70269000D01*
X122003816Y-70269000D01*
X122168228Y-70301703D01*
G37*
G36*
X128518228Y-69031703D02*
G01*
X128673100Y-69095853D01*
X128812481Y-69188985D01*
X128931015Y-69307519D01*
X129024147Y-69446900D01*
X129088297Y-69601772D01*
X129121000Y-69766184D01*
X129121000Y-69933816D01*
X129088297Y-70098228D01*
X129024147Y-70253100D01*
X128931015Y-70392481D01*
X128812481Y-70511015D01*
X128673100Y-70604147D01*
X128518228Y-70668297D01*
X128353816Y-70701000D01*
X128186184Y-70701000D01*
X128021772Y-70668297D01*
X127866900Y-70604147D01*
X127727519Y-70511015D01*
X127608985Y-70392481D01*
X127515853Y-70253100D01*
X127451703Y-70098228D01*
X127419000Y-69933816D01*
X127419000Y-69766184D01*
X127451703Y-69601772D01*
X127515853Y-69446900D01*
X127608985Y-69307519D01*
X127727519Y-69188985D01*
X127866900Y-69095853D01*
X128021772Y-69031703D01*
X128186184Y-68999000D01*
X128353816Y-68999000D01*
X128518228Y-69031703D01*
G37*
G36*
X143758228Y-69031703D02*
G01*
X143913100Y-69095853D01*
X144052481Y-69188985D01*
X144171015Y-69307519D01*
X144264147Y-69446900D01*
X144328297Y-69601772D01*
X144361000Y-69766184D01*
X144361000Y-69933816D01*
X144328297Y-70098228D01*
X144264147Y-70253100D01*
X144171015Y-70392481D01*
X144052481Y-70511015D01*
X143913100Y-70604147D01*
X143758228Y-70668297D01*
X143593816Y-70701000D01*
X143426184Y-70701000D01*
X143261772Y-70668297D01*
X143106900Y-70604147D01*
X142967519Y-70511015D01*
X142848985Y-70392481D01*
X142755853Y-70253100D01*
X142691703Y-70098228D01*
X142659000Y-69933816D01*
X142659000Y-69766184D01*
X142691703Y-69601772D01*
X142755853Y-69446900D01*
X142848985Y-69307519D01*
X142967519Y-69188985D01*
X143106900Y-69095853D01*
X143261772Y-69031703D01*
X143426184Y-68999000D01*
X143593816Y-68999000D01*
X143758228Y-69031703D01*
G37*
G36*
X128518228Y-66491703D02*
G01*
X128673100Y-66555853D01*
X128812481Y-66648985D01*
X128931015Y-66767519D01*
X129024147Y-66906900D01*
X129088297Y-67061772D01*
X129121000Y-67226184D01*
X129121000Y-67393816D01*
X129088297Y-67558228D01*
X129024147Y-67713100D01*
X128931015Y-67852481D01*
X128812481Y-67971015D01*
X128673100Y-68064147D01*
X128518228Y-68128297D01*
X128353816Y-68161000D01*
X128186184Y-68161000D01*
X128021772Y-68128297D01*
X127866900Y-68064147D01*
X127727519Y-67971015D01*
X127608985Y-67852481D01*
X127515853Y-67713100D01*
X127451703Y-67558228D01*
X127419000Y-67393816D01*
X127419000Y-67226184D01*
X127451703Y-67061772D01*
X127515853Y-66906900D01*
X127608985Y-66767519D01*
X127727519Y-66648985D01*
X127866900Y-66555853D01*
X128021772Y-66491703D01*
X128186184Y-66459000D01*
X128353816Y-66459000D01*
X128518228Y-66491703D01*
G37*
G36*
X143758228Y-66491703D02*
G01*
X143913100Y-66555853D01*
X144052481Y-66648985D01*
X144171015Y-66767519D01*
X144264147Y-66906900D01*
X144328297Y-67061772D01*
X144361000Y-67226184D01*
X144361000Y-67393816D01*
X144328297Y-67558228D01*
X144264147Y-67713100D01*
X144171015Y-67852481D01*
X144052481Y-67971015D01*
X143913100Y-68064147D01*
X143758228Y-68128297D01*
X143593816Y-68161000D01*
X143426184Y-68161000D01*
X143261772Y-68128297D01*
X143106900Y-68064147D01*
X142967519Y-67971015D01*
X142848985Y-67852481D01*
X142755853Y-67713100D01*
X142691703Y-67558228D01*
X142659000Y-67393816D01*
X142659000Y-67226184D01*
X142691703Y-67061772D01*
X142755853Y-66906900D01*
X142848985Y-66767519D01*
X142967519Y-66648985D01*
X143106900Y-66555853D01*
X143261772Y-66491703D01*
X143426184Y-66459000D01*
X143593816Y-66459000D01*
X143758228Y-66491703D01*
G37*
G36*
X113931000Y-65671000D02*
G01*
X112129000Y-65671000D01*
X112129000Y-63869000D01*
X113931000Y-63869000D01*
X113931000Y-65671000D01*
G37*
G36*
X115683512Y-63873927D02*
G01*
X115832812Y-63903624D01*
X115996784Y-63971544D01*
X116144354Y-64070147D01*
X116269853Y-64195646D01*
X116368456Y-64343216D01*
X116436376Y-64507188D01*
X116471000Y-64681259D01*
X116471000Y-64858741D01*
X116436376Y-65032812D01*
X116368456Y-65196784D01*
X116269853Y-65344354D01*
X116144354Y-65469853D01*
X115996784Y-65568456D01*
X115832812Y-65636376D01*
X115683512Y-65666073D01*
X115658742Y-65671000D01*
X115481258Y-65671000D01*
X115456488Y-65666073D01*
X115307188Y-65636376D01*
X115143216Y-65568456D01*
X114995646Y-65469853D01*
X114870147Y-65344354D01*
X114771544Y-65196784D01*
X114703624Y-65032812D01*
X114669000Y-64858741D01*
X114669000Y-64681259D01*
X114703624Y-64507188D01*
X114771544Y-64343216D01*
X114870147Y-64195646D01*
X114995646Y-64070147D01*
X115143216Y-63971544D01*
X115307188Y-63903624D01*
X115456488Y-63873927D01*
X115481258Y-63869000D01*
X115658742Y-63869000D01*
X115683512Y-63873927D01*
G37*
G36*
X143758228Y-63951703D02*
G01*
X143913100Y-64015853D01*
X144052481Y-64108985D01*
X144171015Y-64227519D01*
X144264147Y-64366900D01*
X144328297Y-64521772D01*
X144361000Y-64686184D01*
X144361000Y-64853816D01*
X144328297Y-65018228D01*
X144264147Y-65173100D01*
X144171015Y-65312481D01*
X144052481Y-65431015D01*
X143913100Y-65524147D01*
X143758228Y-65588297D01*
X143593816Y-65621000D01*
X143426184Y-65621000D01*
X143261772Y-65588297D01*
X143106900Y-65524147D01*
X142967519Y-65431015D01*
X142848985Y-65312481D01*
X142755853Y-65173100D01*
X142691703Y-65018228D01*
X142659000Y-64853816D01*
X142659000Y-64686184D01*
X142691703Y-64521772D01*
X142755853Y-64366900D01*
X142848985Y-64227519D01*
X142967519Y-64108985D01*
X143106900Y-64015853D01*
X143261772Y-63951703D01*
X143426184Y-63919000D01*
X143593816Y-63919000D01*
X143758228Y-63951703D01*
G37*
G36*
X128518228Y-63951703D02*
G01*
X128673100Y-64015853D01*
X128812481Y-64108985D01*
X128931015Y-64227519D01*
X129024147Y-64366900D01*
X129088297Y-64521772D01*
X129121000Y-64686184D01*
X129121000Y-64853816D01*
X129088297Y-65018228D01*
X129024147Y-65173100D01*
X128931015Y-65312481D01*
X128812481Y-65431015D01*
X128673100Y-65524147D01*
X128518228Y-65588297D01*
X128353816Y-65621000D01*
X128186184Y-65621000D01*
X128021772Y-65588297D01*
X127866900Y-65524147D01*
X127727519Y-65431015D01*
X127608985Y-65312481D01*
X127515853Y-65173100D01*
X127451703Y-65018228D01*
X127419000Y-64853816D01*
X127419000Y-64686184D01*
X127451703Y-64521772D01*
X127515853Y-64366900D01*
X127608985Y-64227519D01*
X127727519Y-64108985D01*
X127866900Y-64015853D01*
X128021772Y-63951703D01*
X128186184Y-63919000D01*
X128353816Y-63919000D01*
X128518228Y-63951703D01*
G37*
G36*
X143758228Y-61411703D02*
G01*
X143913100Y-61475853D01*
X144052481Y-61568985D01*
X144171015Y-61687519D01*
X144264147Y-61826900D01*
X144328297Y-61981772D01*
X144361000Y-62146184D01*
X144361000Y-62313816D01*
X144328297Y-62478228D01*
X144264147Y-62633100D01*
X144171015Y-62772481D01*
X144052481Y-62891015D01*
X143913100Y-62984147D01*
X143758228Y-63048297D01*
X143593816Y-63081000D01*
X143426184Y-63081000D01*
X143261772Y-63048297D01*
X143106900Y-62984147D01*
X142967519Y-62891015D01*
X142848985Y-62772481D01*
X142755853Y-62633100D01*
X142691703Y-62478228D01*
X142659000Y-62313816D01*
X142659000Y-62146184D01*
X142691703Y-61981772D01*
X142755853Y-61826900D01*
X142848985Y-61687519D01*
X142967519Y-61568985D01*
X143106900Y-61475853D01*
X143261772Y-61411703D01*
X143426184Y-61379000D01*
X143593816Y-61379000D01*
X143758228Y-61411703D01*
G37*
G36*
X128518228Y-61411703D02*
G01*
X128673100Y-61475853D01*
X128812481Y-61568985D01*
X128931015Y-61687519D01*
X129024147Y-61826900D01*
X129088297Y-61981772D01*
X129121000Y-62146184D01*
X129121000Y-62313816D01*
X129088297Y-62478228D01*
X129024147Y-62633100D01*
X128931015Y-62772481D01*
X128812481Y-62891015D01*
X128673100Y-62984147D01*
X128518228Y-63048297D01*
X128353816Y-63081000D01*
X128186184Y-63081000D01*
X128021772Y-63048297D01*
X127866900Y-62984147D01*
X127727519Y-62891015D01*
X127608985Y-62772481D01*
X127515853Y-62633100D01*
X127451703Y-62478228D01*
X127419000Y-62313816D01*
X127419000Y-62146184D01*
X127451703Y-61981772D01*
X127515853Y-61826900D01*
X127608985Y-61687519D01*
X127727519Y-61568985D01*
X127866900Y-61475853D01*
X128021772Y-61411703D01*
X128186184Y-61379000D01*
X128353816Y-61379000D01*
X128518228Y-61411703D01*
G37*
G36*
X143758228Y-58871703D02*
G01*
X143913100Y-58935853D01*
X144052481Y-59028985D01*
X144171015Y-59147519D01*
X144264147Y-59286900D01*
X144328297Y-59441772D01*
X144361000Y-59606184D01*
X144361000Y-59773816D01*
X144328297Y-59938228D01*
X144264147Y-60093100D01*
X144171015Y-60232481D01*
X144052481Y-60351015D01*
X143913100Y-60444147D01*
X143758228Y-60508297D01*
X143593816Y-60541000D01*
X143426184Y-60541000D01*
X143261772Y-60508297D01*
X143106900Y-60444147D01*
X142967519Y-60351015D01*
X142848985Y-60232481D01*
X142755853Y-60093100D01*
X142691703Y-59938228D01*
X142659000Y-59773816D01*
X142659000Y-59606184D01*
X142691703Y-59441772D01*
X142755853Y-59286900D01*
X142848985Y-59147519D01*
X142967519Y-59028985D01*
X143106900Y-58935853D01*
X143261772Y-58871703D01*
X143426184Y-58839000D01*
X143593816Y-58839000D01*
X143758228Y-58871703D01*
G37*
G36*
X128518228Y-58871703D02*
G01*
X128673100Y-58935853D01*
X128812481Y-59028985D01*
X128931015Y-59147519D01*
X129024147Y-59286900D01*
X129088297Y-59441772D01*
X129121000Y-59606184D01*
X129121000Y-59773816D01*
X129088297Y-59938228D01*
X129024147Y-60093100D01*
X128931015Y-60232481D01*
X128812481Y-60351015D01*
X128673100Y-60444147D01*
X128518228Y-60508297D01*
X128353816Y-60541000D01*
X128186184Y-60541000D01*
X128021772Y-60508297D01*
X127866900Y-60444147D01*
X127727519Y-60351015D01*
X127608985Y-60232481D01*
X127515853Y-60093100D01*
X127451703Y-59938228D01*
X127419000Y-59773816D01*
X127419000Y-59606184D01*
X127451703Y-59441772D01*
X127515853Y-59286900D01*
X127608985Y-59147519D01*
X127727519Y-59028985D01*
X127866900Y-58935853D01*
X128021772Y-58871703D01*
X128186184Y-58839000D01*
X128353816Y-58839000D01*
X128518228Y-58871703D01*
G37*
G36*
X143758228Y-56331703D02*
G01*
X143913100Y-56395853D01*
X144052481Y-56488985D01*
X144171015Y-56607519D01*
X144264147Y-56746900D01*
X144328297Y-56901772D01*
X144361000Y-57066184D01*
X144361000Y-57233816D01*
X144328297Y-57398228D01*
X144264147Y-57553100D01*
X144171015Y-57692481D01*
X144052481Y-57811015D01*
X143913100Y-57904147D01*
X143758228Y-57968297D01*
X143593816Y-58001000D01*
X143426184Y-58001000D01*
X143261772Y-57968297D01*
X143106900Y-57904147D01*
X142967519Y-57811015D01*
X142848985Y-57692481D01*
X142755853Y-57553100D01*
X142691703Y-57398228D01*
X142659000Y-57233816D01*
X142659000Y-57066184D01*
X142691703Y-56901772D01*
X142755853Y-56746900D01*
X142848985Y-56607519D01*
X142967519Y-56488985D01*
X143106900Y-56395853D01*
X143261772Y-56331703D01*
X143426184Y-56299000D01*
X143593816Y-56299000D01*
X143758228Y-56331703D01*
G37*
G36*
X129121000Y-58001000D02*
G01*
X127419000Y-58001000D01*
X127419000Y-56299000D01*
X129121000Y-56299000D01*
X129121000Y-58001000D01*
G37*
G36*
X133678228Y-56331703D02*
G01*
X133833100Y-56395853D01*
X133972481Y-56488985D01*
X134091015Y-56607519D01*
X134184147Y-56746900D01*
X134248297Y-56901772D01*
X134281000Y-57066184D01*
X134281000Y-57233816D01*
X134248297Y-57398228D01*
X134184147Y-57553100D01*
X134091015Y-57692481D01*
X133972481Y-57811015D01*
X133833100Y-57904147D01*
X133678228Y-57968297D01*
X133513816Y-58001000D01*
X133346184Y-58001000D01*
X133181772Y-57968297D01*
X133026900Y-57904147D01*
X132887519Y-57811015D01*
X132768985Y-57692481D01*
X132675853Y-57553100D01*
X132611703Y-57398228D01*
X132579000Y-57233816D01*
X132579000Y-57066184D01*
X132611703Y-56901772D01*
X132675853Y-56746900D01*
X132768985Y-56607519D01*
X132887519Y-56488985D01*
X133026900Y-56395853D01*
X133181772Y-56331703D01*
X133346184Y-56299000D01*
X133513816Y-56299000D01*
X133678228Y-56331703D01*
G37*
G36*
X138678228Y-56331703D02*
G01*
X138833100Y-56395853D01*
X138972481Y-56488985D01*
X139091015Y-56607519D01*
X139184147Y-56746900D01*
X139248297Y-56901772D01*
X139281000Y-57066184D01*
X139281000Y-57233816D01*
X139248297Y-57398228D01*
X139184147Y-57553100D01*
X139091015Y-57692481D01*
X138972481Y-57811015D01*
X138833100Y-57904147D01*
X138678228Y-57968297D01*
X138513816Y-58001000D01*
X138346184Y-58001000D01*
X138181772Y-57968297D01*
X138026900Y-57904147D01*
X137887519Y-57811015D01*
X137768985Y-57692481D01*
X137675853Y-57553100D01*
X137611703Y-57398228D01*
X137579000Y-57233816D01*
X137579000Y-57066184D01*
X137611703Y-56901772D01*
X137675853Y-56746900D01*
X137768985Y-56607519D01*
X137887519Y-56488985D01*
X138026900Y-56395853D01*
X138181772Y-56331703D01*
X138346184Y-56299000D01*
X138513816Y-56299000D01*
X138678228Y-56331703D01*
G37*
M02*
