G04 #@! TF.GenerationSoftware,KiCad,Pcbnew,5.1.5+dfsg1-2*
G04 #@! TF.CreationDate,2020-01-25T11:12:06+01:00*
G04 #@! TF.ProjectId,A500r5_eprom_adapter,41353030-7235-45f6-9570-726f6d5f6164,rev?*
G04 #@! TF.SameCoordinates,Original*
G04 #@! TF.FileFunction,Copper,L1,Top*
G04 #@! TF.FilePolarity,Positive*
%FSLAX46Y46*%
G04 Gerber Fmt 4.6, Leading zero omitted, Abs format (unit mm)*
G04 Created by KiCad (PCBNEW 5.1.5+dfsg1-2) date 2020-01-25 11:12:06*
%MOMM*%
%LPD*%
G04 APERTURE LIST*
%ADD10O,1.600000X1.600000*%
%ADD11R,1.600000X1.600000*%
%ADD12O,1.700000X1.700000*%
%ADD13R,1.700000X1.700000*%
%ADD14C,1.600000*%
%ADD15C,0.800000*%
%ADD16C,0.350000*%
%ADD17C,0.250000*%
%ADD18C,0.254000*%
G04 APERTURE END LIST*
D10*
X143510000Y-99060000D03*
X128270000Y-137160000D03*
X143510000Y-101600000D03*
X128270000Y-134620000D03*
X143510000Y-104140000D03*
X128270000Y-132080000D03*
X143510000Y-106680000D03*
X128270000Y-129540000D03*
X143510000Y-109220000D03*
X128270000Y-127000000D03*
X143510000Y-111760000D03*
X128270000Y-124460000D03*
X143510000Y-114300000D03*
X128270000Y-121920000D03*
X143510000Y-116840000D03*
X128270000Y-119380000D03*
X143510000Y-119380000D03*
X128270000Y-116840000D03*
X143510000Y-121920000D03*
X128270000Y-114300000D03*
X143510000Y-124460000D03*
X128270000Y-111760000D03*
X143510000Y-127000000D03*
X128270000Y-109220000D03*
X143510000Y-129540000D03*
X128270000Y-106680000D03*
X143510000Y-132080000D03*
X128270000Y-104140000D03*
X143510000Y-134620000D03*
X128270000Y-101600000D03*
X143510000Y-137160000D03*
D11*
X128270000Y-99060000D03*
D10*
X143510000Y-57150000D03*
X128270000Y-95250000D03*
X143510000Y-59690000D03*
X128270000Y-92710000D03*
X143510000Y-62230000D03*
X128270000Y-90170000D03*
X143510000Y-64770000D03*
X128270000Y-87630000D03*
X143510000Y-67310000D03*
X128270000Y-85090000D03*
X143510000Y-69850000D03*
X128270000Y-82550000D03*
X143510000Y-72390000D03*
X128270000Y-80010000D03*
X143510000Y-74930000D03*
X128270000Y-77470000D03*
X143510000Y-77470000D03*
X128270000Y-74930000D03*
X143510000Y-80010000D03*
X128270000Y-72390000D03*
X143510000Y-82550000D03*
X128270000Y-69850000D03*
X143510000Y-85090000D03*
X128270000Y-67310000D03*
X143510000Y-87630000D03*
X128270000Y-64770000D03*
X143510000Y-90170000D03*
X128270000Y-62230000D03*
X143510000Y-92710000D03*
X128270000Y-59690000D03*
X143510000Y-95250000D03*
D11*
X128270000Y-57150000D03*
D10*
X121920000Y-71120000D03*
X106680000Y-119380000D03*
X121920000Y-73660000D03*
X106680000Y-116840000D03*
X121920000Y-76200000D03*
X106680000Y-114300000D03*
X121920000Y-78740000D03*
X106680000Y-111760000D03*
X121920000Y-81280000D03*
X106680000Y-109220000D03*
X121920000Y-83820000D03*
X106680000Y-106680000D03*
X121920000Y-86360000D03*
X106680000Y-104140000D03*
X121920000Y-88900000D03*
X106680000Y-101600000D03*
X121920000Y-91440000D03*
X106680000Y-99060000D03*
X121920000Y-93980000D03*
X106680000Y-96520000D03*
X121920000Y-96520000D03*
X106680000Y-93980000D03*
X121920000Y-99060000D03*
X106680000Y-91440000D03*
X121920000Y-101600000D03*
X106680000Y-88900000D03*
X121920000Y-104140000D03*
X106680000Y-86360000D03*
X121920000Y-106680000D03*
X106680000Y-83820000D03*
X121920000Y-109220000D03*
X106680000Y-81280000D03*
X121920000Y-111760000D03*
X106680000Y-78740000D03*
X121920000Y-114300000D03*
X106680000Y-76200000D03*
X121920000Y-116840000D03*
X106680000Y-73660000D03*
X121920000Y-119380000D03*
D11*
X106680000Y-71120000D03*
D10*
X119380000Y-96520000D03*
X119380000Y-93980000D03*
X119380000Y-91440000D03*
X119380000Y-88900000D03*
X119380000Y-86360000D03*
X119380000Y-83820000D03*
X119380000Y-81280000D03*
X119380000Y-78740000D03*
X119380000Y-76200000D03*
X119380000Y-73660000D03*
D11*
X119380000Y-71120000D03*
D10*
X109220000Y-96520000D03*
X109220000Y-93980000D03*
X109220000Y-91440000D03*
X109220000Y-88900000D03*
X109220000Y-86360000D03*
X109220000Y-83820000D03*
X109220000Y-81280000D03*
X109220000Y-78740000D03*
X109220000Y-76200000D03*
X109220000Y-73660000D03*
D11*
X109220000Y-71120000D03*
D12*
X115570000Y-130810000D03*
D13*
X113030000Y-130810000D03*
D12*
X115570000Y-127000000D03*
D13*
X113030000Y-127000000D03*
D12*
X115570000Y-64770000D03*
D13*
X113030000Y-64770000D03*
D14*
X133430000Y-57150000D03*
X138430000Y-57150000D03*
X133430000Y-99060000D03*
X138430000Y-99060000D03*
D15*
X113030000Y-60960000D03*
X119380000Y-60960000D03*
X111760000Y-69850000D03*
X114300000Y-121920000D03*
X118110000Y-102870000D03*
X120650000Y-128270000D03*
X125730000Y-133350000D03*
X138430000Y-133350000D03*
X138030001Y-121049999D03*
X146050000Y-105410000D03*
X121920000Y-135890000D03*
X125730000Y-105410000D03*
X111760000Y-96520000D03*
X110490000Y-99060000D03*
X110490000Y-127000000D03*
X139700000Y-121920000D03*
X130810000Y-72390000D03*
X139700000Y-72390000D03*
X124460000Y-93980000D03*
X124460000Y-101600000D03*
X134620000Y-77470000D03*
X139700000Y-77470000D03*
X124460000Y-86360000D03*
X132080000Y-86360000D03*
X133350000Y-74930000D03*
X137160000Y-74930000D03*
X123190000Y-95250000D03*
X146050000Y-110490000D03*
X140970000Y-63500000D03*
X140970000Y-67310000D03*
X107950000Y-67310000D03*
X135890000Y-81280000D03*
X147320000Y-113030000D03*
X146050000Y-138430000D03*
X116840000Y-138430000D03*
X116840000Y-116840000D03*
X124460000Y-114300000D03*
X127000000Y-96520000D03*
X116840000Y-114300000D03*
X119380000Y-115570000D03*
X124785001Y-99060000D03*
X124460000Y-91440000D03*
X130810000Y-92710000D03*
X118110000Y-128270000D03*
X116905070Y-101600000D03*
X124460000Y-87630000D03*
X115570000Y-138430000D03*
X140970000Y-121920000D03*
X141605708Y-94508228D03*
X137160000Y-92710000D03*
X116905070Y-104140000D03*
X114300000Y-120650000D03*
X127000000Y-88900000D03*
X127000000Y-102870000D03*
X119380000Y-106680000D03*
X132080000Y-134620000D03*
X140970000Y-135890000D03*
X135615010Y-106680000D03*
X144780000Y-96520000D03*
X130810000Y-129540000D03*
X137160000Y-93980000D03*
X134620000Y-93980000D03*
X130810000Y-104140000D03*
X130810000Y-109220000D03*
X132080000Y-133350000D03*
D16*
X115570000Y-64770000D02*
X124460000Y-55880000D01*
X132160000Y-55880000D02*
X133430000Y-57150000D01*
X124460000Y-55880000D02*
X132160000Y-55880000D01*
X132080000Y-99060000D02*
X128270000Y-95250000D01*
X133430000Y-99060000D02*
X132080000Y-99060000D01*
X128270000Y-95250000D02*
X125730000Y-95250000D01*
X124460000Y-96520000D02*
X121920000Y-96520000D01*
X125730000Y-95250000D02*
X124460000Y-96520000D01*
X109220000Y-99060000D02*
X106680000Y-96520000D01*
X109220000Y-100330000D02*
X109220000Y-99060000D01*
X121920000Y-96520000D02*
X118110000Y-100330000D01*
X118110000Y-100330000D02*
X109220000Y-100330000D01*
X133430000Y-99060000D02*
X133430000Y-135810000D01*
X132080000Y-137160000D02*
X128270000Y-137160000D01*
X133430000Y-135810000D02*
X132080000Y-137160000D01*
X121920000Y-137160000D02*
X115570000Y-130810000D01*
X128270000Y-137160000D02*
X121920000Y-137160000D01*
X115570000Y-130810000D02*
X115570000Y-127000000D01*
X106680000Y-96520000D02*
X104140000Y-93980000D01*
X104140000Y-93980000D02*
X104140000Y-69850000D01*
X104140000Y-69850000D02*
X113030000Y-60960000D01*
X104140000Y-99060000D02*
X106680000Y-96520000D01*
X104140000Y-120650000D02*
X104140000Y-99060000D01*
X105410000Y-121920000D02*
X104140000Y-120650000D01*
X115570000Y-127000000D02*
X110490000Y-121920000D01*
X110490000Y-121920000D02*
X105410000Y-121920000D01*
X111830000Y-64770000D02*
X113030000Y-64770000D01*
X109220000Y-67380000D02*
X111830000Y-64770000D01*
X109220000Y-71120000D02*
X109220000Y-67380000D01*
X113030000Y-68580000D02*
X113030000Y-64770000D01*
X111760000Y-69850000D02*
X113030000Y-68580000D01*
X138430000Y-57150000D02*
X143510000Y-57150000D01*
X121270010Y-55329990D02*
X113030000Y-63570000D01*
X136609990Y-55329990D02*
X121270010Y-55329990D01*
X113030000Y-63570000D02*
X113030000Y-64770000D01*
X138430000Y-57150000D02*
X136609990Y-55329990D01*
X143510000Y-99060000D02*
X138430000Y-99060000D01*
D17*
X114300000Y-121920000D02*
X115570000Y-120650000D01*
X115570000Y-120650000D02*
X118110000Y-118110000D01*
X118110000Y-118110000D02*
X118110000Y-102870000D01*
X120650000Y-128270000D02*
X125730000Y-133350000D01*
X138030001Y-132950001D02*
X138030001Y-121049999D01*
X138430000Y-133350000D02*
X138030001Y-132950001D01*
X146500009Y-104959991D02*
X146050000Y-105410000D01*
X143510000Y-59690000D02*
X146500009Y-62680009D01*
X146500009Y-62680009D02*
X146500009Y-104959991D01*
X129320000Y-99060000D02*
X132929990Y-102669990D01*
X128270000Y-99060000D02*
X129320000Y-99060000D01*
X132929990Y-102669990D02*
X132929990Y-135602890D01*
X132929990Y-135602890D02*
X131872890Y-136659990D01*
X131872890Y-136659990D02*
X131102900Y-135890000D01*
X131102900Y-135890000D02*
X121920000Y-135890000D01*
X106680000Y-91440000D02*
X109220000Y-91440000D01*
X127138630Y-85090000D02*
X128270000Y-85090000D01*
X109220000Y-91440000D02*
X115570000Y-85090000D01*
X115570000Y-85090000D02*
X127138630Y-85090000D01*
X106680000Y-88900000D02*
X109220000Y-88900000D01*
X115570000Y-82550000D02*
X128270000Y-82550000D01*
X109220000Y-88900000D02*
X115570000Y-82550000D01*
X106680000Y-86360000D02*
X109220000Y-86360000D01*
X115570000Y-80010000D02*
X128270000Y-80010000D01*
X109220000Y-86360000D02*
X115570000Y-80010000D01*
X106680000Y-83820000D02*
X109220000Y-83820000D01*
X115570000Y-77470000D02*
X128270000Y-77470000D01*
X109220000Y-83820000D02*
X115570000Y-77470000D01*
X106680000Y-81280000D02*
X109220000Y-81280000D01*
X125730000Y-114300000D02*
X128270000Y-116840000D01*
X125730000Y-105410000D02*
X125730000Y-114300000D01*
X106680000Y-78740000D02*
X109220000Y-78740000D01*
X115570000Y-72390000D02*
X128270000Y-72390000D01*
X109220000Y-78740000D02*
X115570000Y-72390000D01*
X106680000Y-76200000D02*
X109220000Y-76200000D01*
X115570000Y-69850000D02*
X128270000Y-69850000D01*
X109220000Y-76200000D02*
X115570000Y-69850000D01*
X106680000Y-73660000D02*
X109220000Y-73660000D01*
X115570000Y-67310000D02*
X128270000Y-67310000D01*
X109220000Y-73660000D02*
X115570000Y-67310000D01*
X142240000Y-71120000D02*
X143510000Y-69850000D01*
X121920000Y-71120000D02*
X142240000Y-71120000D01*
X109220000Y-93980000D02*
X111760000Y-96520000D01*
X119380000Y-93980000D02*
X121920000Y-93980000D01*
X119380000Y-93980000D02*
X115570000Y-93980000D01*
X115570000Y-93980000D02*
X110490000Y-99060000D01*
X110490000Y-99060000D02*
X112485001Y-97064999D01*
X133247992Y-139605010D02*
X139700000Y-133153002D01*
X115672008Y-139605010D02*
X133247992Y-139605010D01*
X110490000Y-127000000D02*
X111665001Y-128175001D01*
X111665001Y-128175001D02*
X112935001Y-128175001D01*
X112935001Y-128175001D02*
X114394999Y-129634999D01*
X114394999Y-129634999D02*
X114394999Y-138328001D01*
X114394999Y-138328001D02*
X115672008Y-139605010D01*
X139700000Y-133153002D02*
X139700000Y-121920000D01*
X130810000Y-72390000D02*
X139700000Y-72390000D01*
X119380000Y-91440000D02*
X121920000Y-91440000D01*
X121920000Y-91440000D02*
X124460000Y-93980000D01*
X124460000Y-101600000D02*
X128270000Y-101600000D01*
X134620000Y-77470000D02*
X139700000Y-77470000D01*
X119380000Y-88900000D02*
X121920000Y-88900000D01*
X124460000Y-86360000D02*
X128665002Y-86360000D01*
X128665002Y-86360000D02*
X132080000Y-86360000D01*
X133350000Y-74930000D02*
X137160000Y-74930000D01*
X120254998Y-88900000D02*
X118254999Y-90899999D01*
X121920000Y-88900000D02*
X120254998Y-88900000D01*
X118254999Y-90899999D02*
X118254999Y-91980001D01*
X118254999Y-91980001D02*
X118839999Y-92565001D01*
X122408591Y-92565001D02*
X123190000Y-93346410D01*
X118839999Y-92565001D02*
X122408591Y-92565001D01*
X123190000Y-93346410D02*
X123190000Y-95250000D01*
X119380000Y-86360000D02*
X121920000Y-86360000D01*
X140719997Y-91584999D02*
X143259997Y-94124999D01*
X121920000Y-86360000D02*
X127144999Y-91584999D01*
X143259997Y-94124999D02*
X144050001Y-94124999D01*
X127144999Y-91584999D02*
X140719997Y-91584999D01*
X146050000Y-104140000D02*
X143510000Y-106680000D01*
X146050000Y-96124998D02*
X146050000Y-104140000D01*
X145535020Y-66795020D02*
X144309999Y-65569999D01*
X145535020Y-94494980D02*
X145535020Y-66795020D01*
X144977501Y-95052499D02*
X145535020Y-94494980D01*
X144309999Y-65569999D02*
X143510000Y-64770000D01*
X144050001Y-94124999D02*
X144977501Y-95052499D01*
X144977501Y-95052499D02*
X146050000Y-96124998D01*
X119380000Y-83820000D02*
X121920000Y-83820000D01*
X145085010Y-68885010D02*
X144309999Y-68109999D01*
X145085010Y-82639992D02*
X145085010Y-68885010D01*
X143905002Y-83820000D02*
X145085010Y-82639992D01*
X144309999Y-68109999D02*
X143510000Y-67310000D01*
X121920000Y-83820000D02*
X143905002Y-83820000D01*
X143510000Y-109220000D02*
X144780000Y-109220000D01*
X144780000Y-109220000D02*
X146050000Y-110490000D01*
X140970000Y-63500000D02*
X140970000Y-67310000D01*
X119380000Y-81280000D02*
X121920000Y-81280000D01*
X109760001Y-87485001D02*
X105265001Y-87485001D01*
X121920000Y-81280000D02*
X115965002Y-81280000D01*
X115965002Y-81280000D02*
X109760001Y-87485001D01*
X105265001Y-70349997D02*
X107950000Y-67664998D01*
X105265001Y-87485001D02*
X105265001Y-70349997D01*
X107950000Y-67664998D02*
X107950000Y-67310000D01*
X121920000Y-81280000D02*
X128665002Y-81280000D01*
X128665002Y-81280000D02*
X135890000Y-81280000D01*
X119380000Y-78740000D02*
X121920000Y-78740000D01*
X144309999Y-75729999D02*
X143510000Y-74930000D01*
X144635001Y-76055001D02*
X144309999Y-75729999D01*
X144635001Y-80550001D02*
X144635001Y-76055001D01*
X144050001Y-81135001D02*
X144635001Y-80550001D01*
X142969999Y-81135001D02*
X144050001Y-81135001D01*
X140574998Y-78740000D02*
X142969999Y-81135001D01*
X121920000Y-78740000D02*
X140574998Y-78740000D01*
X143510000Y-116840000D02*
X147320000Y-113030000D01*
X119380000Y-76200000D02*
X121920000Y-76200000D01*
X139700000Y-76200000D02*
X143510000Y-80010000D01*
X121920000Y-76200000D02*
X139700000Y-76200000D01*
X119380000Y-73660000D02*
X121920000Y-73660000D01*
X142240000Y-73660000D02*
X143510000Y-72390000D01*
X121920000Y-73660000D02*
X142240000Y-73660000D01*
X144309999Y-113500001D02*
X143510000Y-114300000D01*
X146950019Y-110859981D02*
X144309999Y-113500001D01*
X146950019Y-61465017D02*
X146950019Y-110859981D01*
X144050001Y-58564999D02*
X146950019Y-61465017D01*
X142969999Y-58564999D02*
X144050001Y-58564999D01*
X142384999Y-59149999D02*
X142969999Y-58564999D01*
X142384999Y-67850001D02*
X142384999Y-59149999D01*
X142969999Y-68435001D02*
X142384999Y-67850001D01*
X143998591Y-68435001D02*
X142969999Y-68435001D01*
X144635000Y-69071410D02*
X143998591Y-68435001D01*
X144635000Y-71265000D02*
X144635000Y-69071410D01*
X143510000Y-72390000D02*
X144635000Y-71265000D01*
X144780000Y-137160000D02*
X143510000Y-137160000D01*
X146050000Y-138430000D02*
X144780000Y-137160000D01*
X134057120Y-100097882D02*
X138905002Y-95250000D01*
X138905002Y-95250000D02*
X143510000Y-95250000D01*
X134057120Y-135890000D02*
X134057120Y-100097882D01*
X116840000Y-138430000D02*
X131517120Y-138430000D01*
X131517120Y-138430000D02*
X134057120Y-135890000D01*
X128270000Y-134620000D02*
X125730000Y-134620000D01*
X125730000Y-134620000D02*
X107805001Y-116695001D01*
X107479999Y-115099999D02*
X106680000Y-114300000D01*
X107805001Y-115425001D02*
X107479999Y-115099999D01*
X107805001Y-116695001D02*
X107805001Y-115425001D01*
X106680000Y-111760000D02*
X111760000Y-111760000D01*
X111760000Y-111760000D02*
X116840000Y-116840000D01*
X123734999Y-101251999D02*
X127000000Y-97986998D01*
X127000000Y-97986998D02*
X127000000Y-96520000D01*
X124460000Y-114300000D02*
X124460000Y-104140000D01*
X123734999Y-101948001D02*
X124460000Y-102673002D01*
X123734999Y-101251999D02*
X123734999Y-101948001D01*
X124460000Y-102673002D02*
X124460000Y-104140000D01*
X111760000Y-109220000D02*
X116840000Y-114300000D01*
X119380000Y-123190000D02*
X128270000Y-132080000D01*
X119380000Y-115570000D02*
X119380000Y-123190000D01*
X106680000Y-109220000D02*
X111760000Y-109220000D01*
X119721997Y-100185001D02*
X123334999Y-100185001D01*
X106680000Y-106680000D02*
X113226998Y-106680000D01*
X113226998Y-106680000D02*
X119721997Y-100185001D01*
X123334999Y-100185001D02*
X124460000Y-99060000D01*
X124460000Y-99060000D02*
X124785001Y-99060000D01*
X126855001Y-93835001D02*
X129684999Y-93835001D01*
X124460000Y-91440000D02*
X126855001Y-93835001D01*
X129684999Y-93835001D02*
X130810000Y-92710000D01*
X105880001Y-104939999D02*
X106680000Y-104140000D01*
X105554999Y-105265001D02*
X105880001Y-104939999D01*
X105554999Y-117380001D02*
X105554999Y-105265001D01*
X106139999Y-117965001D02*
X105554999Y-117380001D01*
X108438591Y-117965001D02*
X106139999Y-117965001D01*
X118110000Y-127636410D02*
X108438591Y-117965001D01*
X118110000Y-128270000D02*
X118110000Y-127636410D01*
X106680000Y-101600000D02*
X116840000Y-101600000D01*
X116840000Y-101600000D02*
X116905070Y-101600000D01*
X124460000Y-87630000D02*
X128270000Y-87630000D01*
X134620000Y-121920000D02*
X137160000Y-119380000D01*
X131428529Y-139155001D02*
X134620000Y-135963530D01*
X134620000Y-135963530D02*
X134620000Y-121920000D01*
X137160000Y-119380000D02*
X143510000Y-119380000D01*
X116491999Y-139155001D02*
X131428529Y-139155001D01*
X116114999Y-138778001D02*
X116491999Y-139155001D01*
X115969999Y-138829999D02*
X115570000Y-138430000D01*
X116063001Y-138829999D02*
X115969999Y-138829999D01*
X116114999Y-138778001D02*
X116063001Y-138829999D01*
X143510000Y-124460000D02*
X140970000Y-121920000D01*
X141605708Y-94508228D02*
X138958228Y-94508228D01*
X138958228Y-94508228D02*
X137160000Y-92710000D01*
X117565001Y-104799931D02*
X117565001Y-117384999D01*
X116905070Y-104140000D02*
X117565001Y-104799931D01*
X117565001Y-117384999D02*
X114300000Y-120650000D01*
X127729999Y-89044999D02*
X127000000Y-89774998D01*
X143510000Y-85090000D02*
X139555001Y-89044999D01*
X139555001Y-89044999D02*
X127729999Y-89044999D01*
X127000000Y-89774998D02*
X127000000Y-88900000D01*
X123734999Y-103414999D02*
X122719999Y-102399999D01*
X125185001Y-113951999D02*
X125185001Y-114648001D01*
X123734999Y-114648001D02*
X123734999Y-103414999D01*
X124910010Y-113677008D02*
X125185001Y-113951999D01*
X124910010Y-104959990D02*
X124910010Y-113677008D01*
X122719999Y-102399999D02*
X121920000Y-101600000D01*
X124111999Y-115025001D02*
X123734999Y-114648001D01*
X124808001Y-115025001D02*
X124111999Y-115025001D01*
X125185001Y-114648001D02*
X124808001Y-115025001D01*
X127000000Y-102870000D02*
X124910010Y-104959990D01*
X128019997Y-133494999D02*
X130954999Y-133494999D01*
X118654999Y-124130001D02*
X128019997Y-133494999D01*
X119380000Y-106680000D02*
X118654999Y-107405001D01*
X118654999Y-107405001D02*
X118654999Y-124130001D01*
X130954999Y-133494999D02*
X132080000Y-134620000D01*
X140970000Y-132080000D02*
X143510000Y-129540000D01*
X140970000Y-135890000D02*
X140970000Y-132080000D01*
X135615010Y-100209988D02*
X139304998Y-96520000D01*
X135615010Y-106680000D02*
X135615010Y-100209988D01*
X139304998Y-96520000D02*
X144780000Y-96520000D01*
X128810001Y-123334999D02*
X130810000Y-125334998D01*
X128019997Y-123334999D02*
X128810001Y-123334999D01*
X123045001Y-118360003D02*
X128019997Y-123334999D01*
X121920000Y-109220000D02*
X123045001Y-110345001D01*
X123045001Y-110345001D02*
X123045001Y-118360003D01*
X130810000Y-125334998D02*
X130810000Y-129540000D01*
X137160000Y-93980000D02*
X134620000Y-93980000D01*
X130810000Y-104140000D02*
X130810000Y-109220000D01*
X128019997Y-130954999D02*
X130954999Y-130954999D01*
X120794999Y-123730001D02*
X128019997Y-130954999D01*
X121920000Y-114300000D02*
X120794999Y-115425001D01*
X120794999Y-115425001D02*
X120794999Y-123730001D01*
X130954999Y-130954999D02*
X132080000Y-132080000D01*
X132080000Y-132080000D02*
X132080000Y-133350000D01*
D18*
G36*
X115697000Y-126873000D02*
G01*
X115717000Y-126873000D01*
X115717000Y-127127000D01*
X115697000Y-127127000D01*
X115697000Y-128320155D01*
X115926890Y-128441476D01*
X116074099Y-128396825D01*
X116336920Y-128271641D01*
X116570269Y-128097588D01*
X116765178Y-127881355D01*
X116914157Y-127631252D01*
X116944500Y-127545712D01*
X117188617Y-127789829D01*
X117114774Y-127968102D01*
X117075000Y-128168061D01*
X117075000Y-128371939D01*
X117114774Y-128571898D01*
X117192795Y-128760256D01*
X117306063Y-128929774D01*
X117450226Y-129073937D01*
X117619744Y-129187205D01*
X117808102Y-129265226D01*
X118008061Y-129305000D01*
X118211939Y-129305000D01*
X118411898Y-129265226D01*
X118600256Y-129187205D01*
X118769774Y-129073937D01*
X118913937Y-128929774D01*
X118934379Y-128899181D01*
X125165198Y-135130000D01*
X122623711Y-135130000D01*
X122579774Y-135086063D01*
X122410256Y-134972795D01*
X122221898Y-134894774D01*
X122021939Y-134855000D01*
X121818061Y-134855000D01*
X121618102Y-134894774D01*
X121429744Y-134972795D01*
X121260226Y-135086063D01*
X121116063Y-135230226D01*
X121002795Y-135399744D01*
X120924774Y-135588102D01*
X120885000Y-135788061D01*
X120885000Y-135991939D01*
X120924774Y-136191898D01*
X121002795Y-136380256D01*
X121116063Y-136549774D01*
X121260226Y-136693937D01*
X121429744Y-136807205D01*
X121618102Y-136885226D01*
X121818061Y-136925000D01*
X122021939Y-136925000D01*
X122221898Y-136885226D01*
X122410256Y-136807205D01*
X122579774Y-136693937D01*
X122623711Y-136650000D01*
X126931474Y-136650000D01*
X126918754Y-136676913D01*
X126878096Y-136810961D01*
X127000085Y-137033000D01*
X128143000Y-137033000D01*
X128143000Y-137013000D01*
X128397000Y-137013000D01*
X128397000Y-137033000D01*
X129539915Y-137033000D01*
X129661904Y-136810961D01*
X129621246Y-136676913D01*
X129608526Y-136650000D01*
X130788099Y-136650000D01*
X131309091Y-137170992D01*
X131332889Y-137199991D01*
X131448614Y-137294964D01*
X131532511Y-137339808D01*
X131202319Y-137670000D01*
X129608526Y-137670000D01*
X129621246Y-137643087D01*
X129661904Y-137509039D01*
X129539915Y-137287000D01*
X128397000Y-137287000D01*
X128397000Y-137307000D01*
X128143000Y-137307000D01*
X128143000Y-137287000D01*
X127000085Y-137287000D01*
X126878096Y-137509039D01*
X126918754Y-137643087D01*
X126931474Y-137670000D01*
X117543711Y-137670000D01*
X117499774Y-137626063D01*
X117330256Y-137512795D01*
X117141898Y-137434774D01*
X116941939Y-137395000D01*
X116738061Y-137395000D01*
X116538102Y-137434774D01*
X116349744Y-137512795D01*
X116205000Y-137609510D01*
X116060256Y-137512795D01*
X115871898Y-137434774D01*
X115671939Y-137395000D01*
X115468061Y-137395000D01*
X115268102Y-137434774D01*
X115154999Y-137481623D01*
X115154999Y-132233850D01*
X115213110Y-132251476D01*
X115443000Y-132130155D01*
X115443000Y-130937000D01*
X115697000Y-130937000D01*
X115697000Y-132130155D01*
X115926890Y-132251476D01*
X116074099Y-132206825D01*
X116336920Y-132081641D01*
X116570269Y-131907588D01*
X116765178Y-131691355D01*
X116914157Y-131441252D01*
X117011481Y-131166891D01*
X116890814Y-130937000D01*
X115697000Y-130937000D01*
X115443000Y-130937000D01*
X115423000Y-130937000D01*
X115423000Y-130683000D01*
X115443000Y-130683000D01*
X115443000Y-129489845D01*
X115697000Y-129489845D01*
X115697000Y-130683000D01*
X116890814Y-130683000D01*
X117011481Y-130453109D01*
X116914157Y-130178748D01*
X116765178Y-129928645D01*
X116570269Y-129712412D01*
X116336920Y-129538359D01*
X116074099Y-129413175D01*
X115926890Y-129368524D01*
X115697000Y-129489845D01*
X115443000Y-129489845D01*
X115213110Y-129368524D01*
X115117188Y-129397619D01*
X115100545Y-129342752D01*
X115029974Y-129210724D01*
X115029973Y-129210722D01*
X114958798Y-129123996D01*
X114935000Y-129094998D01*
X114906003Y-129071201D01*
X114222011Y-128387209D01*
X114234494Y-128380537D01*
X114331185Y-128301185D01*
X114410537Y-128204494D01*
X114469502Y-128094180D01*
X114493966Y-128013534D01*
X114569731Y-128097588D01*
X114803080Y-128271641D01*
X115065901Y-128396825D01*
X115213110Y-128441476D01*
X115443000Y-128320155D01*
X115443000Y-127127000D01*
X115423000Y-127127000D01*
X115423000Y-126873000D01*
X115443000Y-126873000D01*
X115443000Y-126853000D01*
X115697000Y-126853000D01*
X115697000Y-126873000D01*
G37*
X115697000Y-126873000D02*
X115717000Y-126873000D01*
X115717000Y-127127000D01*
X115697000Y-127127000D01*
X115697000Y-128320155D01*
X115926890Y-128441476D01*
X116074099Y-128396825D01*
X116336920Y-128271641D01*
X116570269Y-128097588D01*
X116765178Y-127881355D01*
X116914157Y-127631252D01*
X116944500Y-127545712D01*
X117188617Y-127789829D01*
X117114774Y-127968102D01*
X117075000Y-128168061D01*
X117075000Y-128371939D01*
X117114774Y-128571898D01*
X117192795Y-128760256D01*
X117306063Y-128929774D01*
X117450226Y-129073937D01*
X117619744Y-129187205D01*
X117808102Y-129265226D01*
X118008061Y-129305000D01*
X118211939Y-129305000D01*
X118411898Y-129265226D01*
X118600256Y-129187205D01*
X118769774Y-129073937D01*
X118913937Y-128929774D01*
X118934379Y-128899181D01*
X125165198Y-135130000D01*
X122623711Y-135130000D01*
X122579774Y-135086063D01*
X122410256Y-134972795D01*
X122221898Y-134894774D01*
X122021939Y-134855000D01*
X121818061Y-134855000D01*
X121618102Y-134894774D01*
X121429744Y-134972795D01*
X121260226Y-135086063D01*
X121116063Y-135230226D01*
X121002795Y-135399744D01*
X120924774Y-135588102D01*
X120885000Y-135788061D01*
X120885000Y-135991939D01*
X120924774Y-136191898D01*
X121002795Y-136380256D01*
X121116063Y-136549774D01*
X121260226Y-136693937D01*
X121429744Y-136807205D01*
X121618102Y-136885226D01*
X121818061Y-136925000D01*
X122021939Y-136925000D01*
X122221898Y-136885226D01*
X122410256Y-136807205D01*
X122579774Y-136693937D01*
X122623711Y-136650000D01*
X126931474Y-136650000D01*
X126918754Y-136676913D01*
X126878096Y-136810961D01*
X127000085Y-137033000D01*
X128143000Y-137033000D01*
X128143000Y-137013000D01*
X128397000Y-137013000D01*
X128397000Y-137033000D01*
X129539915Y-137033000D01*
X129661904Y-136810961D01*
X129621246Y-136676913D01*
X129608526Y-136650000D01*
X130788099Y-136650000D01*
X131309091Y-137170992D01*
X131332889Y-137199991D01*
X131448614Y-137294964D01*
X131532511Y-137339808D01*
X131202319Y-137670000D01*
X129608526Y-137670000D01*
X129621246Y-137643087D01*
X129661904Y-137509039D01*
X129539915Y-137287000D01*
X128397000Y-137287000D01*
X128397000Y-137307000D01*
X128143000Y-137307000D01*
X128143000Y-137287000D01*
X127000085Y-137287000D01*
X126878096Y-137509039D01*
X126918754Y-137643087D01*
X126931474Y-137670000D01*
X117543711Y-137670000D01*
X117499774Y-137626063D01*
X117330256Y-137512795D01*
X117141898Y-137434774D01*
X116941939Y-137395000D01*
X116738061Y-137395000D01*
X116538102Y-137434774D01*
X116349744Y-137512795D01*
X116205000Y-137609510D01*
X116060256Y-137512795D01*
X115871898Y-137434774D01*
X115671939Y-137395000D01*
X115468061Y-137395000D01*
X115268102Y-137434774D01*
X115154999Y-137481623D01*
X115154999Y-132233850D01*
X115213110Y-132251476D01*
X115443000Y-132130155D01*
X115443000Y-130937000D01*
X115697000Y-130937000D01*
X115697000Y-132130155D01*
X115926890Y-132251476D01*
X116074099Y-132206825D01*
X116336920Y-132081641D01*
X116570269Y-131907588D01*
X116765178Y-131691355D01*
X116914157Y-131441252D01*
X117011481Y-131166891D01*
X116890814Y-130937000D01*
X115697000Y-130937000D01*
X115443000Y-130937000D01*
X115423000Y-130937000D01*
X115423000Y-130683000D01*
X115443000Y-130683000D01*
X115443000Y-129489845D01*
X115697000Y-129489845D01*
X115697000Y-130683000D01*
X116890814Y-130683000D01*
X117011481Y-130453109D01*
X116914157Y-130178748D01*
X116765178Y-129928645D01*
X116570269Y-129712412D01*
X116336920Y-129538359D01*
X116074099Y-129413175D01*
X115926890Y-129368524D01*
X115697000Y-129489845D01*
X115443000Y-129489845D01*
X115213110Y-129368524D01*
X115117188Y-129397619D01*
X115100545Y-129342752D01*
X115029974Y-129210724D01*
X115029973Y-129210722D01*
X114958798Y-129123996D01*
X114935000Y-129094998D01*
X114906003Y-129071201D01*
X114222011Y-128387209D01*
X114234494Y-128380537D01*
X114331185Y-128301185D01*
X114410537Y-128204494D01*
X114469502Y-128094180D01*
X114493966Y-128013534D01*
X114569731Y-128097588D01*
X114803080Y-128271641D01*
X115065901Y-128396825D01*
X115213110Y-128441476D01*
X115443000Y-128320155D01*
X115443000Y-127127000D01*
X115423000Y-127127000D01*
X115423000Y-126873000D01*
X115443000Y-126873000D01*
X115443000Y-126853000D01*
X115697000Y-126853000D01*
X115697000Y-126873000D01*
G36*
X112485388Y-62969100D02*
G01*
X112454472Y-62994472D01*
X112387791Y-63075724D01*
X112353251Y-63117811D01*
X112313049Y-63193025D01*
X112278037Y-63258528D01*
X112270939Y-63281928D01*
X112180000Y-63281928D01*
X112055518Y-63294188D01*
X111935820Y-63330498D01*
X111825506Y-63389463D01*
X111728815Y-63468815D01*
X111649463Y-63565506D01*
X111590498Y-63675820D01*
X111554188Y-63795518D01*
X111541928Y-63920000D01*
X111541928Y-64010938D01*
X111518527Y-64018037D01*
X111377811Y-64093251D01*
X111254472Y-64194472D01*
X111229105Y-64225382D01*
X108774094Y-66680394D01*
X108753937Y-66650226D01*
X108609774Y-66506063D01*
X108440256Y-66392795D01*
X108251898Y-66314774D01*
X108051939Y-66275000D01*
X107848061Y-66275000D01*
X107648102Y-66314774D01*
X107459744Y-66392795D01*
X107290226Y-66506063D01*
X107146063Y-66650226D01*
X107032795Y-66819744D01*
X106954774Y-67008102D01*
X106915000Y-67208061D01*
X106915000Y-67411939D01*
X106950381Y-67589815D01*
X104753999Y-69786198D01*
X104725001Y-69809996D01*
X104701203Y-69838994D01*
X104701202Y-69838995D01*
X104630027Y-69925721D01*
X104559455Y-70057751D01*
X104530897Y-70151898D01*
X104517666Y-70195518D01*
X104515999Y-70201012D01*
X104501325Y-70349997D01*
X104505002Y-70387330D01*
X104505001Y-87447668D01*
X104501324Y-87485001D01*
X104515998Y-87633987D01*
X104559455Y-87777248D01*
X104630027Y-87909277D01*
X104648592Y-87931898D01*
X104725000Y-88025002D01*
X104840725Y-88119975D01*
X104972754Y-88190547D01*
X105116015Y-88234004D01*
X105265001Y-88248678D01*
X105302334Y-88245001D01*
X105398077Y-88245001D01*
X105300147Y-88481426D01*
X105245000Y-88758665D01*
X105245000Y-89041335D01*
X105300147Y-89318574D01*
X105408320Y-89579727D01*
X105565363Y-89814759D01*
X105765241Y-90014637D01*
X105997759Y-90170000D01*
X105765241Y-90325363D01*
X105565363Y-90525241D01*
X105408320Y-90760273D01*
X105300147Y-91021426D01*
X105245000Y-91298665D01*
X105245000Y-91581335D01*
X105300147Y-91858574D01*
X105408320Y-92119727D01*
X105565363Y-92354759D01*
X105765241Y-92554637D01*
X105997759Y-92710000D01*
X105765241Y-92865363D01*
X105565363Y-93065241D01*
X105408320Y-93300273D01*
X105300147Y-93561426D01*
X105245000Y-93838665D01*
X105245000Y-94121335D01*
X105300147Y-94398574D01*
X105408320Y-94659727D01*
X105565363Y-94894759D01*
X105765241Y-95094637D01*
X106000273Y-95251680D01*
X106010865Y-95256067D01*
X105824869Y-95367615D01*
X105616481Y-95556586D01*
X105448963Y-95782580D01*
X105328754Y-96036913D01*
X105288096Y-96170961D01*
X105410085Y-96393000D01*
X106553000Y-96393000D01*
X106553000Y-96373000D01*
X106807000Y-96373000D01*
X106807000Y-96393000D01*
X106827000Y-96393000D01*
X106827000Y-96647000D01*
X106807000Y-96647000D01*
X106807000Y-96667000D01*
X106553000Y-96667000D01*
X106553000Y-96647000D01*
X105410085Y-96647000D01*
X105288096Y-96869039D01*
X105328754Y-97003087D01*
X105448963Y-97257420D01*
X105616481Y-97483414D01*
X105824869Y-97672385D01*
X106010865Y-97783933D01*
X106000273Y-97788320D01*
X105765241Y-97945363D01*
X105565363Y-98145241D01*
X105408320Y-98380273D01*
X105300147Y-98641426D01*
X105245000Y-98918665D01*
X105245000Y-99201335D01*
X105300147Y-99478574D01*
X105408320Y-99739727D01*
X105565363Y-99974759D01*
X105765241Y-100174637D01*
X105997759Y-100330000D01*
X105765241Y-100485363D01*
X105565363Y-100685241D01*
X105408320Y-100920273D01*
X105300147Y-101181426D01*
X105245000Y-101458665D01*
X105245000Y-101741335D01*
X105300147Y-102018574D01*
X105408320Y-102279727D01*
X105565363Y-102514759D01*
X105765241Y-102714637D01*
X105997759Y-102870000D01*
X105765241Y-103025363D01*
X105565363Y-103225241D01*
X105408320Y-103460273D01*
X105300147Y-103721426D01*
X105245000Y-103998665D01*
X105245000Y-104281335D01*
X105281312Y-104463887D01*
X105043997Y-104701202D01*
X105014999Y-104725000D01*
X104991201Y-104753998D01*
X104991200Y-104753999D01*
X104920025Y-104840725D01*
X104849453Y-104972755D01*
X104819179Y-105072559D01*
X104808398Y-105108102D01*
X104805997Y-105116016D01*
X104791323Y-105265001D01*
X104795000Y-105302333D01*
X104794999Y-117342679D01*
X104791323Y-117380001D01*
X104794999Y-117417323D01*
X104794999Y-117417333D01*
X104805996Y-117528986D01*
X104844057Y-117654457D01*
X104849453Y-117672247D01*
X104920025Y-117804277D01*
X104959870Y-117852827D01*
X105014998Y-117920002D01*
X105044001Y-117943804D01*
X105565400Y-118465204D01*
X105565363Y-118465241D01*
X105408320Y-118700273D01*
X105300147Y-118961426D01*
X105245000Y-119238665D01*
X105245000Y-119521335D01*
X105300147Y-119798574D01*
X105408320Y-120059727D01*
X105565363Y-120294759D01*
X105765241Y-120494637D01*
X106000273Y-120651680D01*
X106261426Y-120759853D01*
X106538665Y-120815000D01*
X106821335Y-120815000D01*
X107098574Y-120759853D01*
X107359727Y-120651680D01*
X107594759Y-120494637D01*
X107794637Y-120294759D01*
X107951680Y-120059727D01*
X108059853Y-119798574D01*
X108115000Y-119521335D01*
X108115000Y-119238665D01*
X108059853Y-118961426D01*
X107961923Y-118725001D01*
X108123790Y-118725001D01*
X115022592Y-125623804D01*
X114803080Y-125728359D01*
X114569731Y-125902412D01*
X114493966Y-125986466D01*
X114469502Y-125905820D01*
X114410537Y-125795506D01*
X114331185Y-125698815D01*
X114234494Y-125619463D01*
X114124180Y-125560498D01*
X114004482Y-125524188D01*
X113880000Y-125511928D01*
X112180000Y-125511928D01*
X112055518Y-125524188D01*
X111935820Y-125560498D01*
X111825506Y-125619463D01*
X111728815Y-125698815D01*
X111649463Y-125795506D01*
X111590498Y-125905820D01*
X111554188Y-126025518D01*
X111541928Y-126150000D01*
X111541928Y-126977127D01*
X111525000Y-126960199D01*
X111525000Y-126898061D01*
X111485226Y-126698102D01*
X111407205Y-126509744D01*
X111293937Y-126340226D01*
X111149774Y-126196063D01*
X110980256Y-126082795D01*
X110791898Y-126004774D01*
X110591939Y-125965000D01*
X110388061Y-125965000D01*
X110188102Y-126004774D01*
X109999744Y-126082795D01*
X109830226Y-126196063D01*
X109686063Y-126340226D01*
X109572795Y-126509744D01*
X109494774Y-126698102D01*
X109455000Y-126898061D01*
X109455000Y-127101939D01*
X109494774Y-127301898D01*
X109572795Y-127490256D01*
X109686063Y-127659774D01*
X109830226Y-127803937D01*
X109999744Y-127917205D01*
X110188102Y-127995226D01*
X110388061Y-128035000D01*
X110450199Y-128035000D01*
X111101201Y-128686003D01*
X111125000Y-128715002D01*
X111240725Y-128809975D01*
X111372754Y-128880547D01*
X111516015Y-128924004D01*
X111627668Y-128935001D01*
X111627677Y-128935001D01*
X111665000Y-128938677D01*
X111702323Y-128935001D01*
X112620200Y-128935001D01*
X113007127Y-129321928D01*
X112180000Y-129321928D01*
X112055518Y-129334188D01*
X111935820Y-129370498D01*
X111825506Y-129429463D01*
X111728815Y-129508815D01*
X111649463Y-129605506D01*
X111590498Y-129715820D01*
X111554188Y-129835518D01*
X111541928Y-129960000D01*
X111541928Y-131660000D01*
X111554188Y-131784482D01*
X111590498Y-131904180D01*
X111649463Y-132014494D01*
X111728815Y-132111185D01*
X111825506Y-132190537D01*
X111935820Y-132249502D01*
X112055518Y-132285812D01*
X112180000Y-132298072D01*
X113634999Y-132298072D01*
X113635000Y-136315394D01*
X104267000Y-126947394D01*
X104267000Y-67358285D01*
X114357031Y-56007000D01*
X119447487Y-56007000D01*
X112485388Y-62969100D01*
G37*
X112485388Y-62969100D02*
X112454472Y-62994472D01*
X112387791Y-63075724D01*
X112353251Y-63117811D01*
X112313049Y-63193025D01*
X112278037Y-63258528D01*
X112270939Y-63281928D01*
X112180000Y-63281928D01*
X112055518Y-63294188D01*
X111935820Y-63330498D01*
X111825506Y-63389463D01*
X111728815Y-63468815D01*
X111649463Y-63565506D01*
X111590498Y-63675820D01*
X111554188Y-63795518D01*
X111541928Y-63920000D01*
X111541928Y-64010938D01*
X111518527Y-64018037D01*
X111377811Y-64093251D01*
X111254472Y-64194472D01*
X111229105Y-64225382D01*
X108774094Y-66680394D01*
X108753937Y-66650226D01*
X108609774Y-66506063D01*
X108440256Y-66392795D01*
X108251898Y-66314774D01*
X108051939Y-66275000D01*
X107848061Y-66275000D01*
X107648102Y-66314774D01*
X107459744Y-66392795D01*
X107290226Y-66506063D01*
X107146063Y-66650226D01*
X107032795Y-66819744D01*
X106954774Y-67008102D01*
X106915000Y-67208061D01*
X106915000Y-67411939D01*
X106950381Y-67589815D01*
X104753999Y-69786198D01*
X104725001Y-69809996D01*
X104701203Y-69838994D01*
X104701202Y-69838995D01*
X104630027Y-69925721D01*
X104559455Y-70057751D01*
X104530897Y-70151898D01*
X104517666Y-70195518D01*
X104515999Y-70201012D01*
X104501325Y-70349997D01*
X104505002Y-70387330D01*
X104505001Y-87447668D01*
X104501324Y-87485001D01*
X104515998Y-87633987D01*
X104559455Y-87777248D01*
X104630027Y-87909277D01*
X104648592Y-87931898D01*
X104725000Y-88025002D01*
X104840725Y-88119975D01*
X104972754Y-88190547D01*
X105116015Y-88234004D01*
X105265001Y-88248678D01*
X105302334Y-88245001D01*
X105398077Y-88245001D01*
X105300147Y-88481426D01*
X105245000Y-88758665D01*
X105245000Y-89041335D01*
X105300147Y-89318574D01*
X105408320Y-89579727D01*
X105565363Y-89814759D01*
X105765241Y-90014637D01*
X105997759Y-90170000D01*
X105765241Y-90325363D01*
X105565363Y-90525241D01*
X105408320Y-90760273D01*
X105300147Y-91021426D01*
X105245000Y-91298665D01*
X105245000Y-91581335D01*
X105300147Y-91858574D01*
X105408320Y-92119727D01*
X105565363Y-92354759D01*
X105765241Y-92554637D01*
X105997759Y-92710000D01*
X105765241Y-92865363D01*
X105565363Y-93065241D01*
X105408320Y-93300273D01*
X105300147Y-93561426D01*
X105245000Y-93838665D01*
X105245000Y-94121335D01*
X105300147Y-94398574D01*
X105408320Y-94659727D01*
X105565363Y-94894759D01*
X105765241Y-95094637D01*
X106000273Y-95251680D01*
X106010865Y-95256067D01*
X105824869Y-95367615D01*
X105616481Y-95556586D01*
X105448963Y-95782580D01*
X105328754Y-96036913D01*
X105288096Y-96170961D01*
X105410085Y-96393000D01*
X106553000Y-96393000D01*
X106553000Y-96373000D01*
X106807000Y-96373000D01*
X106807000Y-96393000D01*
X106827000Y-96393000D01*
X106827000Y-96647000D01*
X106807000Y-96647000D01*
X106807000Y-96667000D01*
X106553000Y-96667000D01*
X106553000Y-96647000D01*
X105410085Y-96647000D01*
X105288096Y-96869039D01*
X105328754Y-97003087D01*
X105448963Y-97257420D01*
X105616481Y-97483414D01*
X105824869Y-97672385D01*
X106010865Y-97783933D01*
X106000273Y-97788320D01*
X105765241Y-97945363D01*
X105565363Y-98145241D01*
X105408320Y-98380273D01*
X105300147Y-98641426D01*
X105245000Y-98918665D01*
X105245000Y-99201335D01*
X105300147Y-99478574D01*
X105408320Y-99739727D01*
X105565363Y-99974759D01*
X105765241Y-100174637D01*
X105997759Y-100330000D01*
X105765241Y-100485363D01*
X105565363Y-100685241D01*
X105408320Y-100920273D01*
X105300147Y-101181426D01*
X105245000Y-101458665D01*
X105245000Y-101741335D01*
X105300147Y-102018574D01*
X105408320Y-102279727D01*
X105565363Y-102514759D01*
X105765241Y-102714637D01*
X105997759Y-102870000D01*
X105765241Y-103025363D01*
X105565363Y-103225241D01*
X105408320Y-103460273D01*
X105300147Y-103721426D01*
X105245000Y-103998665D01*
X105245000Y-104281335D01*
X105281312Y-104463887D01*
X105043997Y-104701202D01*
X105014999Y-104725000D01*
X104991201Y-104753998D01*
X104991200Y-104753999D01*
X104920025Y-104840725D01*
X104849453Y-104972755D01*
X104819179Y-105072559D01*
X104808398Y-105108102D01*
X104805997Y-105116016D01*
X104791323Y-105265001D01*
X104795000Y-105302333D01*
X104794999Y-117342679D01*
X104791323Y-117380001D01*
X104794999Y-117417323D01*
X104794999Y-117417333D01*
X104805996Y-117528986D01*
X104844057Y-117654457D01*
X104849453Y-117672247D01*
X104920025Y-117804277D01*
X104959870Y-117852827D01*
X105014998Y-117920002D01*
X105044001Y-117943804D01*
X105565400Y-118465204D01*
X105565363Y-118465241D01*
X105408320Y-118700273D01*
X105300147Y-118961426D01*
X105245000Y-119238665D01*
X105245000Y-119521335D01*
X105300147Y-119798574D01*
X105408320Y-120059727D01*
X105565363Y-120294759D01*
X105765241Y-120494637D01*
X106000273Y-120651680D01*
X106261426Y-120759853D01*
X106538665Y-120815000D01*
X106821335Y-120815000D01*
X107098574Y-120759853D01*
X107359727Y-120651680D01*
X107594759Y-120494637D01*
X107794637Y-120294759D01*
X107951680Y-120059727D01*
X108059853Y-119798574D01*
X108115000Y-119521335D01*
X108115000Y-119238665D01*
X108059853Y-118961426D01*
X107961923Y-118725001D01*
X108123790Y-118725001D01*
X115022592Y-125623804D01*
X114803080Y-125728359D01*
X114569731Y-125902412D01*
X114493966Y-125986466D01*
X114469502Y-125905820D01*
X114410537Y-125795506D01*
X114331185Y-125698815D01*
X114234494Y-125619463D01*
X114124180Y-125560498D01*
X114004482Y-125524188D01*
X113880000Y-125511928D01*
X112180000Y-125511928D01*
X112055518Y-125524188D01*
X111935820Y-125560498D01*
X111825506Y-125619463D01*
X111728815Y-125698815D01*
X111649463Y-125795506D01*
X111590498Y-125905820D01*
X111554188Y-126025518D01*
X111541928Y-126150000D01*
X111541928Y-126977127D01*
X111525000Y-126960199D01*
X111525000Y-126898061D01*
X111485226Y-126698102D01*
X111407205Y-126509744D01*
X111293937Y-126340226D01*
X111149774Y-126196063D01*
X110980256Y-126082795D01*
X110791898Y-126004774D01*
X110591939Y-125965000D01*
X110388061Y-125965000D01*
X110188102Y-126004774D01*
X109999744Y-126082795D01*
X109830226Y-126196063D01*
X109686063Y-126340226D01*
X109572795Y-126509744D01*
X109494774Y-126698102D01*
X109455000Y-126898061D01*
X109455000Y-127101939D01*
X109494774Y-127301898D01*
X109572795Y-127490256D01*
X109686063Y-127659774D01*
X109830226Y-127803937D01*
X109999744Y-127917205D01*
X110188102Y-127995226D01*
X110388061Y-128035000D01*
X110450199Y-128035000D01*
X111101201Y-128686003D01*
X111125000Y-128715002D01*
X111240725Y-128809975D01*
X111372754Y-128880547D01*
X111516015Y-128924004D01*
X111627668Y-128935001D01*
X111627677Y-128935001D01*
X111665000Y-128938677D01*
X111702323Y-128935001D01*
X112620200Y-128935001D01*
X113007127Y-129321928D01*
X112180000Y-129321928D01*
X112055518Y-129334188D01*
X111935820Y-129370498D01*
X111825506Y-129429463D01*
X111728815Y-129508815D01*
X111649463Y-129605506D01*
X111590498Y-129715820D01*
X111554188Y-129835518D01*
X111541928Y-129960000D01*
X111541928Y-131660000D01*
X111554188Y-131784482D01*
X111590498Y-131904180D01*
X111649463Y-132014494D01*
X111728815Y-132111185D01*
X111825506Y-132190537D01*
X111935820Y-132249502D01*
X112055518Y-132285812D01*
X112180000Y-132298072D01*
X113634999Y-132298072D01*
X113635000Y-136315394D01*
X104267000Y-126947394D01*
X104267000Y-67358285D01*
X114357031Y-56007000D01*
X119447487Y-56007000D01*
X112485388Y-62969100D01*
G36*
X126581204Y-92096007D02*
G01*
X126604998Y-92125000D01*
X126633991Y-92148794D01*
X126633995Y-92148798D01*
X126682986Y-92189003D01*
X126720723Y-92219973D01*
X126852752Y-92290545D01*
X126888184Y-92301293D01*
X126835000Y-92568665D01*
X126835000Y-92740198D01*
X125495000Y-91400199D01*
X125495000Y-91338061D01*
X125455226Y-91138102D01*
X125377205Y-90949744D01*
X125263937Y-90780226D01*
X125119774Y-90636063D01*
X124950256Y-90522795D01*
X124761898Y-90444774D01*
X124561939Y-90405000D01*
X124358061Y-90405000D01*
X124158102Y-90444774D01*
X123969744Y-90522795D01*
X123800226Y-90636063D01*
X123656063Y-90780226D01*
X123542795Y-90949744D01*
X123464774Y-91138102D01*
X123425000Y-91338061D01*
X123425000Y-91541939D01*
X123464774Y-91741898D01*
X123542795Y-91930256D01*
X123656063Y-92099774D01*
X123800226Y-92243937D01*
X123969744Y-92357205D01*
X124158102Y-92435226D01*
X124358061Y-92475000D01*
X124420199Y-92475000D01*
X126291202Y-94346004D01*
X126315000Y-94375002D01*
X126343998Y-94398800D01*
X126430724Y-94469975D01*
X126547348Y-94532312D01*
X126562754Y-94540547D01*
X126706015Y-94584004D01*
X126817668Y-94595001D01*
X126817678Y-94595001D01*
X126855001Y-94598677D01*
X126892324Y-94595001D01*
X127000007Y-94595001D01*
X126918754Y-94766913D01*
X126878096Y-94900961D01*
X127000085Y-95123000D01*
X128143000Y-95123000D01*
X128143000Y-95103000D01*
X128397000Y-95103000D01*
X128397000Y-95123000D01*
X129539915Y-95123000D01*
X129661904Y-94900961D01*
X129621246Y-94766913D01*
X129539993Y-94595001D01*
X129647677Y-94595001D01*
X129684999Y-94598677D01*
X129722321Y-94595001D01*
X129722332Y-94595001D01*
X129833985Y-94584004D01*
X129977246Y-94540547D01*
X130109275Y-94469975D01*
X130225000Y-94375002D01*
X130248803Y-94345999D01*
X130849802Y-93745000D01*
X130911939Y-93745000D01*
X131111898Y-93705226D01*
X131300256Y-93627205D01*
X131469774Y-93513937D01*
X131613937Y-93369774D01*
X131727205Y-93200256D01*
X131805226Y-93011898D01*
X131845000Y-92811939D01*
X131845000Y-92608061D01*
X131805226Y-92408102D01*
X131779088Y-92344999D01*
X136190912Y-92344999D01*
X136164774Y-92408102D01*
X136125000Y-92608061D01*
X136125000Y-92811939D01*
X136164774Y-93011898D01*
X136242795Y-93200256D01*
X136255987Y-93220000D01*
X135323711Y-93220000D01*
X135279774Y-93176063D01*
X135110256Y-93062795D01*
X134921898Y-92984774D01*
X134721939Y-92945000D01*
X134518061Y-92945000D01*
X134318102Y-92984774D01*
X134129744Y-93062795D01*
X133960226Y-93176063D01*
X133816063Y-93320226D01*
X133702795Y-93489744D01*
X133624774Y-93678102D01*
X133585000Y-93878061D01*
X133585000Y-94081939D01*
X133624774Y-94281898D01*
X133702795Y-94470256D01*
X133816063Y-94639774D01*
X133960226Y-94783937D01*
X134129744Y-94897205D01*
X134318102Y-94975226D01*
X134518061Y-95015000D01*
X134721939Y-95015000D01*
X134921898Y-94975226D01*
X135110256Y-94897205D01*
X135279774Y-94783937D01*
X135323711Y-94740000D01*
X136456289Y-94740000D01*
X136500226Y-94783937D01*
X136669744Y-94897205D01*
X136858102Y-94975226D01*
X137058061Y-95015000D01*
X137261939Y-95015000D01*
X137461898Y-94975226D01*
X137650256Y-94897205D01*
X137819774Y-94783937D01*
X137963937Y-94639774D01*
X137984379Y-94609181D01*
X138227698Y-94852501D01*
X134699777Y-98380423D01*
X134666671Y-98318486D01*
X134422702Y-98246903D01*
X133609605Y-99060000D01*
X133623748Y-99074143D01*
X133444143Y-99253748D01*
X133430000Y-99239605D01*
X132616903Y-100052702D01*
X132688486Y-100296671D01*
X132943996Y-100417571D01*
X133218184Y-100486300D01*
X133297121Y-100490191D01*
X133297121Y-101962319D01*
X130465314Y-99130512D01*
X131989783Y-99130512D01*
X132031213Y-99410130D01*
X132126397Y-99676292D01*
X132193329Y-99801514D01*
X132437298Y-99873097D01*
X133250395Y-99060000D01*
X132437298Y-98246903D01*
X132193329Y-98318486D01*
X132072429Y-98573996D01*
X132003700Y-98848184D01*
X131989783Y-99130512D01*
X130465314Y-99130512D01*
X129883804Y-98549003D01*
X129860001Y-98519999D01*
X129744276Y-98425026D01*
X129708072Y-98405674D01*
X129708072Y-98260000D01*
X129695812Y-98135518D01*
X129675118Y-98067298D01*
X132616903Y-98067298D01*
X133430000Y-98880395D01*
X134243097Y-98067298D01*
X134171514Y-97823329D01*
X133916004Y-97702429D01*
X133641816Y-97633700D01*
X133359488Y-97619783D01*
X133079870Y-97661213D01*
X132813708Y-97756397D01*
X132688486Y-97823329D01*
X132616903Y-98067298D01*
X129675118Y-98067298D01*
X129659502Y-98015820D01*
X129600537Y-97905506D01*
X129521185Y-97808815D01*
X129424494Y-97729463D01*
X129314180Y-97670498D01*
X129194482Y-97634188D01*
X129070000Y-97621928D01*
X127760000Y-97621928D01*
X127760000Y-97223711D01*
X127803937Y-97179774D01*
X127917205Y-97010256D01*
X127995226Y-96821898D01*
X128035000Y-96621939D01*
X128035000Y-96579617D01*
X128143000Y-96520624D01*
X128143000Y-95377000D01*
X128397000Y-95377000D01*
X128397000Y-96520624D01*
X128619040Y-96641909D01*
X128883881Y-96547070D01*
X129125131Y-96402385D01*
X129333519Y-96213414D01*
X129501037Y-95987420D01*
X129621246Y-95733087D01*
X129661904Y-95599039D01*
X129539915Y-95377000D01*
X128397000Y-95377000D01*
X128143000Y-95377000D01*
X127000085Y-95377000D01*
X126940749Y-95485000D01*
X126898061Y-95485000D01*
X126698102Y-95524774D01*
X126509744Y-95602795D01*
X126340226Y-95716063D01*
X126196063Y-95860226D01*
X126082795Y-96029744D01*
X126004774Y-96218102D01*
X125965000Y-96418061D01*
X125965000Y-96621939D01*
X126004774Y-96821898D01*
X126082795Y-97010256D01*
X126196063Y-97179774D01*
X126240001Y-97223712D01*
X126240000Y-97672196D01*
X125550454Y-98361742D01*
X125444775Y-98256063D01*
X125275257Y-98142795D01*
X125086899Y-98064774D01*
X124886940Y-98025000D01*
X124683062Y-98025000D01*
X124483103Y-98064774D01*
X124294745Y-98142795D01*
X124125227Y-98256063D01*
X123981064Y-98400226D01*
X123867796Y-98569744D01*
X123862381Y-98582817D01*
X123355000Y-99090199D01*
X123355000Y-98918665D01*
X123299853Y-98641426D01*
X123191680Y-98380273D01*
X123034637Y-98145241D01*
X122834759Y-97945363D01*
X122599727Y-97788320D01*
X122589135Y-97783933D01*
X122775131Y-97672385D01*
X122983519Y-97483414D01*
X123151037Y-97257420D01*
X123271246Y-97003087D01*
X123311904Y-96869039D01*
X123189915Y-96647000D01*
X122047000Y-96647000D01*
X122047000Y-96667000D01*
X121793000Y-96667000D01*
X121793000Y-96647000D01*
X121773000Y-96647000D01*
X121773000Y-96393000D01*
X121793000Y-96393000D01*
X121793000Y-96373000D01*
X122047000Y-96373000D01*
X122047000Y-96393000D01*
X123189915Y-96393000D01*
X123249251Y-96285000D01*
X123291939Y-96285000D01*
X123491898Y-96245226D01*
X123680256Y-96167205D01*
X123849774Y-96053937D01*
X123993937Y-95909774D01*
X124107205Y-95740256D01*
X124185226Y-95551898D01*
X124225000Y-95351939D01*
X124225000Y-95148061D01*
X124191961Y-94981961D01*
X124358061Y-95015000D01*
X124561939Y-95015000D01*
X124761898Y-94975226D01*
X124950256Y-94897205D01*
X125119774Y-94783937D01*
X125263937Y-94639774D01*
X125377205Y-94470256D01*
X125455226Y-94281898D01*
X125495000Y-94081939D01*
X125495000Y-93878061D01*
X125455226Y-93678102D01*
X125377205Y-93489744D01*
X125263937Y-93320226D01*
X125119774Y-93176063D01*
X124950256Y-93062795D01*
X124761898Y-92984774D01*
X124561939Y-92945000D01*
X124499803Y-92945000D01*
X123318688Y-91763886D01*
X123355000Y-91581335D01*
X123355000Y-91298665D01*
X123299853Y-91021426D01*
X123191680Y-90760273D01*
X123034637Y-90525241D01*
X122834759Y-90325363D01*
X122602241Y-90170000D01*
X122834759Y-90014637D01*
X123034637Y-89814759D01*
X123191680Y-89579727D01*
X123299853Y-89318574D01*
X123355000Y-89041335D01*
X123355000Y-88869802D01*
X126581204Y-92096007D01*
G37*
X126581204Y-92096007D02*
X126604998Y-92125000D01*
X126633991Y-92148794D01*
X126633995Y-92148798D01*
X126682986Y-92189003D01*
X126720723Y-92219973D01*
X126852752Y-92290545D01*
X126888184Y-92301293D01*
X126835000Y-92568665D01*
X126835000Y-92740198D01*
X125495000Y-91400199D01*
X125495000Y-91338061D01*
X125455226Y-91138102D01*
X125377205Y-90949744D01*
X125263937Y-90780226D01*
X125119774Y-90636063D01*
X124950256Y-90522795D01*
X124761898Y-90444774D01*
X124561939Y-90405000D01*
X124358061Y-90405000D01*
X124158102Y-90444774D01*
X123969744Y-90522795D01*
X123800226Y-90636063D01*
X123656063Y-90780226D01*
X123542795Y-90949744D01*
X123464774Y-91138102D01*
X123425000Y-91338061D01*
X123425000Y-91541939D01*
X123464774Y-91741898D01*
X123542795Y-91930256D01*
X123656063Y-92099774D01*
X123800226Y-92243937D01*
X123969744Y-92357205D01*
X124158102Y-92435226D01*
X124358061Y-92475000D01*
X124420199Y-92475000D01*
X126291202Y-94346004D01*
X126315000Y-94375002D01*
X126343998Y-94398800D01*
X126430724Y-94469975D01*
X126547348Y-94532312D01*
X126562754Y-94540547D01*
X126706015Y-94584004D01*
X126817668Y-94595001D01*
X126817678Y-94595001D01*
X126855001Y-94598677D01*
X126892324Y-94595001D01*
X127000007Y-94595001D01*
X126918754Y-94766913D01*
X126878096Y-94900961D01*
X127000085Y-95123000D01*
X128143000Y-95123000D01*
X128143000Y-95103000D01*
X128397000Y-95103000D01*
X128397000Y-95123000D01*
X129539915Y-95123000D01*
X129661904Y-94900961D01*
X129621246Y-94766913D01*
X129539993Y-94595001D01*
X129647677Y-94595001D01*
X129684999Y-94598677D01*
X129722321Y-94595001D01*
X129722332Y-94595001D01*
X129833985Y-94584004D01*
X129977246Y-94540547D01*
X130109275Y-94469975D01*
X130225000Y-94375002D01*
X130248803Y-94345999D01*
X130849802Y-93745000D01*
X130911939Y-93745000D01*
X131111898Y-93705226D01*
X131300256Y-93627205D01*
X131469774Y-93513937D01*
X131613937Y-93369774D01*
X131727205Y-93200256D01*
X131805226Y-93011898D01*
X131845000Y-92811939D01*
X131845000Y-92608061D01*
X131805226Y-92408102D01*
X131779088Y-92344999D01*
X136190912Y-92344999D01*
X136164774Y-92408102D01*
X136125000Y-92608061D01*
X136125000Y-92811939D01*
X136164774Y-93011898D01*
X136242795Y-93200256D01*
X136255987Y-93220000D01*
X135323711Y-93220000D01*
X135279774Y-93176063D01*
X135110256Y-93062795D01*
X134921898Y-92984774D01*
X134721939Y-92945000D01*
X134518061Y-92945000D01*
X134318102Y-92984774D01*
X134129744Y-93062795D01*
X133960226Y-93176063D01*
X133816063Y-93320226D01*
X133702795Y-93489744D01*
X133624774Y-93678102D01*
X133585000Y-93878061D01*
X133585000Y-94081939D01*
X133624774Y-94281898D01*
X133702795Y-94470256D01*
X133816063Y-94639774D01*
X133960226Y-94783937D01*
X134129744Y-94897205D01*
X134318102Y-94975226D01*
X134518061Y-95015000D01*
X134721939Y-95015000D01*
X134921898Y-94975226D01*
X135110256Y-94897205D01*
X135279774Y-94783937D01*
X135323711Y-94740000D01*
X136456289Y-94740000D01*
X136500226Y-94783937D01*
X136669744Y-94897205D01*
X136858102Y-94975226D01*
X137058061Y-95015000D01*
X137261939Y-95015000D01*
X137461898Y-94975226D01*
X137650256Y-94897205D01*
X137819774Y-94783937D01*
X137963937Y-94639774D01*
X137984379Y-94609181D01*
X138227698Y-94852501D01*
X134699777Y-98380423D01*
X134666671Y-98318486D01*
X134422702Y-98246903D01*
X133609605Y-99060000D01*
X133623748Y-99074143D01*
X133444143Y-99253748D01*
X133430000Y-99239605D01*
X132616903Y-100052702D01*
X132688486Y-100296671D01*
X132943996Y-100417571D01*
X133218184Y-100486300D01*
X133297121Y-100490191D01*
X133297121Y-101962319D01*
X130465314Y-99130512D01*
X131989783Y-99130512D01*
X132031213Y-99410130D01*
X132126397Y-99676292D01*
X132193329Y-99801514D01*
X132437298Y-99873097D01*
X133250395Y-99060000D01*
X132437298Y-98246903D01*
X132193329Y-98318486D01*
X132072429Y-98573996D01*
X132003700Y-98848184D01*
X131989783Y-99130512D01*
X130465314Y-99130512D01*
X129883804Y-98549003D01*
X129860001Y-98519999D01*
X129744276Y-98425026D01*
X129708072Y-98405674D01*
X129708072Y-98260000D01*
X129695812Y-98135518D01*
X129675118Y-98067298D01*
X132616903Y-98067298D01*
X133430000Y-98880395D01*
X134243097Y-98067298D01*
X134171514Y-97823329D01*
X133916004Y-97702429D01*
X133641816Y-97633700D01*
X133359488Y-97619783D01*
X133079870Y-97661213D01*
X132813708Y-97756397D01*
X132688486Y-97823329D01*
X132616903Y-98067298D01*
X129675118Y-98067298D01*
X129659502Y-98015820D01*
X129600537Y-97905506D01*
X129521185Y-97808815D01*
X129424494Y-97729463D01*
X129314180Y-97670498D01*
X129194482Y-97634188D01*
X129070000Y-97621928D01*
X127760000Y-97621928D01*
X127760000Y-97223711D01*
X127803937Y-97179774D01*
X127917205Y-97010256D01*
X127995226Y-96821898D01*
X128035000Y-96621939D01*
X128035000Y-96579617D01*
X128143000Y-96520624D01*
X128143000Y-95377000D01*
X128397000Y-95377000D01*
X128397000Y-96520624D01*
X128619040Y-96641909D01*
X128883881Y-96547070D01*
X129125131Y-96402385D01*
X129333519Y-96213414D01*
X129501037Y-95987420D01*
X129621246Y-95733087D01*
X129661904Y-95599039D01*
X129539915Y-95377000D01*
X128397000Y-95377000D01*
X128143000Y-95377000D01*
X127000085Y-95377000D01*
X126940749Y-95485000D01*
X126898061Y-95485000D01*
X126698102Y-95524774D01*
X126509744Y-95602795D01*
X126340226Y-95716063D01*
X126196063Y-95860226D01*
X126082795Y-96029744D01*
X126004774Y-96218102D01*
X125965000Y-96418061D01*
X125965000Y-96621939D01*
X126004774Y-96821898D01*
X126082795Y-97010256D01*
X126196063Y-97179774D01*
X126240001Y-97223712D01*
X126240000Y-97672196D01*
X125550454Y-98361742D01*
X125444775Y-98256063D01*
X125275257Y-98142795D01*
X125086899Y-98064774D01*
X124886940Y-98025000D01*
X124683062Y-98025000D01*
X124483103Y-98064774D01*
X124294745Y-98142795D01*
X124125227Y-98256063D01*
X123981064Y-98400226D01*
X123867796Y-98569744D01*
X123862381Y-98582817D01*
X123355000Y-99090199D01*
X123355000Y-98918665D01*
X123299853Y-98641426D01*
X123191680Y-98380273D01*
X123034637Y-98145241D01*
X122834759Y-97945363D01*
X122599727Y-97788320D01*
X122589135Y-97783933D01*
X122775131Y-97672385D01*
X122983519Y-97483414D01*
X123151037Y-97257420D01*
X123271246Y-97003087D01*
X123311904Y-96869039D01*
X123189915Y-96647000D01*
X122047000Y-96647000D01*
X122047000Y-96667000D01*
X121793000Y-96667000D01*
X121793000Y-96647000D01*
X121773000Y-96647000D01*
X121773000Y-96393000D01*
X121793000Y-96393000D01*
X121793000Y-96373000D01*
X122047000Y-96373000D01*
X122047000Y-96393000D01*
X123189915Y-96393000D01*
X123249251Y-96285000D01*
X123291939Y-96285000D01*
X123491898Y-96245226D01*
X123680256Y-96167205D01*
X123849774Y-96053937D01*
X123993937Y-95909774D01*
X124107205Y-95740256D01*
X124185226Y-95551898D01*
X124225000Y-95351939D01*
X124225000Y-95148061D01*
X124191961Y-94981961D01*
X124358061Y-95015000D01*
X124561939Y-95015000D01*
X124761898Y-94975226D01*
X124950256Y-94897205D01*
X125119774Y-94783937D01*
X125263937Y-94639774D01*
X125377205Y-94470256D01*
X125455226Y-94281898D01*
X125495000Y-94081939D01*
X125495000Y-93878061D01*
X125455226Y-93678102D01*
X125377205Y-93489744D01*
X125263937Y-93320226D01*
X125119774Y-93176063D01*
X124950256Y-93062795D01*
X124761898Y-92984774D01*
X124561939Y-92945000D01*
X124499803Y-92945000D01*
X123318688Y-91763886D01*
X123355000Y-91581335D01*
X123355000Y-91298665D01*
X123299853Y-91021426D01*
X123191680Y-90760273D01*
X123034637Y-90525241D01*
X122834759Y-90325363D01*
X122602241Y-90170000D01*
X122834759Y-90014637D01*
X123034637Y-89814759D01*
X123191680Y-89579727D01*
X123299853Y-89318574D01*
X123355000Y-89041335D01*
X123355000Y-88869802D01*
X126581204Y-92096007D01*
G36*
X118265363Y-94894759D02*
G01*
X118465241Y-95094637D01*
X118697759Y-95250000D01*
X118465241Y-95405363D01*
X118265363Y-95605241D01*
X118108320Y-95840273D01*
X118000147Y-96101426D01*
X117945000Y-96378665D01*
X117945000Y-96661335D01*
X118000147Y-96938574D01*
X118108320Y-97199727D01*
X118265363Y-97434759D01*
X118465241Y-97634637D01*
X118700273Y-97791680D01*
X118961426Y-97899853D01*
X119238665Y-97955000D01*
X119521335Y-97955000D01*
X119798574Y-97899853D01*
X120059727Y-97791680D01*
X120294759Y-97634637D01*
X120494637Y-97434759D01*
X120651680Y-97199727D01*
X120656357Y-97188435D01*
X120688963Y-97257420D01*
X120856481Y-97483414D01*
X121064869Y-97672385D01*
X121250865Y-97783933D01*
X121240273Y-97788320D01*
X121005241Y-97945363D01*
X120805363Y-98145241D01*
X120648320Y-98380273D01*
X120540147Y-98641426D01*
X120485000Y-98918665D01*
X120485000Y-99201335D01*
X120529491Y-99425001D01*
X119759322Y-99425001D01*
X119721997Y-99421325D01*
X119684672Y-99425001D01*
X119684664Y-99425001D01*
X119573011Y-99435998D01*
X119429750Y-99479455D01*
X119297721Y-99550027D01*
X119181996Y-99645000D01*
X119158198Y-99673998D01*
X117782292Y-101049905D01*
X117709007Y-100940226D01*
X117564844Y-100796063D01*
X117395326Y-100682795D01*
X117206968Y-100604774D01*
X117007009Y-100565000D01*
X116803131Y-100565000D01*
X116603172Y-100604774D01*
X116414814Y-100682795D01*
X116245296Y-100796063D01*
X116201359Y-100840000D01*
X107898043Y-100840000D01*
X107794637Y-100685241D01*
X107594759Y-100485363D01*
X107362241Y-100330000D01*
X107594759Y-100174637D01*
X107794637Y-99974759D01*
X107951680Y-99739727D01*
X108059853Y-99478574D01*
X108115000Y-99201335D01*
X108115000Y-98918665D01*
X108059853Y-98641426D01*
X107951680Y-98380273D01*
X107794637Y-98145241D01*
X107594759Y-97945363D01*
X107359727Y-97788320D01*
X107349135Y-97783933D01*
X107535131Y-97672385D01*
X107743519Y-97483414D01*
X107911037Y-97257420D01*
X107943643Y-97188435D01*
X107948320Y-97199727D01*
X108105363Y-97434759D01*
X108305241Y-97634637D01*
X108540273Y-97791680D01*
X108801426Y-97899853D01*
X109078665Y-97955000D01*
X109361335Y-97955000D01*
X109638574Y-97899853D01*
X109899727Y-97791680D01*
X110134759Y-97634637D01*
X110334637Y-97434759D01*
X110491680Y-97199727D01*
X110599853Y-96938574D01*
X110655000Y-96661335D01*
X110655000Y-96489803D01*
X110725000Y-96559803D01*
X110725000Y-96621939D01*
X110764774Y-96821898D01*
X110842795Y-97010256D01*
X110956063Y-97179774D01*
X111100226Y-97323937D01*
X111130819Y-97344379D01*
X110450198Y-98025000D01*
X110388061Y-98025000D01*
X110188102Y-98064774D01*
X109999744Y-98142795D01*
X109830226Y-98256063D01*
X109686063Y-98400226D01*
X109572795Y-98569744D01*
X109494774Y-98758102D01*
X109455000Y-98958061D01*
X109455000Y-99161939D01*
X109494774Y-99361898D01*
X109572795Y-99550256D01*
X109686063Y-99719774D01*
X109830226Y-99863937D01*
X109999744Y-99977205D01*
X110188102Y-100055226D01*
X110388061Y-100095000D01*
X110591939Y-100095000D01*
X110791898Y-100055226D01*
X110980256Y-99977205D01*
X111149774Y-99863937D01*
X111293937Y-99719774D01*
X111407205Y-99550256D01*
X111485226Y-99361898D01*
X111525000Y-99161939D01*
X111525000Y-99099802D01*
X113048800Y-97576003D01*
X113048807Y-97575994D01*
X115884802Y-94740000D01*
X118161957Y-94740000D01*
X118265363Y-94894759D01*
G37*
X118265363Y-94894759D02*
X118465241Y-95094637D01*
X118697759Y-95250000D01*
X118465241Y-95405363D01*
X118265363Y-95605241D01*
X118108320Y-95840273D01*
X118000147Y-96101426D01*
X117945000Y-96378665D01*
X117945000Y-96661335D01*
X118000147Y-96938574D01*
X118108320Y-97199727D01*
X118265363Y-97434759D01*
X118465241Y-97634637D01*
X118700273Y-97791680D01*
X118961426Y-97899853D01*
X119238665Y-97955000D01*
X119521335Y-97955000D01*
X119798574Y-97899853D01*
X120059727Y-97791680D01*
X120294759Y-97634637D01*
X120494637Y-97434759D01*
X120651680Y-97199727D01*
X120656357Y-97188435D01*
X120688963Y-97257420D01*
X120856481Y-97483414D01*
X121064869Y-97672385D01*
X121250865Y-97783933D01*
X121240273Y-97788320D01*
X121005241Y-97945363D01*
X120805363Y-98145241D01*
X120648320Y-98380273D01*
X120540147Y-98641426D01*
X120485000Y-98918665D01*
X120485000Y-99201335D01*
X120529491Y-99425001D01*
X119759322Y-99425001D01*
X119721997Y-99421325D01*
X119684672Y-99425001D01*
X119684664Y-99425001D01*
X119573011Y-99435998D01*
X119429750Y-99479455D01*
X119297721Y-99550027D01*
X119181996Y-99645000D01*
X119158198Y-99673998D01*
X117782292Y-101049905D01*
X117709007Y-100940226D01*
X117564844Y-100796063D01*
X117395326Y-100682795D01*
X117206968Y-100604774D01*
X117007009Y-100565000D01*
X116803131Y-100565000D01*
X116603172Y-100604774D01*
X116414814Y-100682795D01*
X116245296Y-100796063D01*
X116201359Y-100840000D01*
X107898043Y-100840000D01*
X107794637Y-100685241D01*
X107594759Y-100485363D01*
X107362241Y-100330000D01*
X107594759Y-100174637D01*
X107794637Y-99974759D01*
X107951680Y-99739727D01*
X108059853Y-99478574D01*
X108115000Y-99201335D01*
X108115000Y-98918665D01*
X108059853Y-98641426D01*
X107951680Y-98380273D01*
X107794637Y-98145241D01*
X107594759Y-97945363D01*
X107359727Y-97788320D01*
X107349135Y-97783933D01*
X107535131Y-97672385D01*
X107743519Y-97483414D01*
X107911037Y-97257420D01*
X107943643Y-97188435D01*
X107948320Y-97199727D01*
X108105363Y-97434759D01*
X108305241Y-97634637D01*
X108540273Y-97791680D01*
X108801426Y-97899853D01*
X109078665Y-97955000D01*
X109361335Y-97955000D01*
X109638574Y-97899853D01*
X109899727Y-97791680D01*
X110134759Y-97634637D01*
X110334637Y-97434759D01*
X110491680Y-97199727D01*
X110599853Y-96938574D01*
X110655000Y-96661335D01*
X110655000Y-96489803D01*
X110725000Y-96559803D01*
X110725000Y-96621939D01*
X110764774Y-96821898D01*
X110842795Y-97010256D01*
X110956063Y-97179774D01*
X111100226Y-97323937D01*
X111130819Y-97344379D01*
X110450198Y-98025000D01*
X110388061Y-98025000D01*
X110188102Y-98064774D01*
X109999744Y-98142795D01*
X109830226Y-98256063D01*
X109686063Y-98400226D01*
X109572795Y-98569744D01*
X109494774Y-98758102D01*
X109455000Y-98958061D01*
X109455000Y-99161939D01*
X109494774Y-99361898D01*
X109572795Y-99550256D01*
X109686063Y-99719774D01*
X109830226Y-99863937D01*
X109999744Y-99977205D01*
X110188102Y-100055226D01*
X110388061Y-100095000D01*
X110591939Y-100095000D01*
X110791898Y-100055226D01*
X110980256Y-99977205D01*
X111149774Y-99863937D01*
X111293937Y-99719774D01*
X111407205Y-99550256D01*
X111485226Y-99361898D01*
X111525000Y-99161939D01*
X111525000Y-99099802D01*
X113048800Y-97576003D01*
X113048807Y-97575994D01*
X115884802Y-94740000D01*
X118161957Y-94740000D01*
X118265363Y-94894759D01*
G36*
X132321023Y-56220630D02*
G01*
X132437296Y-56336903D01*
X132193329Y-56408486D01*
X132072429Y-56663996D01*
X132003700Y-56938184D01*
X131989783Y-57220512D01*
X132031213Y-57500130D01*
X132126397Y-57766292D01*
X132193329Y-57891514D01*
X132437298Y-57963097D01*
X133250395Y-57150000D01*
X133236253Y-57135858D01*
X133415858Y-56956253D01*
X133430000Y-56970395D01*
X133444143Y-56956253D01*
X133623748Y-57135858D01*
X133609605Y-57150000D01*
X134422702Y-57963097D01*
X134666671Y-57891514D01*
X134787571Y-57636004D01*
X134856300Y-57361816D01*
X134870217Y-57079488D01*
X134828787Y-56799870D01*
X134733603Y-56533708D01*
X134666671Y-56408486D01*
X134422704Y-56336903D01*
X134538977Y-56220630D01*
X134458337Y-56139990D01*
X136274478Y-56139990D01*
X137019580Y-56885093D01*
X136995000Y-57008665D01*
X136995000Y-57291335D01*
X137050147Y-57568574D01*
X137158320Y-57829727D01*
X137315363Y-58064759D01*
X137515241Y-58264637D01*
X137750273Y-58421680D01*
X138011426Y-58529853D01*
X138288665Y-58585000D01*
X138571335Y-58585000D01*
X138848574Y-58529853D01*
X139109727Y-58421680D01*
X139344759Y-58264637D01*
X139544637Y-58064759D01*
X139614635Y-57960000D01*
X142325365Y-57960000D01*
X142395363Y-58064759D01*
X142395400Y-58064796D01*
X141873997Y-58586200D01*
X141844999Y-58609998D01*
X141821201Y-58638996D01*
X141821200Y-58638997D01*
X141750025Y-58725723D01*
X141679453Y-58857753D01*
X141663722Y-58909614D01*
X141639558Y-58989276D01*
X141635997Y-59001014D01*
X141621323Y-59149999D01*
X141625000Y-59187331D01*
X141625000Y-62692873D01*
X141460256Y-62582795D01*
X141271898Y-62504774D01*
X141071939Y-62465000D01*
X140868061Y-62465000D01*
X140668102Y-62504774D01*
X140479744Y-62582795D01*
X140310226Y-62696063D01*
X140166063Y-62840226D01*
X140052795Y-63009744D01*
X139974774Y-63198102D01*
X139935000Y-63398061D01*
X139935000Y-63601939D01*
X139974774Y-63801898D01*
X140052795Y-63990256D01*
X140166063Y-64159774D01*
X140210000Y-64203711D01*
X140210001Y-66606288D01*
X140166063Y-66650226D01*
X140052795Y-66819744D01*
X139974774Y-67008102D01*
X139935000Y-67208061D01*
X139935000Y-67411939D01*
X139974774Y-67611898D01*
X140052795Y-67800256D01*
X140166063Y-67969774D01*
X140310226Y-68113937D01*
X140479744Y-68227205D01*
X140668102Y-68305226D01*
X140868061Y-68345000D01*
X141071939Y-68345000D01*
X141271898Y-68305226D01*
X141460256Y-68227205D01*
X141629774Y-68113937D01*
X141661302Y-68082409D01*
X141673109Y-68121333D01*
X141679453Y-68142247D01*
X141750025Y-68274277D01*
X141777482Y-68307733D01*
X141844998Y-68390002D01*
X141874001Y-68413804D01*
X142395400Y-68935204D01*
X142395363Y-68935241D01*
X142238320Y-69170273D01*
X142130147Y-69431426D01*
X142075000Y-69708665D01*
X142075000Y-69991335D01*
X142111312Y-70173886D01*
X141925199Y-70360000D01*
X129611983Y-70360000D01*
X129649853Y-70268574D01*
X129705000Y-69991335D01*
X129705000Y-69708665D01*
X129649853Y-69431426D01*
X129541680Y-69170273D01*
X129384637Y-68935241D01*
X129184759Y-68735363D01*
X128952241Y-68580000D01*
X129184759Y-68424637D01*
X129384637Y-68224759D01*
X129541680Y-67989727D01*
X129649853Y-67728574D01*
X129705000Y-67451335D01*
X129705000Y-67168665D01*
X129649853Y-66891426D01*
X129541680Y-66630273D01*
X129384637Y-66395241D01*
X129184759Y-66195363D01*
X128952241Y-66040000D01*
X129184759Y-65884637D01*
X129384637Y-65684759D01*
X129541680Y-65449727D01*
X129649853Y-65188574D01*
X129705000Y-64911335D01*
X129705000Y-64628665D01*
X129649853Y-64351426D01*
X129541680Y-64090273D01*
X129384637Y-63855241D01*
X129184759Y-63655363D01*
X128952241Y-63500000D01*
X129184759Y-63344637D01*
X129384637Y-63144759D01*
X129541680Y-62909727D01*
X129649853Y-62648574D01*
X129705000Y-62371335D01*
X129705000Y-62088665D01*
X129649853Y-61811426D01*
X129541680Y-61550273D01*
X129384637Y-61315241D01*
X129184759Y-61115363D01*
X128952241Y-60960000D01*
X129184759Y-60804637D01*
X129384637Y-60604759D01*
X129541680Y-60369727D01*
X129649853Y-60108574D01*
X129705000Y-59831335D01*
X129705000Y-59548665D01*
X129649853Y-59271426D01*
X129541680Y-59010273D01*
X129384637Y-58775241D01*
X129186039Y-58576643D01*
X129194482Y-58575812D01*
X129314180Y-58539502D01*
X129424494Y-58480537D01*
X129521185Y-58401185D01*
X129600537Y-58304494D01*
X129659502Y-58194180D01*
X129675117Y-58142702D01*
X132616903Y-58142702D01*
X132688486Y-58386671D01*
X132943996Y-58507571D01*
X133218184Y-58576300D01*
X133500512Y-58590217D01*
X133780130Y-58548787D01*
X134046292Y-58453603D01*
X134171514Y-58386671D01*
X134243097Y-58142702D01*
X133430000Y-57329605D01*
X132616903Y-58142702D01*
X129675117Y-58142702D01*
X129695812Y-58074482D01*
X129708072Y-57950000D01*
X129708072Y-56350000D01*
X129695812Y-56225518D01*
X129669867Y-56139990D01*
X132401663Y-56139990D01*
X132321023Y-56220630D01*
G37*
X132321023Y-56220630D02*
X132437296Y-56336903D01*
X132193329Y-56408486D01*
X132072429Y-56663996D01*
X132003700Y-56938184D01*
X131989783Y-57220512D01*
X132031213Y-57500130D01*
X132126397Y-57766292D01*
X132193329Y-57891514D01*
X132437298Y-57963097D01*
X133250395Y-57150000D01*
X133236253Y-57135858D01*
X133415858Y-56956253D01*
X133430000Y-56970395D01*
X133444143Y-56956253D01*
X133623748Y-57135858D01*
X133609605Y-57150000D01*
X134422702Y-57963097D01*
X134666671Y-57891514D01*
X134787571Y-57636004D01*
X134856300Y-57361816D01*
X134870217Y-57079488D01*
X134828787Y-56799870D01*
X134733603Y-56533708D01*
X134666671Y-56408486D01*
X134422704Y-56336903D01*
X134538977Y-56220630D01*
X134458337Y-56139990D01*
X136274478Y-56139990D01*
X137019580Y-56885093D01*
X136995000Y-57008665D01*
X136995000Y-57291335D01*
X137050147Y-57568574D01*
X137158320Y-57829727D01*
X137315363Y-58064759D01*
X137515241Y-58264637D01*
X137750273Y-58421680D01*
X138011426Y-58529853D01*
X138288665Y-58585000D01*
X138571335Y-58585000D01*
X138848574Y-58529853D01*
X139109727Y-58421680D01*
X139344759Y-58264637D01*
X139544637Y-58064759D01*
X139614635Y-57960000D01*
X142325365Y-57960000D01*
X142395363Y-58064759D01*
X142395400Y-58064796D01*
X141873997Y-58586200D01*
X141844999Y-58609998D01*
X141821201Y-58638996D01*
X141821200Y-58638997D01*
X141750025Y-58725723D01*
X141679453Y-58857753D01*
X141663722Y-58909614D01*
X141639558Y-58989276D01*
X141635997Y-59001014D01*
X141621323Y-59149999D01*
X141625000Y-59187331D01*
X141625000Y-62692873D01*
X141460256Y-62582795D01*
X141271898Y-62504774D01*
X141071939Y-62465000D01*
X140868061Y-62465000D01*
X140668102Y-62504774D01*
X140479744Y-62582795D01*
X140310226Y-62696063D01*
X140166063Y-62840226D01*
X140052795Y-63009744D01*
X139974774Y-63198102D01*
X139935000Y-63398061D01*
X139935000Y-63601939D01*
X139974774Y-63801898D01*
X140052795Y-63990256D01*
X140166063Y-64159774D01*
X140210000Y-64203711D01*
X140210001Y-66606288D01*
X140166063Y-66650226D01*
X140052795Y-66819744D01*
X139974774Y-67008102D01*
X139935000Y-67208061D01*
X139935000Y-67411939D01*
X139974774Y-67611898D01*
X140052795Y-67800256D01*
X140166063Y-67969774D01*
X140310226Y-68113937D01*
X140479744Y-68227205D01*
X140668102Y-68305226D01*
X140868061Y-68345000D01*
X141071939Y-68345000D01*
X141271898Y-68305226D01*
X141460256Y-68227205D01*
X141629774Y-68113937D01*
X141661302Y-68082409D01*
X141673109Y-68121333D01*
X141679453Y-68142247D01*
X141750025Y-68274277D01*
X141777482Y-68307733D01*
X141844998Y-68390002D01*
X141874001Y-68413804D01*
X142395400Y-68935204D01*
X142395363Y-68935241D01*
X142238320Y-69170273D01*
X142130147Y-69431426D01*
X142075000Y-69708665D01*
X142075000Y-69991335D01*
X142111312Y-70173886D01*
X141925199Y-70360000D01*
X129611983Y-70360000D01*
X129649853Y-70268574D01*
X129705000Y-69991335D01*
X129705000Y-69708665D01*
X129649853Y-69431426D01*
X129541680Y-69170273D01*
X129384637Y-68935241D01*
X129184759Y-68735363D01*
X128952241Y-68580000D01*
X129184759Y-68424637D01*
X129384637Y-68224759D01*
X129541680Y-67989727D01*
X129649853Y-67728574D01*
X129705000Y-67451335D01*
X129705000Y-67168665D01*
X129649853Y-66891426D01*
X129541680Y-66630273D01*
X129384637Y-66395241D01*
X129184759Y-66195363D01*
X128952241Y-66040000D01*
X129184759Y-65884637D01*
X129384637Y-65684759D01*
X129541680Y-65449727D01*
X129649853Y-65188574D01*
X129705000Y-64911335D01*
X129705000Y-64628665D01*
X129649853Y-64351426D01*
X129541680Y-64090273D01*
X129384637Y-63855241D01*
X129184759Y-63655363D01*
X128952241Y-63500000D01*
X129184759Y-63344637D01*
X129384637Y-63144759D01*
X129541680Y-62909727D01*
X129649853Y-62648574D01*
X129705000Y-62371335D01*
X129705000Y-62088665D01*
X129649853Y-61811426D01*
X129541680Y-61550273D01*
X129384637Y-61315241D01*
X129184759Y-61115363D01*
X128952241Y-60960000D01*
X129184759Y-60804637D01*
X129384637Y-60604759D01*
X129541680Y-60369727D01*
X129649853Y-60108574D01*
X129705000Y-59831335D01*
X129705000Y-59548665D01*
X129649853Y-59271426D01*
X129541680Y-59010273D01*
X129384637Y-58775241D01*
X129186039Y-58576643D01*
X129194482Y-58575812D01*
X129314180Y-58539502D01*
X129424494Y-58480537D01*
X129521185Y-58401185D01*
X129600537Y-58304494D01*
X129659502Y-58194180D01*
X129675117Y-58142702D01*
X132616903Y-58142702D01*
X132688486Y-58386671D01*
X132943996Y-58507571D01*
X133218184Y-58576300D01*
X133500512Y-58590217D01*
X133780130Y-58548787D01*
X134046292Y-58453603D01*
X134171514Y-58386671D01*
X134243097Y-58142702D01*
X133430000Y-57329605D01*
X132616903Y-58142702D01*
X129675117Y-58142702D01*
X129695812Y-58074482D01*
X129708072Y-57950000D01*
X129708072Y-56350000D01*
X129695812Y-56225518D01*
X129669867Y-56139990D01*
X132401663Y-56139990D01*
X132321023Y-56220630D01*
G36*
X126844188Y-56225518D02*
G01*
X126831928Y-56350000D01*
X126831928Y-57950000D01*
X126844188Y-58074482D01*
X126880498Y-58194180D01*
X126939463Y-58304494D01*
X127018815Y-58401185D01*
X127115506Y-58480537D01*
X127225820Y-58539502D01*
X127345518Y-58575812D01*
X127353961Y-58576643D01*
X127155363Y-58775241D01*
X126998320Y-59010273D01*
X126890147Y-59271426D01*
X126835000Y-59548665D01*
X126835000Y-59831335D01*
X126890147Y-60108574D01*
X126998320Y-60369727D01*
X127155363Y-60604759D01*
X127355241Y-60804637D01*
X127587759Y-60960000D01*
X127355241Y-61115363D01*
X127155363Y-61315241D01*
X126998320Y-61550273D01*
X126890147Y-61811426D01*
X126835000Y-62088665D01*
X126835000Y-62371335D01*
X126890147Y-62648574D01*
X126998320Y-62909727D01*
X127155363Y-63144759D01*
X127355241Y-63344637D01*
X127587759Y-63500000D01*
X127355241Y-63655363D01*
X127155363Y-63855241D01*
X126998320Y-64090273D01*
X126890147Y-64351426D01*
X126835000Y-64628665D01*
X126835000Y-64911335D01*
X126890147Y-65188574D01*
X126998320Y-65449727D01*
X127155363Y-65684759D01*
X127355241Y-65884637D01*
X127587759Y-66040000D01*
X127355241Y-66195363D01*
X127155363Y-66395241D01*
X127051957Y-66550000D01*
X115607322Y-66550000D01*
X115569999Y-66546324D01*
X115532676Y-66550000D01*
X115532667Y-66550000D01*
X115421014Y-66560997D01*
X115277753Y-66604454D01*
X115145723Y-66675026D01*
X115062083Y-66743668D01*
X115029999Y-66769999D01*
X115006201Y-66798997D01*
X113840000Y-67965198D01*
X113840000Y-66258072D01*
X113880000Y-66258072D01*
X114004482Y-66245812D01*
X114124180Y-66209502D01*
X114234494Y-66150537D01*
X114331185Y-66071185D01*
X114410537Y-65974494D01*
X114469502Y-65864180D01*
X114493966Y-65783534D01*
X114569731Y-65867588D01*
X114803080Y-66041641D01*
X115065901Y-66166825D01*
X115213110Y-66211476D01*
X115443000Y-66090155D01*
X115443000Y-64897000D01*
X115697000Y-64897000D01*
X115697000Y-66090155D01*
X115926890Y-66211476D01*
X116074099Y-66166825D01*
X116336920Y-66041641D01*
X116570269Y-65867588D01*
X116765178Y-65651355D01*
X116914157Y-65401252D01*
X117011481Y-65126891D01*
X116890814Y-64897000D01*
X115697000Y-64897000D01*
X115443000Y-64897000D01*
X115423000Y-64897000D01*
X115423000Y-64643000D01*
X115443000Y-64643000D01*
X115443000Y-63449845D01*
X115697000Y-63449845D01*
X115697000Y-64643000D01*
X116890814Y-64643000D01*
X117011481Y-64413109D01*
X116914157Y-64138748D01*
X116765178Y-63888645D01*
X116570269Y-63672412D01*
X116336920Y-63498359D01*
X116074099Y-63373175D01*
X115926890Y-63328524D01*
X115697000Y-63449845D01*
X115443000Y-63449845D01*
X115213110Y-63328524D01*
X115065901Y-63373175D01*
X114803080Y-63498359D01*
X114569731Y-63672412D01*
X114493966Y-63756466D01*
X114469502Y-63675820D01*
X114410537Y-63565506D01*
X114331185Y-63468815D01*
X114301258Y-63444254D01*
X121605523Y-56139990D01*
X126870133Y-56139990D01*
X126844188Y-56225518D01*
G37*
X126844188Y-56225518D02*
X126831928Y-56350000D01*
X126831928Y-57950000D01*
X126844188Y-58074482D01*
X126880498Y-58194180D01*
X126939463Y-58304494D01*
X127018815Y-58401185D01*
X127115506Y-58480537D01*
X127225820Y-58539502D01*
X127345518Y-58575812D01*
X127353961Y-58576643D01*
X127155363Y-58775241D01*
X126998320Y-59010273D01*
X126890147Y-59271426D01*
X126835000Y-59548665D01*
X126835000Y-59831335D01*
X126890147Y-60108574D01*
X126998320Y-60369727D01*
X127155363Y-60604759D01*
X127355241Y-60804637D01*
X127587759Y-60960000D01*
X127355241Y-61115363D01*
X127155363Y-61315241D01*
X126998320Y-61550273D01*
X126890147Y-61811426D01*
X126835000Y-62088665D01*
X126835000Y-62371335D01*
X126890147Y-62648574D01*
X126998320Y-62909727D01*
X127155363Y-63144759D01*
X127355241Y-63344637D01*
X127587759Y-63500000D01*
X127355241Y-63655363D01*
X127155363Y-63855241D01*
X126998320Y-64090273D01*
X126890147Y-64351426D01*
X126835000Y-64628665D01*
X126835000Y-64911335D01*
X126890147Y-65188574D01*
X126998320Y-65449727D01*
X127155363Y-65684759D01*
X127355241Y-65884637D01*
X127587759Y-66040000D01*
X127355241Y-66195363D01*
X127155363Y-66395241D01*
X127051957Y-66550000D01*
X115607322Y-66550000D01*
X115569999Y-66546324D01*
X115532676Y-66550000D01*
X115532667Y-66550000D01*
X115421014Y-66560997D01*
X115277753Y-66604454D01*
X115145723Y-66675026D01*
X115062083Y-66743668D01*
X115029999Y-66769999D01*
X115006201Y-66798997D01*
X113840000Y-67965198D01*
X113840000Y-66258072D01*
X113880000Y-66258072D01*
X114004482Y-66245812D01*
X114124180Y-66209502D01*
X114234494Y-66150537D01*
X114331185Y-66071185D01*
X114410537Y-65974494D01*
X114469502Y-65864180D01*
X114493966Y-65783534D01*
X114569731Y-65867588D01*
X114803080Y-66041641D01*
X115065901Y-66166825D01*
X115213110Y-66211476D01*
X115443000Y-66090155D01*
X115443000Y-64897000D01*
X115697000Y-64897000D01*
X115697000Y-66090155D01*
X115926890Y-66211476D01*
X116074099Y-66166825D01*
X116336920Y-66041641D01*
X116570269Y-65867588D01*
X116765178Y-65651355D01*
X116914157Y-65401252D01*
X117011481Y-65126891D01*
X116890814Y-64897000D01*
X115697000Y-64897000D01*
X115443000Y-64897000D01*
X115423000Y-64897000D01*
X115423000Y-64643000D01*
X115443000Y-64643000D01*
X115443000Y-63449845D01*
X115697000Y-63449845D01*
X115697000Y-64643000D01*
X116890814Y-64643000D01*
X117011481Y-64413109D01*
X116914157Y-64138748D01*
X116765178Y-63888645D01*
X116570269Y-63672412D01*
X116336920Y-63498359D01*
X116074099Y-63373175D01*
X115926890Y-63328524D01*
X115697000Y-63449845D01*
X115443000Y-63449845D01*
X115213110Y-63328524D01*
X115065901Y-63373175D01*
X114803080Y-63498359D01*
X114569731Y-63672412D01*
X114493966Y-63756466D01*
X114469502Y-63675820D01*
X114410537Y-63565506D01*
X114331185Y-63468815D01*
X114301258Y-63444254D01*
X121605523Y-56139990D01*
X126870133Y-56139990D01*
X126844188Y-56225518D01*
M02*
