G04 #@! TF.GenerationSoftware,KiCad,Pcbnew,5.1.5+dfsg1-2*
G04 #@! TF.CreationDate,2020-01-25T11:12:06+01:00*
G04 #@! TF.ProjectId,A500r5_eprom_adapter,41353030-7235-45f6-9570-726f6d5f6164,rev?*
G04 #@! TF.SameCoordinates,Original*
G04 #@! TF.FileFunction,Legend,Bot*
G04 #@! TF.FilePolarity,Positive*
%FSLAX46Y46*%
G04 Gerber Fmt 4.6, Leading zero omitted, Abs format (unit mm)*
G04 Created by KiCad (PCBNEW 5.1.5+dfsg1-2) date 2020-01-25 11:12:06*
%MOMM*%
%LPD*%
G04 APERTURE LIST*
%ADD10C,0.250000*%
%ADD11C,0.150000*%
%ADD12C,0.120000*%
G04 APERTURE END LIST*
D10*
X133360238Y-65279523D02*
X133265000Y-65374761D01*
X133169761Y-65565238D01*
X133169761Y-66041428D01*
X133265000Y-66231904D01*
X133360238Y-66327142D01*
X133550714Y-66422380D01*
X133741190Y-66422380D01*
X134026904Y-66327142D01*
X135169761Y-65184285D01*
X135169761Y-66422380D01*
X133169761Y-67089047D02*
X133169761Y-68422380D01*
X135169761Y-67565238D01*
X134979285Y-70327142D02*
X135074523Y-70231904D01*
X135169761Y-69946190D01*
X135169761Y-69755714D01*
X135074523Y-69470000D01*
X134884047Y-69279523D01*
X134693571Y-69184285D01*
X134312619Y-69089047D01*
X134026904Y-69089047D01*
X133645952Y-69184285D01*
X133455476Y-69279523D01*
X133265000Y-69470000D01*
X133169761Y-69755714D01*
X133169761Y-69946190D01*
X133265000Y-70231904D01*
X133360238Y-70327142D01*
X133169761Y-71565238D02*
X133169761Y-71755714D01*
X133265000Y-71946190D01*
X133360238Y-72041428D01*
X133550714Y-72136666D01*
X133931666Y-72231904D01*
X134407857Y-72231904D01*
X134788809Y-72136666D01*
X134979285Y-72041428D01*
X135074523Y-71946190D01*
X135169761Y-71755714D01*
X135169761Y-71565238D01*
X135074523Y-71374761D01*
X134979285Y-71279523D01*
X134788809Y-71184285D01*
X134407857Y-71089047D01*
X133931666Y-71089047D01*
X133550714Y-71184285D01*
X133360238Y-71279523D01*
X133265000Y-71374761D01*
X133169761Y-71565238D01*
X133836428Y-73946190D02*
X135169761Y-73946190D01*
X133074523Y-73470000D02*
X134503095Y-72993809D01*
X134503095Y-74231904D01*
X133169761Y-75374761D02*
X133169761Y-75565238D01*
X133265000Y-75755714D01*
X133360238Y-75850952D01*
X133550714Y-75946190D01*
X133931666Y-76041428D01*
X134407857Y-76041428D01*
X134788809Y-75946190D01*
X134979285Y-75850952D01*
X135074523Y-75755714D01*
X135169761Y-75565238D01*
X135169761Y-75374761D01*
X135074523Y-75184285D01*
X134979285Y-75089047D01*
X134788809Y-74993809D01*
X134407857Y-74898571D01*
X133931666Y-74898571D01*
X133550714Y-74993809D01*
X133360238Y-75089047D01*
X133265000Y-75184285D01*
X133169761Y-75374761D01*
X133074523Y-78327142D02*
X135645952Y-76612857D01*
X133360238Y-78898571D02*
X133265000Y-78993809D01*
X133169761Y-79184285D01*
X133169761Y-79660476D01*
X133265000Y-79850952D01*
X133360238Y-79946190D01*
X133550714Y-80041428D01*
X133741190Y-80041428D01*
X134026904Y-79946190D01*
X135169761Y-78803333D01*
X135169761Y-80041428D01*
X133169761Y-80708095D02*
X133169761Y-82041428D01*
X135169761Y-81184285D01*
X134979285Y-83946190D02*
X135074523Y-83850952D01*
X135169761Y-83565238D01*
X135169761Y-83374761D01*
X135074523Y-83089047D01*
X134884047Y-82898571D01*
X134693571Y-82803333D01*
X134312619Y-82708095D01*
X134026904Y-82708095D01*
X133645952Y-82803333D01*
X133455476Y-82898571D01*
X133265000Y-83089047D01*
X133169761Y-83374761D01*
X133169761Y-83565238D01*
X133265000Y-83850952D01*
X133360238Y-83946190D01*
X133169761Y-85184285D02*
X133169761Y-85374761D01*
X133265000Y-85565238D01*
X133360238Y-85660476D01*
X133550714Y-85755714D01*
X133931666Y-85850952D01*
X134407857Y-85850952D01*
X134788809Y-85755714D01*
X134979285Y-85660476D01*
X135074523Y-85565238D01*
X135169761Y-85374761D01*
X135169761Y-85184285D01*
X135074523Y-84993809D01*
X134979285Y-84898571D01*
X134788809Y-84803333D01*
X134407857Y-84708095D01*
X133931666Y-84708095D01*
X133550714Y-84803333D01*
X133360238Y-84898571D01*
X133265000Y-84993809D01*
X133169761Y-85184285D01*
X134026904Y-86993809D02*
X133931666Y-86803333D01*
X133836428Y-86708095D01*
X133645952Y-86612857D01*
X133550714Y-86612857D01*
X133360238Y-86708095D01*
X133265000Y-86803333D01*
X133169761Y-86993809D01*
X133169761Y-87374761D01*
X133265000Y-87565238D01*
X133360238Y-87660476D01*
X133550714Y-87755714D01*
X133645952Y-87755714D01*
X133836428Y-87660476D01*
X133931666Y-87565238D01*
X134026904Y-87374761D01*
X134026904Y-86993809D01*
X134122142Y-86803333D01*
X134217380Y-86708095D01*
X134407857Y-86612857D01*
X134788809Y-86612857D01*
X134979285Y-86708095D01*
X135074523Y-86803333D01*
X135169761Y-86993809D01*
X135169761Y-87374761D01*
X135074523Y-87565238D01*
X134979285Y-87660476D01*
X134788809Y-87755714D01*
X134407857Y-87755714D01*
X134217380Y-87660476D01*
X134122142Y-87565238D01*
X134026904Y-87374761D01*
X133169761Y-88993809D02*
X133169761Y-89184285D01*
X133265000Y-89374761D01*
X133360238Y-89469999D01*
X133550714Y-89565238D01*
X133931666Y-89660476D01*
X134407857Y-89660476D01*
X134788809Y-89565238D01*
X134979285Y-89469999D01*
X135074523Y-89374761D01*
X135169761Y-89184285D01*
X135169761Y-88993809D01*
X135074523Y-88803333D01*
X134979285Y-88708095D01*
X134788809Y-88612857D01*
X134407857Y-88517619D01*
X133931666Y-88517619D01*
X133550714Y-88612857D01*
X133360238Y-88708095D01*
X133265000Y-88803333D01*
X133169761Y-88993809D01*
X138419761Y-71612857D02*
X138419761Y-70660476D01*
X136419761Y-70660476D01*
X136419761Y-72660476D02*
X136419761Y-73041428D01*
X136515000Y-73231904D01*
X136705476Y-73422380D01*
X137086428Y-73517619D01*
X137753095Y-73517619D01*
X138134047Y-73422380D01*
X138324523Y-73231904D01*
X138419761Y-73041428D01*
X138419761Y-72660476D01*
X138324523Y-72470000D01*
X138134047Y-72279523D01*
X137753095Y-72184285D01*
X137086428Y-72184285D01*
X136705476Y-72279523D01*
X136515000Y-72470000D01*
X136419761Y-72660476D01*
X136419761Y-74184285D02*
X138419761Y-74660476D01*
X136991190Y-75041428D01*
X138419761Y-75422380D01*
X136419761Y-75898571D01*
X137372142Y-78850952D02*
X137467380Y-79136666D01*
X137562619Y-79231904D01*
X137753095Y-79327142D01*
X138038809Y-79327142D01*
X138229285Y-79231904D01*
X138324523Y-79136666D01*
X138419761Y-78946190D01*
X138419761Y-78184285D01*
X136419761Y-78184285D01*
X136419761Y-78850952D01*
X136515000Y-79041428D01*
X136610238Y-79136666D01*
X136800714Y-79231904D01*
X136991190Y-79231904D01*
X137181666Y-79136666D01*
X137276904Y-79041428D01*
X137372142Y-78850952D01*
X137372142Y-78184285D01*
X137467380Y-80565238D02*
X138419761Y-80565238D01*
X136419761Y-79898571D02*
X137467380Y-80565238D01*
X136419761Y-81231904D01*
X136419761Y-81612857D02*
X136419761Y-82755714D01*
X138419761Y-82184285D02*
X136419761Y-82184285D01*
X137372142Y-83422380D02*
X137372142Y-84089047D01*
X138419761Y-84374761D02*
X138419761Y-83422380D01*
X136419761Y-83422380D01*
X136419761Y-84374761D01*
X133360238Y-105919523D02*
X133265000Y-106014761D01*
X133169761Y-106205238D01*
X133169761Y-106681428D01*
X133265000Y-106871904D01*
X133360238Y-106967142D01*
X133550714Y-107062380D01*
X133741190Y-107062380D01*
X134026904Y-106967142D01*
X135169761Y-105824285D01*
X135169761Y-107062380D01*
X133169761Y-107729047D02*
X133169761Y-109062380D01*
X135169761Y-108205238D01*
X134979285Y-110967142D02*
X135074523Y-110871904D01*
X135169761Y-110586190D01*
X135169761Y-110395714D01*
X135074523Y-110110000D01*
X134884047Y-109919523D01*
X134693571Y-109824285D01*
X134312619Y-109729047D01*
X134026904Y-109729047D01*
X133645952Y-109824285D01*
X133455476Y-109919523D01*
X133265000Y-110110000D01*
X133169761Y-110395714D01*
X133169761Y-110586190D01*
X133265000Y-110871904D01*
X133360238Y-110967142D01*
X133169761Y-112205238D02*
X133169761Y-112395714D01*
X133265000Y-112586190D01*
X133360238Y-112681428D01*
X133550714Y-112776666D01*
X133931666Y-112871904D01*
X134407857Y-112871904D01*
X134788809Y-112776666D01*
X134979285Y-112681428D01*
X135074523Y-112586190D01*
X135169761Y-112395714D01*
X135169761Y-112205238D01*
X135074523Y-112014761D01*
X134979285Y-111919523D01*
X134788809Y-111824285D01*
X134407857Y-111729047D01*
X133931666Y-111729047D01*
X133550714Y-111824285D01*
X133360238Y-111919523D01*
X133265000Y-112014761D01*
X133169761Y-112205238D01*
X133836428Y-114586190D02*
X135169761Y-114586190D01*
X133074523Y-114110000D02*
X134503095Y-113633809D01*
X134503095Y-114871904D01*
X133169761Y-116014761D02*
X133169761Y-116205238D01*
X133265000Y-116395714D01*
X133360238Y-116490952D01*
X133550714Y-116586190D01*
X133931666Y-116681428D01*
X134407857Y-116681428D01*
X134788809Y-116586190D01*
X134979285Y-116490952D01*
X135074523Y-116395714D01*
X135169761Y-116205238D01*
X135169761Y-116014761D01*
X135074523Y-115824285D01*
X134979285Y-115729047D01*
X134788809Y-115633809D01*
X134407857Y-115538571D01*
X133931666Y-115538571D01*
X133550714Y-115633809D01*
X133360238Y-115729047D01*
X133265000Y-115824285D01*
X133169761Y-116014761D01*
X133074523Y-118967142D02*
X135645952Y-117252857D01*
X133360238Y-119538571D02*
X133265000Y-119633809D01*
X133169761Y-119824285D01*
X133169761Y-120300476D01*
X133265000Y-120490952D01*
X133360238Y-120586190D01*
X133550714Y-120681428D01*
X133741190Y-120681428D01*
X134026904Y-120586190D01*
X135169761Y-119443333D01*
X135169761Y-120681428D01*
X133169761Y-121348095D02*
X133169761Y-122681428D01*
X135169761Y-121824285D01*
X134979285Y-124586190D02*
X135074523Y-124490952D01*
X135169761Y-124205238D01*
X135169761Y-124014761D01*
X135074523Y-123729047D01*
X134884047Y-123538571D01*
X134693571Y-123443333D01*
X134312619Y-123348095D01*
X134026904Y-123348095D01*
X133645952Y-123443333D01*
X133455476Y-123538571D01*
X133265000Y-123729047D01*
X133169761Y-124014761D01*
X133169761Y-124205238D01*
X133265000Y-124490952D01*
X133360238Y-124586190D01*
X133169761Y-125824285D02*
X133169761Y-126014761D01*
X133265000Y-126205238D01*
X133360238Y-126300476D01*
X133550714Y-126395714D01*
X133931666Y-126490952D01*
X134407857Y-126490952D01*
X134788809Y-126395714D01*
X134979285Y-126300476D01*
X135074523Y-126205238D01*
X135169761Y-126014761D01*
X135169761Y-125824285D01*
X135074523Y-125633809D01*
X134979285Y-125538571D01*
X134788809Y-125443333D01*
X134407857Y-125348095D01*
X133931666Y-125348095D01*
X133550714Y-125443333D01*
X133360238Y-125538571D01*
X133265000Y-125633809D01*
X133169761Y-125824285D01*
X134026904Y-127633809D02*
X133931666Y-127443333D01*
X133836428Y-127348095D01*
X133645952Y-127252857D01*
X133550714Y-127252857D01*
X133360238Y-127348095D01*
X133265000Y-127443333D01*
X133169761Y-127633809D01*
X133169761Y-128014761D01*
X133265000Y-128205238D01*
X133360238Y-128300476D01*
X133550714Y-128395714D01*
X133645952Y-128395714D01*
X133836428Y-128300476D01*
X133931666Y-128205238D01*
X134026904Y-128014761D01*
X134026904Y-127633809D01*
X134122142Y-127443333D01*
X134217380Y-127348095D01*
X134407857Y-127252857D01*
X134788809Y-127252857D01*
X134979285Y-127348095D01*
X135074523Y-127443333D01*
X135169761Y-127633809D01*
X135169761Y-128014761D01*
X135074523Y-128205238D01*
X134979285Y-128300476D01*
X134788809Y-128395714D01*
X134407857Y-128395714D01*
X134217380Y-128300476D01*
X134122142Y-128205238D01*
X134026904Y-128014761D01*
X133169761Y-129633809D02*
X133169761Y-129824285D01*
X133265000Y-130014761D01*
X133360238Y-130109999D01*
X133550714Y-130205238D01*
X133931666Y-130300476D01*
X134407857Y-130300476D01*
X134788809Y-130205238D01*
X134979285Y-130109999D01*
X135074523Y-130014761D01*
X135169761Y-129824285D01*
X135169761Y-129633809D01*
X135074523Y-129443333D01*
X134979285Y-129348095D01*
X134788809Y-129252857D01*
X134407857Y-129157619D01*
X133931666Y-129157619D01*
X133550714Y-129252857D01*
X133360238Y-129348095D01*
X133265000Y-129443333D01*
X133169761Y-129633809D01*
X138419761Y-110729047D02*
X136419761Y-110729047D01*
X137372142Y-110729047D02*
X137372142Y-111871904D01*
X138419761Y-111871904D02*
X136419761Y-111871904D01*
X138419761Y-112824285D02*
X136419761Y-112824285D01*
X136515000Y-114824285D02*
X136419761Y-114633809D01*
X136419761Y-114348095D01*
X136515000Y-114062380D01*
X136705476Y-113871904D01*
X136895952Y-113776666D01*
X137276904Y-113681428D01*
X137562619Y-113681428D01*
X137943571Y-113776666D01*
X138134047Y-113871904D01*
X138324523Y-114062380D01*
X138419761Y-114348095D01*
X138419761Y-114538571D01*
X138324523Y-114824285D01*
X138229285Y-114919523D01*
X137562619Y-114919523D01*
X137562619Y-114538571D01*
X138419761Y-115776666D02*
X136419761Y-115776666D01*
X137372142Y-115776666D02*
X137372142Y-116919523D01*
X138419761Y-116919523D02*
X136419761Y-116919523D01*
X137372142Y-120062380D02*
X137467380Y-120348095D01*
X137562619Y-120443333D01*
X137753095Y-120538571D01*
X138038809Y-120538571D01*
X138229285Y-120443333D01*
X138324523Y-120348095D01*
X138419761Y-120157619D01*
X138419761Y-119395714D01*
X136419761Y-119395714D01*
X136419761Y-120062380D01*
X136515000Y-120252857D01*
X136610238Y-120348095D01*
X136800714Y-120443333D01*
X136991190Y-120443333D01*
X137181666Y-120348095D01*
X137276904Y-120252857D01*
X137372142Y-120062380D01*
X137372142Y-119395714D01*
X137467380Y-121776666D02*
X138419761Y-121776666D01*
X136419761Y-121110000D02*
X137467380Y-121776666D01*
X136419761Y-122443333D01*
X136419761Y-122824285D02*
X136419761Y-123967142D01*
X138419761Y-123395714D02*
X136419761Y-123395714D01*
X137372142Y-124633809D02*
X137372142Y-125300476D01*
X138419761Y-125586190D02*
X138419761Y-124633809D01*
X136419761Y-124633809D01*
X136419761Y-125586190D01*
D11*
X113350000Y-85194285D02*
X113350000Y-85908571D01*
X113778571Y-85051428D02*
X112278571Y-85551428D01*
X113778571Y-86051428D01*
X112278571Y-87265714D02*
X112278571Y-86551428D01*
X112992857Y-86480000D01*
X112921428Y-86551428D01*
X112850000Y-86694285D01*
X112850000Y-87051428D01*
X112921428Y-87194285D01*
X112992857Y-87265714D01*
X113135714Y-87337142D01*
X113492857Y-87337142D01*
X113635714Y-87265714D01*
X113707142Y-87194285D01*
X113778571Y-87051428D01*
X113778571Y-86694285D01*
X113707142Y-86551428D01*
X113635714Y-86480000D01*
X112278571Y-88265714D02*
X112278571Y-88408571D01*
X112350000Y-88551428D01*
X112421428Y-88622857D01*
X112564285Y-88694285D01*
X112850000Y-88765714D01*
X113207142Y-88765714D01*
X113492857Y-88694285D01*
X113635714Y-88622857D01*
X113707142Y-88551428D01*
X113778571Y-88408571D01*
X113778571Y-88265714D01*
X113707142Y-88122857D01*
X113635714Y-88051428D01*
X113492857Y-87980000D01*
X113207142Y-87908571D01*
X112850000Y-87908571D01*
X112564285Y-87980000D01*
X112421428Y-88051428D01*
X112350000Y-88122857D01*
X112278571Y-88265714D01*
X112278571Y-89694285D02*
X112278571Y-89837142D01*
X112350000Y-89980000D01*
X112421428Y-90051428D01*
X112564285Y-90122857D01*
X112850000Y-90194285D01*
X113207142Y-90194285D01*
X113492857Y-90122857D01*
X113635714Y-90051428D01*
X113707142Y-89980000D01*
X113778571Y-89837142D01*
X113778571Y-89694285D01*
X113707142Y-89551428D01*
X113635714Y-89480000D01*
X113492857Y-89408571D01*
X113207142Y-89337142D01*
X112850000Y-89337142D01*
X112564285Y-89408571D01*
X112421428Y-89480000D01*
X112350000Y-89551428D01*
X112278571Y-89694285D01*
X113207142Y-91980000D02*
X113207142Y-93122857D01*
X112421428Y-94908571D02*
X112350000Y-94980000D01*
X112278571Y-95122857D01*
X112278571Y-95480000D01*
X112350000Y-95622857D01*
X112421428Y-95694285D01*
X112564285Y-95765714D01*
X112707142Y-95765714D01*
X112921428Y-95694285D01*
X113778571Y-94837142D01*
X113778571Y-95765714D01*
X112278571Y-96265714D02*
X112278571Y-97265714D01*
X113778571Y-96622857D01*
X113635714Y-98694285D02*
X113707142Y-98622857D01*
X113778571Y-98408571D01*
X113778571Y-98265714D01*
X113707142Y-98051428D01*
X113564285Y-97908571D01*
X113421428Y-97837142D01*
X113135714Y-97765714D01*
X112921428Y-97765714D01*
X112635714Y-97837142D01*
X112492857Y-97908571D01*
X112350000Y-98051428D01*
X112278571Y-98265714D01*
X112278571Y-98408571D01*
X112350000Y-98622857D01*
X112421428Y-98694285D01*
X112278571Y-99622857D02*
X112278571Y-99765714D01*
X112350000Y-99908571D01*
X112421428Y-99980000D01*
X112564285Y-100051428D01*
X112850000Y-100122857D01*
X113207142Y-100122857D01*
X113492857Y-100051428D01*
X113635714Y-99980000D01*
X113707142Y-99908571D01*
X113778571Y-99765714D01*
X113778571Y-99622857D01*
X113707142Y-99480000D01*
X113635714Y-99408571D01*
X113492857Y-99337142D01*
X113207142Y-99265714D01*
X112850000Y-99265714D01*
X112564285Y-99337142D01*
X112421428Y-99408571D01*
X112350000Y-99480000D01*
X112278571Y-99622857D01*
X113778571Y-100622857D02*
X112778571Y-101408571D01*
X112778571Y-100622857D02*
X113778571Y-101408571D01*
X112278571Y-102265714D02*
X112278571Y-102408571D01*
X112350000Y-102551428D01*
X112421428Y-102622857D01*
X112564285Y-102694285D01*
X112850000Y-102765714D01*
X113207142Y-102765714D01*
X113492857Y-102694285D01*
X113635714Y-102622857D01*
X113707142Y-102551428D01*
X113778571Y-102408571D01*
X113778571Y-102265714D01*
X113707142Y-102122857D01*
X113635714Y-102051428D01*
X113492857Y-101980000D01*
X113207142Y-101908571D01*
X112850000Y-101908571D01*
X112564285Y-101980000D01*
X112421428Y-102051428D01*
X112350000Y-102122857D01*
X112278571Y-102265714D01*
X115392857Y-85730000D02*
X115392857Y-86230000D01*
X116178571Y-86444285D02*
X116178571Y-85730000D01*
X114678571Y-85730000D01*
X114678571Y-86444285D01*
X116178571Y-87087142D02*
X114678571Y-87087142D01*
X114678571Y-87658571D01*
X114750000Y-87801428D01*
X114821428Y-87872857D01*
X114964285Y-87944285D01*
X115178571Y-87944285D01*
X115321428Y-87872857D01*
X115392857Y-87801428D01*
X115464285Y-87658571D01*
X115464285Y-87087142D01*
X116178571Y-89444285D02*
X115464285Y-88944285D01*
X116178571Y-88587142D02*
X114678571Y-88587142D01*
X114678571Y-89158571D01*
X114750000Y-89301428D01*
X114821428Y-89372857D01*
X114964285Y-89444285D01*
X115178571Y-89444285D01*
X115321428Y-89372857D01*
X115392857Y-89301428D01*
X115464285Y-89158571D01*
X115464285Y-88587142D01*
X114678571Y-90372857D02*
X114678571Y-90658571D01*
X114750000Y-90801428D01*
X114892857Y-90944285D01*
X115178571Y-91015714D01*
X115678571Y-91015714D01*
X115964285Y-90944285D01*
X116107142Y-90801428D01*
X116178571Y-90658571D01*
X116178571Y-90372857D01*
X116107142Y-90230000D01*
X115964285Y-90087142D01*
X115678571Y-90015714D01*
X115178571Y-90015714D01*
X114892857Y-90087142D01*
X114750000Y-90230000D01*
X114678571Y-90372857D01*
X116178571Y-91658571D02*
X114678571Y-91658571D01*
X115750000Y-92158571D01*
X114678571Y-92658571D01*
X116178571Y-92658571D01*
X115750000Y-94444285D02*
X115750000Y-95158571D01*
X116178571Y-94301428D02*
X114678571Y-94801428D01*
X116178571Y-95301428D01*
X116178571Y-96444285D02*
X114678571Y-96444285D01*
X116107142Y-96444285D02*
X116178571Y-96301428D01*
X116178571Y-96015714D01*
X116107142Y-95872857D01*
X116035714Y-95801428D01*
X115892857Y-95730000D01*
X115464285Y-95730000D01*
X115321428Y-95801428D01*
X115250000Y-95872857D01*
X115178571Y-96015714D01*
X115178571Y-96301428D01*
X115250000Y-96444285D01*
X116178571Y-97801428D02*
X115392857Y-97801428D01*
X115250000Y-97730000D01*
X115178571Y-97587142D01*
X115178571Y-97301428D01*
X115250000Y-97158571D01*
X116107142Y-97801428D02*
X116178571Y-97658571D01*
X116178571Y-97301428D01*
X116107142Y-97158571D01*
X115964285Y-97087142D01*
X115821428Y-97087142D01*
X115678571Y-97158571D01*
X115607142Y-97301428D01*
X115607142Y-97658571D01*
X115535714Y-97801428D01*
X115178571Y-98515714D02*
X116678571Y-98515714D01*
X115250000Y-98515714D02*
X115178571Y-98658571D01*
X115178571Y-98944285D01*
X115250000Y-99087142D01*
X115321428Y-99158571D01*
X115464285Y-99230000D01*
X115892857Y-99230000D01*
X116035714Y-99158571D01*
X116107142Y-99087142D01*
X116178571Y-98944285D01*
X116178571Y-98658571D01*
X116107142Y-98515714D01*
X115178571Y-99658571D02*
X115178571Y-100230000D01*
X114678571Y-99872857D02*
X115964285Y-99872857D01*
X116107142Y-99944285D01*
X116178571Y-100087142D01*
X116178571Y-100230000D01*
X116107142Y-101301428D02*
X116178571Y-101158571D01*
X116178571Y-100872857D01*
X116107142Y-100730000D01*
X115964285Y-100658571D01*
X115392857Y-100658571D01*
X115250000Y-100730000D01*
X115178571Y-100872857D01*
X115178571Y-101158571D01*
X115250000Y-101301428D01*
X115392857Y-101372857D01*
X115535714Y-101372857D01*
X115678571Y-100658571D01*
X116178571Y-102015714D02*
X115178571Y-102015714D01*
X115464285Y-102015714D02*
X115321428Y-102087142D01*
X115250000Y-102158571D01*
X115178571Y-102301428D01*
X115178571Y-102444285D01*
D12*
X133660000Y-58205000D02*
X133660000Y-58220000D01*
X133660000Y-56080000D02*
X133660000Y-56095000D01*
X138200000Y-58205000D02*
X138200000Y-58220000D01*
X138200000Y-56080000D02*
X138200000Y-56095000D01*
X138200000Y-58220000D02*
X133660000Y-58220000D01*
X138200000Y-56080000D02*
X133660000Y-56080000D01*
X133660000Y-100115000D02*
X133660000Y-100130000D01*
X133660000Y-97990000D02*
X133660000Y-98005000D01*
X138200000Y-100115000D02*
X138200000Y-100130000D01*
X138200000Y-97990000D02*
X138200000Y-98005000D01*
X138200000Y-100130000D02*
X133660000Y-100130000D01*
X138200000Y-97990000D02*
X133660000Y-97990000D01*
D11*
X136096666Y-55307142D02*
X136144285Y-55354761D01*
X136287142Y-55402380D01*
X136382380Y-55402380D01*
X136525238Y-55354761D01*
X136620476Y-55259523D01*
X136668095Y-55164285D01*
X136715714Y-54973809D01*
X136715714Y-54830952D01*
X136668095Y-54640476D01*
X136620476Y-54545238D01*
X136525238Y-54450000D01*
X136382380Y-54402380D01*
X136287142Y-54402380D01*
X136144285Y-54450000D01*
X136096666Y-54497619D01*
X135715714Y-54497619D02*
X135668095Y-54450000D01*
X135572857Y-54402380D01*
X135334761Y-54402380D01*
X135239523Y-54450000D01*
X135191904Y-54497619D01*
X135144285Y-54592857D01*
X135144285Y-54688095D01*
X135191904Y-54830952D01*
X135763333Y-55402380D01*
X135144285Y-55402380D01*
X136096666Y-97217142D02*
X136144285Y-97264761D01*
X136287142Y-97312380D01*
X136382380Y-97312380D01*
X136525238Y-97264761D01*
X136620476Y-97169523D01*
X136668095Y-97074285D01*
X136715714Y-96883809D01*
X136715714Y-96740952D01*
X136668095Y-96550476D01*
X136620476Y-96455238D01*
X136525238Y-96360000D01*
X136382380Y-96312380D01*
X136287142Y-96312380D01*
X136144285Y-96360000D01*
X136096666Y-96407619D01*
X135144285Y-97312380D02*
X135715714Y-97312380D01*
X135430000Y-97312380D02*
X135430000Y-96312380D01*
X135525238Y-96455238D01*
X135620476Y-96550476D01*
X135715714Y-96598095D01*
M02*
