G04 #@! TF.GenerationSoftware,KiCad,Pcbnew,5.1.5+dfsg1-2*
G04 #@! TF.CreationDate,2020-01-25T11:12:06+01:00*
G04 #@! TF.ProjectId,A500r5_eprom_adapter,41353030-7235-45f6-9570-726f6d5f6164,rev?*
G04 #@! TF.SameCoordinates,Original*
G04 #@! TF.FileFunction,Copper,L2,Bot*
G04 #@! TF.FilePolarity,Positive*
%FSLAX46Y46*%
G04 Gerber Fmt 4.6, Leading zero omitted, Abs format (unit mm)*
G04 Created by KiCad (PCBNEW 5.1.5+dfsg1-2) date 2020-01-25 11:12:06*
%MOMM*%
%LPD*%
G04 APERTURE LIST*
%ADD10O,1.600000X1.600000*%
%ADD11R,1.600000X1.600000*%
%ADD12O,1.700000X1.700000*%
%ADD13R,1.700000X1.700000*%
%ADD14C,1.600000*%
%ADD15C,0.800000*%
%ADD16C,0.250000*%
%ADD17C,0.350000*%
%ADD18C,0.254000*%
G04 APERTURE END LIST*
D10*
X143510000Y-99060000D03*
X128270000Y-137160000D03*
X143510000Y-101600000D03*
X128270000Y-134620000D03*
X143510000Y-104140000D03*
X128270000Y-132080000D03*
X143510000Y-106680000D03*
X128270000Y-129540000D03*
X143510000Y-109220000D03*
X128270000Y-127000000D03*
X143510000Y-111760000D03*
X128270000Y-124460000D03*
X143510000Y-114300000D03*
X128270000Y-121920000D03*
X143510000Y-116840000D03*
X128270000Y-119380000D03*
X143510000Y-119380000D03*
X128270000Y-116840000D03*
X143510000Y-121920000D03*
X128270000Y-114300000D03*
X143510000Y-124460000D03*
X128270000Y-111760000D03*
X143510000Y-127000000D03*
X128270000Y-109220000D03*
X143510000Y-129540000D03*
X128270000Y-106680000D03*
X143510000Y-132080000D03*
X128270000Y-104140000D03*
X143510000Y-134620000D03*
X128270000Y-101600000D03*
X143510000Y-137160000D03*
D11*
X128270000Y-99060000D03*
D10*
X143510000Y-57150000D03*
X128270000Y-95250000D03*
X143510000Y-59690000D03*
X128270000Y-92710000D03*
X143510000Y-62230000D03*
X128270000Y-90170000D03*
X143510000Y-64770000D03*
X128270000Y-87630000D03*
X143510000Y-67310000D03*
X128270000Y-85090000D03*
X143510000Y-69850000D03*
X128270000Y-82550000D03*
X143510000Y-72390000D03*
X128270000Y-80010000D03*
X143510000Y-74930000D03*
X128270000Y-77470000D03*
X143510000Y-77470000D03*
X128270000Y-74930000D03*
X143510000Y-80010000D03*
X128270000Y-72390000D03*
X143510000Y-82550000D03*
X128270000Y-69850000D03*
X143510000Y-85090000D03*
X128270000Y-67310000D03*
X143510000Y-87630000D03*
X128270000Y-64770000D03*
X143510000Y-90170000D03*
X128270000Y-62230000D03*
X143510000Y-92710000D03*
X128270000Y-59690000D03*
X143510000Y-95250000D03*
D11*
X128270000Y-57150000D03*
D10*
X121920000Y-71120000D03*
X106680000Y-119380000D03*
X121920000Y-73660000D03*
X106680000Y-116840000D03*
X121920000Y-76200000D03*
X106680000Y-114300000D03*
X121920000Y-78740000D03*
X106680000Y-111760000D03*
X121920000Y-81280000D03*
X106680000Y-109220000D03*
X121920000Y-83820000D03*
X106680000Y-106680000D03*
X121920000Y-86360000D03*
X106680000Y-104140000D03*
X121920000Y-88900000D03*
X106680000Y-101600000D03*
X121920000Y-91440000D03*
X106680000Y-99060000D03*
X121920000Y-93980000D03*
X106680000Y-96520000D03*
X121920000Y-96520000D03*
X106680000Y-93980000D03*
X121920000Y-99060000D03*
X106680000Y-91440000D03*
X121920000Y-101600000D03*
X106680000Y-88900000D03*
X121920000Y-104140000D03*
X106680000Y-86360000D03*
X121920000Y-106680000D03*
X106680000Y-83820000D03*
X121920000Y-109220000D03*
X106680000Y-81280000D03*
X121920000Y-111760000D03*
X106680000Y-78740000D03*
X121920000Y-114300000D03*
X106680000Y-76200000D03*
X121920000Y-116840000D03*
X106680000Y-73660000D03*
X121920000Y-119380000D03*
D11*
X106680000Y-71120000D03*
D10*
X119380000Y-96520000D03*
X119380000Y-93980000D03*
X119380000Y-91440000D03*
X119380000Y-88900000D03*
X119380000Y-86360000D03*
X119380000Y-83820000D03*
X119380000Y-81280000D03*
X119380000Y-78740000D03*
X119380000Y-76200000D03*
X119380000Y-73660000D03*
D11*
X119380000Y-71120000D03*
D10*
X109220000Y-96520000D03*
X109220000Y-93980000D03*
X109220000Y-91440000D03*
X109220000Y-88900000D03*
X109220000Y-86360000D03*
X109220000Y-83820000D03*
X109220000Y-81280000D03*
X109220000Y-78740000D03*
X109220000Y-76200000D03*
X109220000Y-73660000D03*
D11*
X109220000Y-71120000D03*
D12*
X115570000Y-130810000D03*
D13*
X113030000Y-130810000D03*
D12*
X115570000Y-127000000D03*
D13*
X113030000Y-127000000D03*
D12*
X115570000Y-64770000D03*
D13*
X113030000Y-64770000D03*
D14*
X133430000Y-57150000D03*
X138430000Y-57150000D03*
X133430000Y-99060000D03*
X138430000Y-99060000D03*
D15*
X113030000Y-60960000D03*
X119380000Y-60960000D03*
X111760000Y-69850000D03*
X114300000Y-121920000D03*
X118110000Y-102870000D03*
X120650000Y-128270000D03*
X125730000Y-133350000D03*
X138430000Y-133350000D03*
X138030001Y-121049999D03*
X146050000Y-105410000D03*
X121920000Y-135890000D03*
X125730000Y-105410000D03*
X111760000Y-96520000D03*
X110490000Y-99060000D03*
X110490000Y-127000000D03*
X139700000Y-121920000D03*
X130810000Y-72390000D03*
X139700000Y-72390000D03*
X124460000Y-93980000D03*
X124460000Y-101600000D03*
X134620000Y-77470000D03*
X139700000Y-77470000D03*
X124460000Y-86360000D03*
X132080000Y-86360000D03*
X133350000Y-74930000D03*
X137160000Y-74930000D03*
X123190000Y-95250000D03*
X146050000Y-110490000D03*
X140970000Y-63500000D03*
X140970000Y-67310000D03*
X107950000Y-67310000D03*
X135890000Y-81280000D03*
X147320000Y-113030000D03*
X146050000Y-138430000D03*
X116840000Y-138430000D03*
X116840000Y-116840000D03*
X124460000Y-114300000D03*
X127000000Y-96520000D03*
X116840000Y-114300000D03*
X119380000Y-115570000D03*
X124785001Y-99060000D03*
X124460000Y-91440000D03*
X130810000Y-92710000D03*
X118110000Y-128270000D03*
X116905070Y-101600000D03*
X124460000Y-87630000D03*
X115570000Y-138430000D03*
X140970000Y-121920000D03*
X141605708Y-94508228D03*
X137160000Y-92710000D03*
X116905070Y-104140000D03*
X114300000Y-120650000D03*
X127000000Y-88900000D03*
X127000000Y-102870000D03*
X119380000Y-106680000D03*
X132080000Y-134620000D03*
X140970000Y-135890000D03*
X135615010Y-106680000D03*
X144780000Y-96520000D03*
X130810000Y-129540000D03*
X137160000Y-93980000D03*
X134620000Y-93980000D03*
X130810000Y-104140000D03*
X130810000Y-109220000D03*
X132080000Y-133350000D03*
D16*
X143510000Y-105410000D02*
X143510000Y-105554999D01*
D17*
X113030000Y-60960000D02*
X119380000Y-60960000D01*
X119380000Y-71120000D02*
X113030000Y-71120000D01*
X113030000Y-71120000D02*
X111760000Y-69850000D01*
X143510000Y-57150000D02*
X146050000Y-59690000D01*
X146050000Y-96520000D02*
X143510000Y-99060000D01*
X146050000Y-59690000D02*
X146050000Y-96520000D01*
X128834001Y-118015001D02*
X138430000Y-108419002D01*
X138430000Y-108419002D02*
X138430000Y-100191370D01*
X127802119Y-118015001D02*
X128834001Y-118015001D01*
X138430000Y-100191370D02*
X138430000Y-99060000D01*
X126437120Y-119380000D02*
X127802119Y-118015001D01*
X121920000Y-119380000D02*
X126437120Y-119380000D01*
D16*
X113030000Y-127000000D02*
X113030000Y-123190000D01*
X114300000Y-122389002D02*
X114300000Y-121920000D01*
X113030000Y-123190000D02*
X113499002Y-123190000D01*
X113499002Y-123190000D02*
X114300000Y-122389002D01*
X118110000Y-97790000D02*
X119380000Y-96520000D01*
X118110000Y-102870000D02*
X118110000Y-97790000D01*
X117761999Y-127544999D02*
X119924999Y-127544999D01*
X117131997Y-128175001D02*
X117761999Y-127544999D01*
X113030000Y-127000000D02*
X113030000Y-126199002D01*
X115005999Y-128175001D02*
X117131997Y-128175001D01*
X113030000Y-126199002D02*
X115005999Y-128175001D01*
X119924999Y-127544999D02*
X120650000Y-128270000D01*
X134620000Y-132080000D02*
X135439990Y-132899990D01*
X135439990Y-132899990D02*
X137979990Y-132899990D01*
X129935002Y-132080000D02*
X134620000Y-132080000D01*
X125730000Y-133350000D02*
X128665002Y-133350000D01*
X128665002Y-133350000D02*
X129935002Y-132080000D01*
X137979990Y-132899990D02*
X138430000Y-133350000D01*
X140970000Y-101600000D02*
X143510000Y-101600000D01*
X139700000Y-102870000D02*
X140970000Y-101600000D01*
X138030001Y-121049999D02*
X139700000Y-119380000D01*
X139700000Y-119380000D02*
X139700000Y-102870000D01*
X146050000Y-104140000D02*
X143510000Y-101600000D01*
X146050000Y-105410000D02*
X146050000Y-104140000D01*
X108094999Y-95394999D02*
X108420001Y-95720001D01*
X106429997Y-95394999D02*
X108094999Y-95394999D01*
X104140000Y-93105002D02*
X106429997Y-95394999D01*
X128270000Y-57150000D02*
X127220000Y-57150000D01*
X127220000Y-57150000D02*
X121320010Y-63049990D01*
X121320010Y-63049990D02*
X111137008Y-63049990D01*
X104140000Y-70046998D02*
X104140000Y-93105002D01*
X108420001Y-95720001D02*
X109220000Y-96520000D01*
X111137008Y-63049990D02*
X104140000Y-70046998D01*
X109220000Y-96520000D02*
X109220000Y-128270000D01*
X111760000Y-130810000D02*
X113030000Y-130810000D01*
X109220000Y-128270000D02*
X111760000Y-130810000D01*
X113030000Y-131910000D02*
X113030000Y-130810000D01*
X117010000Y-135890000D02*
X113030000Y-131910000D01*
X121920000Y-135890000D02*
X117010000Y-135890000D01*
X121920000Y-127000000D02*
X128270000Y-127000000D01*
X113030000Y-118110000D02*
X121920000Y-127000000D01*
X109220000Y-91440000D02*
X113030000Y-95250000D01*
X113030000Y-95250000D02*
X113030000Y-118110000D01*
X109220000Y-88900000D02*
X113480010Y-93160010D01*
X113480010Y-93160010D02*
X113480010Y-117923600D01*
X113480010Y-117923600D02*
X120016410Y-124460000D01*
X120016410Y-124460000D02*
X128270000Y-124460000D01*
X113930020Y-91070020D02*
X113930020Y-117737200D01*
X109220000Y-86360000D02*
X113930020Y-91070020D01*
X118112820Y-121920000D02*
X128270000Y-121920000D01*
X113930020Y-117737200D02*
X118112820Y-121920000D01*
X110019999Y-84619999D02*
X109220000Y-83820000D01*
X110019999Y-84975001D02*
X110019999Y-84619999D01*
X109760001Y-85234999D02*
X110019999Y-84975001D01*
X128270000Y-119380000D02*
X127144999Y-120505001D01*
X127144999Y-120505001D02*
X118045031Y-120505001D01*
X118045031Y-120505001D02*
X114380030Y-116840000D01*
X114380030Y-116840000D02*
X114380030Y-89855028D01*
X114380030Y-89855028D02*
X109760001Y-85234999D01*
X128270000Y-74930000D02*
X125730000Y-77470000D01*
X125730000Y-80884998D02*
X125730000Y-105410000D01*
X125730000Y-77470000D02*
X126855001Y-78595001D01*
X128019997Y-78595001D02*
X125730000Y-80884998D01*
X126855001Y-78595001D02*
X128019997Y-78595001D01*
X116431439Y-118254999D02*
X126855001Y-118254999D01*
X109220000Y-81280000D02*
X114830040Y-86890040D01*
X126855001Y-118254999D02*
X128270000Y-116840000D01*
X114830040Y-116653600D02*
X116431439Y-118254999D01*
X114830040Y-86890040D02*
X114830040Y-116653600D01*
X127144999Y-113174999D02*
X115714999Y-113174999D01*
X128270000Y-114300000D02*
X127144999Y-113174999D01*
X115714999Y-113174999D02*
X115280050Y-112740050D01*
X115280050Y-84800050D02*
X109220000Y-78740000D01*
X115280050Y-112740050D02*
X115280050Y-84800050D01*
X127470001Y-110960001D02*
X128270000Y-111760000D01*
X109220000Y-76200000D02*
X115730060Y-82710060D01*
X115730060Y-109220000D02*
X117145059Y-110634999D01*
X117145059Y-110634999D02*
X127144999Y-110634999D01*
X115730060Y-82710060D02*
X115730060Y-109220000D01*
X127144999Y-110634999D02*
X127470001Y-110960001D01*
X109220000Y-73660000D02*
X116180070Y-80620070D01*
X116180070Y-80620070D02*
X116180070Y-104750070D01*
X116180070Y-104750070D02*
X119524999Y-108094999D01*
X127470001Y-108420001D02*
X128270000Y-109220000D01*
X119524999Y-108094999D02*
X127144999Y-108094999D01*
X127144999Y-108094999D02*
X127470001Y-108420001D01*
X121120001Y-71919999D02*
X121920000Y-71120000D01*
X120505001Y-72534999D02*
X121120001Y-71919999D01*
X108679999Y-72534999D02*
X120505001Y-72534999D01*
X108094999Y-89440001D02*
X108094999Y-73119999D01*
X108969997Y-90314999D02*
X108094999Y-89440001D01*
X108679999Y-90314999D02*
X108969997Y-90314999D01*
X108094999Y-73119999D02*
X108679999Y-72534999D01*
X108094999Y-90899999D02*
X108679999Y-90314999D01*
X108094999Y-92854999D02*
X108094999Y-90899999D01*
X109220000Y-93980000D02*
X108094999Y-92854999D01*
X119079997Y-129634999D02*
X127874998Y-138430000D01*
X113379997Y-129634999D02*
X119079997Y-129634999D01*
X111760000Y-96520000D02*
X111760000Y-128015002D01*
X111760000Y-128015002D02*
X113379997Y-129634999D01*
X143905002Y-138430000D02*
X146050000Y-136285002D01*
X127874998Y-138430000D02*
X143905002Y-138430000D01*
X146050000Y-136285002D02*
X146050000Y-113030000D01*
X144780000Y-111760000D02*
X143510000Y-111760000D01*
X146050000Y-113030000D02*
X144780000Y-111760000D01*
X110490000Y-99060000D02*
X110490000Y-127000000D01*
X139700000Y-121920000D02*
X140970000Y-120650000D01*
X140970000Y-120650000D02*
X140970000Y-105410000D01*
X140970000Y-105410000D02*
X142240000Y-104140000D01*
X142240000Y-104140000D02*
X143510000Y-104140000D01*
X123045001Y-92854999D02*
X123045001Y-91584999D01*
X121920000Y-93980000D02*
X123045001Y-92854999D01*
X123045001Y-91584999D02*
X124460000Y-90170000D01*
X128019997Y-73515001D02*
X129684999Y-73515001D01*
X125185001Y-76349997D02*
X128019997Y-73515001D01*
X124460000Y-90170000D02*
X125185001Y-89444999D01*
X125185001Y-89444999D02*
X125185001Y-76349997D01*
X129684999Y-73515001D02*
X130810000Y-72390000D01*
X139700000Y-66040000D02*
X143510000Y-62230000D01*
X139700000Y-72390000D02*
X139700000Y-66040000D01*
X124060001Y-101200001D02*
X124460000Y-101600000D01*
X124460000Y-93980000D02*
X124060001Y-94379999D01*
X124060001Y-94379999D02*
X124060001Y-101200001D01*
X129395001Y-100474999D02*
X129395001Y-96664999D01*
X128270000Y-101600000D02*
X129395001Y-100474999D01*
X129395001Y-96664999D02*
X132080000Y-93980000D01*
X132080000Y-93980000D02*
X134620000Y-91440000D01*
X134620000Y-91440000D02*
X134620000Y-77470000D01*
X139700000Y-74534998D02*
X134620000Y-69454998D01*
X139700000Y-77470000D02*
X139700000Y-74534998D01*
X134620000Y-66040000D02*
X128270000Y-59690000D01*
X134620000Y-69454998D02*
X134620000Y-66040000D01*
X121920000Y-88900000D02*
X124460000Y-86360000D01*
X131680001Y-85960001D02*
X131680001Y-76599999D01*
X132080000Y-86360000D02*
X131680001Y-85960001D01*
X131680001Y-76599999D02*
X133350000Y-74930000D01*
X134169990Y-68129990D02*
X129069999Y-63029999D01*
X134169990Y-71939990D02*
X134169990Y-68129990D01*
X129069999Y-63029999D02*
X128270000Y-62230000D01*
X137160000Y-74930000D02*
X134169990Y-71939990D01*
X127470001Y-104939999D02*
X128270000Y-104140000D01*
X126274999Y-106135001D02*
X127470001Y-104939999D01*
X125381999Y-106135001D02*
X126274999Y-106135001D01*
X123190000Y-103943002D02*
X125381999Y-106135001D01*
X123190000Y-95250000D02*
X123190000Y-103943002D01*
X142597197Y-55124981D02*
X140970000Y-56752178D01*
X144422800Y-55124980D02*
X142597197Y-55124981D01*
X140970000Y-56752178D02*
X140970000Y-63500000D01*
X148045001Y-58747181D02*
X144422800Y-55124980D01*
X148045001Y-113378001D02*
X148045001Y-58747181D01*
X146594999Y-111034999D02*
X146594999Y-113378001D01*
X146050000Y-110490000D02*
X146594999Y-111034999D01*
X146594999Y-113378001D02*
X146971999Y-113755001D01*
X146971999Y-113755001D02*
X147668001Y-113755001D01*
X147668001Y-113755001D02*
X148045001Y-113378001D01*
X140970000Y-67310000D02*
X143510000Y-67310000D01*
X107950000Y-67310000D02*
X111760000Y-63500000D01*
X127000000Y-63500000D02*
X128270000Y-64770000D01*
X111760000Y-63500000D02*
X127000000Y-63500000D01*
X132080000Y-106680000D02*
X128270000Y-106680000D01*
X135890000Y-81280000D02*
X135890000Y-102870000D01*
X135890000Y-102870000D02*
X132080000Y-106680000D01*
X145099980Y-73340020D02*
X144309999Y-74130001D01*
X144368489Y-60815001D02*
X145099980Y-61546492D01*
X142969999Y-60815001D02*
X144368489Y-60815001D01*
X141934989Y-59779991D02*
X142969999Y-60815001D01*
X144309999Y-74130001D02*
X143510000Y-74930000D01*
X141934989Y-56423599D02*
X141934989Y-59779991D01*
X142783598Y-55574990D02*
X141934989Y-56423599D01*
X144236401Y-55574989D02*
X142783598Y-55574990D01*
X147320000Y-58658588D02*
X144236401Y-55574989D01*
X145099980Y-61546492D02*
X145099980Y-73340020D01*
X147320000Y-113030000D02*
X147320000Y-58658588D01*
X142710001Y-121120001D02*
X143510000Y-121920000D01*
X142969999Y-110634999D02*
X142384999Y-111219999D01*
X142384999Y-111219999D02*
X142384999Y-120794999D01*
X142969999Y-56024999D02*
X144050001Y-56024999D01*
X142384999Y-56609999D02*
X142969999Y-56024999D01*
X142384999Y-120794999D02*
X142710001Y-121120001D01*
X142384999Y-57690001D02*
X142384999Y-56609999D01*
X142969999Y-58275001D02*
X142384999Y-57690001D01*
X143927881Y-58275001D02*
X142969999Y-58275001D01*
X144050001Y-110634999D02*
X142969999Y-110634999D01*
X146775001Y-107909999D02*
X144050001Y-110634999D01*
X145549990Y-59897110D02*
X143927881Y-58275001D01*
X145549990Y-77970010D02*
X145549990Y-59897110D01*
X146775001Y-58749999D02*
X146775001Y-107909999D01*
X144050001Y-56024999D02*
X146775001Y-58749999D01*
X143510000Y-80010000D02*
X145549990Y-77970010D01*
X118815007Y-138880009D02*
X145599991Y-138880009D01*
X106680000Y-119380000D02*
X106680000Y-126745002D01*
X106680000Y-126745002D02*
X118815007Y-138880009D01*
X145599991Y-138880009D02*
X146050000Y-138430000D01*
X105554999Y-118839999D02*
X105554999Y-127144999D01*
X105554999Y-127144999D02*
X116840000Y-138430000D01*
X107805001Y-118839999D02*
X107220001Y-118254999D01*
X106139999Y-118254999D02*
X105554999Y-118839999D01*
X107220001Y-118254999D02*
X106139999Y-118254999D01*
X106680000Y-116840000D02*
X107805001Y-117965001D01*
X107805001Y-117965001D02*
X107805001Y-118839999D01*
X122408591Y-115714999D02*
X123823590Y-114300000D01*
X121379999Y-115714999D02*
X122408591Y-115714999D01*
X116840000Y-116840000D02*
X116295001Y-116295001D01*
X120799997Y-116295001D02*
X121379999Y-115714999D01*
X116295001Y-116295001D02*
X120799997Y-116295001D01*
X123823590Y-114300000D02*
X124460000Y-114300000D01*
X127000000Y-93980000D02*
X128270000Y-92710000D01*
X127000000Y-96520000D02*
X127000000Y-93980000D01*
X116840000Y-114300000D02*
X118110000Y-114300000D01*
X118110000Y-114300000D02*
X119380000Y-115570000D01*
X125185001Y-98660000D02*
X125185001Y-92165001D01*
X124785001Y-99060000D02*
X125185001Y-98660000D01*
X125185001Y-92165001D02*
X124460000Y-91440000D01*
X130810000Y-92710000D02*
X128270000Y-90170000D01*
X119621408Y-129540000D02*
X118351408Y-128270000D01*
X128270000Y-129540000D02*
X119621408Y-129540000D01*
X118351408Y-128270000D02*
X118110000Y-128270000D01*
X116905070Y-92249928D02*
X118984998Y-90170000D01*
X116905070Y-101600000D02*
X116905070Y-92249928D01*
X122315002Y-90170000D02*
X124460000Y-88025002D01*
X118984998Y-90170000D02*
X122315002Y-90170000D01*
X124460000Y-88025002D02*
X124460000Y-87630000D01*
X106680000Y-99060000D02*
X104140000Y-101600000D01*
X104140000Y-126803002D02*
X115570000Y-138233002D01*
X104140000Y-101600000D02*
X104140000Y-126803002D01*
X115570000Y-138233002D02*
X115570000Y-138430000D01*
X105880001Y-98260001D02*
X106680000Y-99060000D01*
X103689990Y-69860598D02*
X103689990Y-96069990D01*
X103689990Y-96069990D02*
X105880001Y-98260001D01*
X110950608Y-62599980D02*
X103689990Y-69860598D01*
X120635018Y-62599980D02*
X110950608Y-62599980D01*
X127209999Y-56024999D02*
X120635018Y-62599980D01*
X129330001Y-56024999D02*
X127209999Y-56024999D01*
X135070010Y-61765008D02*
X129330001Y-56024999D01*
X135070010Y-69030010D02*
X135070010Y-61765008D01*
X143510000Y-77470000D02*
X135070010Y-69030010D01*
X106284998Y-72390000D02*
X107595002Y-72390000D01*
X106680000Y-93980000D02*
X105554999Y-92854999D01*
X107595002Y-72390000D02*
X107805001Y-72180001D01*
X105554999Y-73119999D02*
X106284998Y-72390000D01*
X105554999Y-92854999D02*
X105554999Y-73119999D01*
X107805001Y-72180001D02*
X107805001Y-70349997D01*
X107805001Y-70349997D02*
X108159999Y-69994999D01*
X108159999Y-69994999D02*
X108159999Y-69640001D01*
X108159999Y-69640001D02*
X109220000Y-68580000D01*
X120650000Y-68580000D02*
X121045002Y-68580000D01*
X109220000Y-68580000D02*
X120650000Y-68580000D01*
X142710001Y-81750001D02*
X143510000Y-82550000D01*
X120650000Y-68580000D02*
X129540000Y-68580000D01*
X129540000Y-68580000D02*
X142710001Y-81750001D01*
X139249991Y-99905011D02*
X141605708Y-97549294D01*
X141605708Y-97549294D02*
X141605708Y-94508228D01*
X139249991Y-118757007D02*
X139249991Y-99905011D01*
X139844999Y-123045001D02*
X138952001Y-123045001D01*
X140970000Y-121920000D02*
X139844999Y-123045001D01*
X138952001Y-123045001D02*
X137305000Y-121398000D01*
X137305000Y-120701998D02*
X139249991Y-118757007D01*
X137305000Y-121398000D02*
X137305000Y-120701998D01*
X137160000Y-92710000D02*
X137160000Y-82550000D01*
X137160000Y-82550000D02*
X143510000Y-82550000D01*
X120794999Y-101258003D02*
X117913002Y-104140000D01*
X121920000Y-99060000D02*
X120794999Y-100185001D01*
X120794999Y-100185001D02*
X120794999Y-101258003D01*
X117913002Y-104140000D02*
X116905070Y-104140000D01*
X142710001Y-127799999D02*
X143510000Y-127000000D01*
X142095001Y-128414999D02*
X142710001Y-127799999D01*
X122064999Y-128414999D02*
X142095001Y-128414999D01*
X114300000Y-120650000D02*
X122064999Y-128414999D01*
X126274999Y-90499999D02*
X126274999Y-99604999D01*
X127729999Y-89044999D02*
X126274999Y-90499999D01*
X128520003Y-89044999D02*
X127729999Y-89044999D01*
X129395001Y-88170001D02*
X128520003Y-89044999D01*
X127000000Y-88900000D02*
X127000000Y-87234998D01*
X127000000Y-87234998D02*
X127729999Y-86504999D01*
X127729999Y-86504999D02*
X128810001Y-86504999D01*
X129395001Y-87089999D02*
X129395001Y-88170001D01*
X128810001Y-86504999D02*
X129395001Y-87089999D01*
X126819998Y-102870000D02*
X127000000Y-102870000D01*
X126274999Y-99604999D02*
X126274999Y-102325001D01*
X126274999Y-102325001D02*
X126819998Y-102870000D01*
X121920000Y-104140000D02*
X119380000Y-106680000D01*
X132080000Y-134620000D02*
X133350000Y-135890000D01*
X133350000Y-135890000D02*
X140970000Y-135890000D01*
X127729999Y-107805001D02*
X134764999Y-107805001D01*
X121920000Y-106680000D02*
X126604998Y-106680000D01*
X126604998Y-106680000D02*
X127729999Y-107805001D01*
X134764999Y-107805001D02*
X135890000Y-106680000D01*
X135890000Y-106680000D02*
X135615010Y-106680000D01*
X144780000Y-88900000D02*
X143510000Y-87630000D01*
X144780000Y-96520000D02*
X144780000Y-88900000D01*
X130810000Y-129540000D02*
X133350000Y-129540000D01*
X135890000Y-132080000D02*
X143510000Y-132080000D01*
X133350000Y-129540000D02*
X135890000Y-132080000D01*
X143510000Y-90170000D02*
X140970000Y-90170000D01*
X140970000Y-90170000D02*
X137160000Y-93980000D01*
X134620000Y-94895002D02*
X130810000Y-98705002D01*
X134620000Y-93980000D02*
X134620000Y-94895002D01*
X130810000Y-98705002D02*
X130810000Y-104140000D01*
X123051370Y-111760000D02*
X121920000Y-111760000D01*
X127636410Y-113030000D02*
X126366410Y-111760000D01*
X126366410Y-111760000D02*
X123051370Y-111760000D01*
X128665002Y-113030000D02*
X127636410Y-113030000D01*
X130810000Y-110885002D02*
X128665002Y-113030000D01*
X130810000Y-109220000D02*
X130810000Y-110885002D01*
X132080000Y-133350000D02*
X137160000Y-133350000D01*
X138430000Y-134620000D02*
X143510000Y-134620000D01*
X137160000Y-133350000D02*
X138430000Y-134620000D01*
X128520003Y-115714999D02*
X136340010Y-107894992D01*
X121920000Y-116840000D02*
X123045001Y-115714999D01*
X123045001Y-115714999D02*
X128520003Y-115714999D01*
X142378630Y-92710000D02*
X143510000Y-92710000D01*
X136340010Y-98748620D02*
X142378630Y-92710000D01*
X136340010Y-107894992D02*
X136340010Y-98748620D01*
D18*
G36*
X126490205Y-138120009D02*
G01*
X119129810Y-138120009D01*
X117659801Y-136650000D01*
X121216289Y-136650000D01*
X121260226Y-136693937D01*
X121429744Y-136807205D01*
X121618102Y-136885226D01*
X121818061Y-136925000D01*
X122021939Y-136925000D01*
X122221898Y-136885226D01*
X122410256Y-136807205D01*
X122579774Y-136693937D01*
X122723937Y-136549774D01*
X122837205Y-136380256D01*
X122915226Y-136191898D01*
X122955000Y-135991939D01*
X122955000Y-135788061D01*
X122915226Y-135588102D01*
X122837205Y-135399744D01*
X122723937Y-135230226D01*
X122579774Y-135086063D01*
X122410256Y-134972795D01*
X122221898Y-134894774D01*
X122021939Y-134855000D01*
X121818061Y-134855000D01*
X121618102Y-134894774D01*
X121429744Y-134972795D01*
X121260226Y-135086063D01*
X121216289Y-135130000D01*
X117324802Y-135130000D01*
X114317345Y-132122543D01*
X114331185Y-132111185D01*
X114410537Y-132014494D01*
X114469502Y-131904180D01*
X114493966Y-131823534D01*
X114569731Y-131907588D01*
X114803080Y-132081641D01*
X115065901Y-132206825D01*
X115213110Y-132251476D01*
X115443000Y-132130155D01*
X115443000Y-130937000D01*
X115697000Y-130937000D01*
X115697000Y-132130155D01*
X115926890Y-132251476D01*
X116074099Y-132206825D01*
X116336920Y-132081641D01*
X116570269Y-131907588D01*
X116765178Y-131691355D01*
X116914157Y-131441252D01*
X117011481Y-131166891D01*
X116890814Y-130937000D01*
X115697000Y-130937000D01*
X115443000Y-130937000D01*
X115423000Y-130937000D01*
X115423000Y-130683000D01*
X115443000Y-130683000D01*
X115443000Y-130663000D01*
X115697000Y-130663000D01*
X115697000Y-130683000D01*
X116890814Y-130683000D01*
X117011481Y-130453109D01*
X116990868Y-130394999D01*
X118765196Y-130394999D01*
X126490205Y-138120009D01*
G37*
X126490205Y-138120009D02*
X119129810Y-138120009D01*
X117659801Y-136650000D01*
X121216289Y-136650000D01*
X121260226Y-136693937D01*
X121429744Y-136807205D01*
X121618102Y-136885226D01*
X121818061Y-136925000D01*
X122021939Y-136925000D01*
X122221898Y-136885226D01*
X122410256Y-136807205D01*
X122579774Y-136693937D01*
X122723937Y-136549774D01*
X122837205Y-136380256D01*
X122915226Y-136191898D01*
X122955000Y-135991939D01*
X122955000Y-135788061D01*
X122915226Y-135588102D01*
X122837205Y-135399744D01*
X122723937Y-135230226D01*
X122579774Y-135086063D01*
X122410256Y-134972795D01*
X122221898Y-134894774D01*
X122021939Y-134855000D01*
X121818061Y-134855000D01*
X121618102Y-134894774D01*
X121429744Y-134972795D01*
X121260226Y-135086063D01*
X121216289Y-135130000D01*
X117324802Y-135130000D01*
X114317345Y-132122543D01*
X114331185Y-132111185D01*
X114410537Y-132014494D01*
X114469502Y-131904180D01*
X114493966Y-131823534D01*
X114569731Y-131907588D01*
X114803080Y-132081641D01*
X115065901Y-132206825D01*
X115213110Y-132251476D01*
X115443000Y-132130155D01*
X115443000Y-130937000D01*
X115697000Y-130937000D01*
X115697000Y-132130155D01*
X115926890Y-132251476D01*
X116074099Y-132206825D01*
X116336920Y-132081641D01*
X116570269Y-131907588D01*
X116765178Y-131691355D01*
X116914157Y-131441252D01*
X117011481Y-131166891D01*
X116890814Y-130937000D01*
X115697000Y-130937000D01*
X115443000Y-130937000D01*
X115423000Y-130937000D01*
X115423000Y-130683000D01*
X115443000Y-130683000D01*
X115443000Y-130663000D01*
X115697000Y-130663000D01*
X115697000Y-130683000D01*
X116890814Y-130683000D01*
X117011481Y-130453109D01*
X116990868Y-130394999D01*
X118765196Y-130394999D01*
X126490205Y-138120009D01*
G36*
X131162795Y-132859744D02*
G01*
X131084774Y-133048102D01*
X131045000Y-133248061D01*
X131045000Y-133451939D01*
X131084774Y-133651898D01*
X131162795Y-133840256D01*
X131259510Y-133985000D01*
X131162795Y-134129744D01*
X131084774Y-134318102D01*
X131045000Y-134518061D01*
X131045000Y-134721939D01*
X131084774Y-134921898D01*
X131162795Y-135110256D01*
X131276063Y-135279774D01*
X131420226Y-135423937D01*
X131589744Y-135537205D01*
X131778102Y-135615226D01*
X131978061Y-135655000D01*
X132040199Y-135655000D01*
X132786201Y-136401003D01*
X132809999Y-136430001D01*
X132925724Y-136524974D01*
X133057753Y-136595546D01*
X133201014Y-136639003D01*
X133312667Y-136650000D01*
X133312676Y-136650000D01*
X133349999Y-136653676D01*
X133387322Y-136650000D01*
X140266289Y-136650000D01*
X140310226Y-136693937D01*
X140479744Y-136807205D01*
X140668102Y-136885226D01*
X140868061Y-136925000D01*
X141071939Y-136925000D01*
X141271898Y-136885226D01*
X141460256Y-136807205D01*
X141629774Y-136693937D01*
X141773937Y-136549774D01*
X141887205Y-136380256D01*
X141965226Y-136191898D01*
X142005000Y-135991939D01*
X142005000Y-135788061D01*
X141965226Y-135588102D01*
X141887205Y-135399744D01*
X141874013Y-135380000D01*
X142291957Y-135380000D01*
X142395363Y-135534759D01*
X142595241Y-135734637D01*
X142827759Y-135890000D01*
X142595241Y-136045363D01*
X142395363Y-136245241D01*
X142238320Y-136480273D01*
X142130147Y-136741426D01*
X142075000Y-137018665D01*
X142075000Y-137301335D01*
X142130147Y-137578574D01*
X142168017Y-137670000D01*
X129608526Y-137670000D01*
X129621246Y-137643087D01*
X129661904Y-137509039D01*
X129539915Y-137287000D01*
X128397000Y-137287000D01*
X128397000Y-137307000D01*
X128143000Y-137307000D01*
X128143000Y-137287000D01*
X128123000Y-137287000D01*
X128123000Y-137033000D01*
X128143000Y-137033000D01*
X128143000Y-137013000D01*
X128397000Y-137013000D01*
X128397000Y-137033000D01*
X129539915Y-137033000D01*
X129661904Y-136810961D01*
X129621246Y-136676913D01*
X129501037Y-136422580D01*
X129333519Y-136196586D01*
X129125131Y-136007615D01*
X128939135Y-135896067D01*
X128949727Y-135891680D01*
X129184759Y-135734637D01*
X129384637Y-135534759D01*
X129541680Y-135299727D01*
X129649853Y-135038574D01*
X129705000Y-134761335D01*
X129705000Y-134478665D01*
X129649853Y-134201426D01*
X129541680Y-133940273D01*
X129384637Y-133705241D01*
X129384600Y-133705204D01*
X130249804Y-132840000D01*
X131175987Y-132840000D01*
X131162795Y-132859744D01*
G37*
X131162795Y-132859744D02*
X131084774Y-133048102D01*
X131045000Y-133248061D01*
X131045000Y-133451939D01*
X131084774Y-133651898D01*
X131162795Y-133840256D01*
X131259510Y-133985000D01*
X131162795Y-134129744D01*
X131084774Y-134318102D01*
X131045000Y-134518061D01*
X131045000Y-134721939D01*
X131084774Y-134921898D01*
X131162795Y-135110256D01*
X131276063Y-135279774D01*
X131420226Y-135423937D01*
X131589744Y-135537205D01*
X131778102Y-135615226D01*
X131978061Y-135655000D01*
X132040199Y-135655000D01*
X132786201Y-136401003D01*
X132809999Y-136430001D01*
X132925724Y-136524974D01*
X133057753Y-136595546D01*
X133201014Y-136639003D01*
X133312667Y-136650000D01*
X133312676Y-136650000D01*
X133349999Y-136653676D01*
X133387322Y-136650000D01*
X140266289Y-136650000D01*
X140310226Y-136693937D01*
X140479744Y-136807205D01*
X140668102Y-136885226D01*
X140868061Y-136925000D01*
X141071939Y-136925000D01*
X141271898Y-136885226D01*
X141460256Y-136807205D01*
X141629774Y-136693937D01*
X141773937Y-136549774D01*
X141887205Y-136380256D01*
X141965226Y-136191898D01*
X142005000Y-135991939D01*
X142005000Y-135788061D01*
X141965226Y-135588102D01*
X141887205Y-135399744D01*
X141874013Y-135380000D01*
X142291957Y-135380000D01*
X142395363Y-135534759D01*
X142595241Y-135734637D01*
X142827759Y-135890000D01*
X142595241Y-136045363D01*
X142395363Y-136245241D01*
X142238320Y-136480273D01*
X142130147Y-136741426D01*
X142075000Y-137018665D01*
X142075000Y-137301335D01*
X142130147Y-137578574D01*
X142168017Y-137670000D01*
X129608526Y-137670000D01*
X129621246Y-137643087D01*
X129661904Y-137509039D01*
X129539915Y-137287000D01*
X128397000Y-137287000D01*
X128397000Y-137307000D01*
X128143000Y-137307000D01*
X128143000Y-137287000D01*
X128123000Y-137287000D01*
X128123000Y-137033000D01*
X128143000Y-137033000D01*
X128143000Y-137013000D01*
X128397000Y-137013000D01*
X128397000Y-137033000D01*
X129539915Y-137033000D01*
X129661904Y-136810961D01*
X129621246Y-136676913D01*
X129501037Y-136422580D01*
X129333519Y-136196586D01*
X129125131Y-136007615D01*
X128939135Y-135896067D01*
X128949727Y-135891680D01*
X129184759Y-135734637D01*
X129384637Y-135534759D01*
X129541680Y-135299727D01*
X129649853Y-135038574D01*
X129705000Y-134761335D01*
X129705000Y-134478665D01*
X129649853Y-134201426D01*
X129541680Y-133940273D01*
X129384637Y-133705241D01*
X129384600Y-133705204D01*
X130249804Y-132840000D01*
X131175987Y-132840000D01*
X131162795Y-132859744D01*
G36*
X119360197Y-126784999D02*
G01*
X117799321Y-126784999D01*
X117761998Y-126781323D01*
X117724675Y-126784999D01*
X117724666Y-126784999D01*
X117613013Y-126795996D01*
X117469752Y-126839453D01*
X117337723Y-126910025D01*
X117221998Y-127004998D01*
X117198199Y-127033997D01*
X116964607Y-127267589D01*
X116890814Y-127127000D01*
X115697000Y-127127000D01*
X115697000Y-127147000D01*
X115443000Y-127147000D01*
X115443000Y-127127000D01*
X115423000Y-127127000D01*
X115423000Y-126873000D01*
X115443000Y-126873000D01*
X115443000Y-125679845D01*
X115697000Y-125679845D01*
X115697000Y-126873000D01*
X116890814Y-126873000D01*
X117011481Y-126643109D01*
X116914157Y-126368748D01*
X116765178Y-126118645D01*
X116570269Y-125902412D01*
X116336920Y-125728359D01*
X116074099Y-125603175D01*
X115926890Y-125558524D01*
X115697000Y-125679845D01*
X115443000Y-125679845D01*
X115213110Y-125558524D01*
X115065901Y-125603175D01*
X114803080Y-125728359D01*
X114569731Y-125902412D01*
X114493966Y-125986466D01*
X114469502Y-125905820D01*
X114410537Y-125795506D01*
X114331185Y-125698815D01*
X114234494Y-125619463D01*
X114124180Y-125560498D01*
X114004482Y-125524188D01*
X113880000Y-125511928D01*
X113790000Y-125511928D01*
X113790000Y-123895925D01*
X113791249Y-123895546D01*
X113923278Y-123824974D01*
X114039003Y-123730001D01*
X114062805Y-123700998D01*
X114811004Y-122952800D01*
X114840001Y-122929003D01*
X114934974Y-122813278D01*
X115005546Y-122681249D01*
X115006889Y-122676822D01*
X115103937Y-122579774D01*
X115124379Y-122549180D01*
X119360197Y-126784999D01*
G37*
X119360197Y-126784999D02*
X117799321Y-126784999D01*
X117761998Y-126781323D01*
X117724675Y-126784999D01*
X117724666Y-126784999D01*
X117613013Y-126795996D01*
X117469752Y-126839453D01*
X117337723Y-126910025D01*
X117221998Y-127004998D01*
X117198199Y-127033997D01*
X116964607Y-127267589D01*
X116890814Y-127127000D01*
X115697000Y-127127000D01*
X115697000Y-127147000D01*
X115443000Y-127147000D01*
X115443000Y-127127000D01*
X115423000Y-127127000D01*
X115423000Y-126873000D01*
X115443000Y-126873000D01*
X115443000Y-125679845D01*
X115697000Y-125679845D01*
X115697000Y-126873000D01*
X116890814Y-126873000D01*
X117011481Y-126643109D01*
X116914157Y-126368748D01*
X116765178Y-126118645D01*
X116570269Y-125902412D01*
X116336920Y-125728359D01*
X116074099Y-125603175D01*
X115926890Y-125558524D01*
X115697000Y-125679845D01*
X115443000Y-125679845D01*
X115213110Y-125558524D01*
X115065901Y-125603175D01*
X114803080Y-125728359D01*
X114569731Y-125902412D01*
X114493966Y-125986466D01*
X114469502Y-125905820D01*
X114410537Y-125795506D01*
X114331185Y-125698815D01*
X114234494Y-125619463D01*
X114124180Y-125560498D01*
X114004482Y-125524188D01*
X113880000Y-125511928D01*
X113790000Y-125511928D01*
X113790000Y-123895925D01*
X113791249Y-123895546D01*
X113923278Y-123824974D01*
X114039003Y-123730001D01*
X114062805Y-123700998D01*
X114811004Y-122952800D01*
X114840001Y-122929003D01*
X114934974Y-122813278D01*
X115005546Y-122681249D01*
X115006889Y-122676822D01*
X115103937Y-122579774D01*
X115124379Y-122549180D01*
X119360197Y-126784999D01*
G36*
X135130001Y-102555197D02*
G01*
X131765199Y-105920000D01*
X129488043Y-105920000D01*
X129384637Y-105765241D01*
X129184759Y-105565363D01*
X128952241Y-105410000D01*
X129184759Y-105254637D01*
X129384637Y-105054759D01*
X129541680Y-104819727D01*
X129649853Y-104558574D01*
X129705000Y-104281335D01*
X129705000Y-103998665D01*
X129649853Y-103721426D01*
X129541680Y-103460273D01*
X129384637Y-103225241D01*
X129184759Y-103025363D01*
X128952241Y-102870000D01*
X129184759Y-102714637D01*
X129384637Y-102514759D01*
X129541680Y-102279727D01*
X129649853Y-102018574D01*
X129705000Y-101741335D01*
X129705000Y-101458665D01*
X129668688Y-101276114D01*
X129906005Y-101038797D01*
X129935002Y-101015000D01*
X130029975Y-100899275D01*
X130050000Y-100861811D01*
X130050001Y-103436288D01*
X130006063Y-103480226D01*
X129892795Y-103649744D01*
X129814774Y-103838102D01*
X129775000Y-104038061D01*
X129775000Y-104241939D01*
X129814774Y-104441898D01*
X129892795Y-104630256D01*
X130006063Y-104799774D01*
X130150226Y-104943937D01*
X130319744Y-105057205D01*
X130508102Y-105135226D01*
X130708061Y-105175000D01*
X130911939Y-105175000D01*
X131111898Y-105135226D01*
X131300256Y-105057205D01*
X131469774Y-104943937D01*
X131613937Y-104799774D01*
X131727205Y-104630256D01*
X131805226Y-104441898D01*
X131845000Y-104241939D01*
X131845000Y-104038061D01*
X131805226Y-103838102D01*
X131727205Y-103649744D01*
X131613937Y-103480226D01*
X131570000Y-103436289D01*
X131570000Y-100052702D01*
X132616903Y-100052702D01*
X132688486Y-100296671D01*
X132943996Y-100417571D01*
X133218184Y-100486300D01*
X133500512Y-100500217D01*
X133780130Y-100458787D01*
X134046292Y-100363603D01*
X134171514Y-100296671D01*
X134243097Y-100052702D01*
X133430000Y-99239605D01*
X132616903Y-100052702D01*
X131570000Y-100052702D01*
X131570000Y-99019803D01*
X132123284Y-98466519D01*
X132072429Y-98573996D01*
X132003700Y-98848184D01*
X131989783Y-99130512D01*
X132031213Y-99410130D01*
X132126397Y-99676292D01*
X132193329Y-99801514D01*
X132437298Y-99873097D01*
X133250395Y-99060000D01*
X133609605Y-99060000D01*
X134422702Y-99873097D01*
X134666671Y-99801514D01*
X134787571Y-99546004D01*
X134856300Y-99271816D01*
X134870217Y-98989488D01*
X134828787Y-98709870D01*
X134733603Y-98443708D01*
X134666671Y-98318486D01*
X134422702Y-98246903D01*
X133609605Y-99060000D01*
X133250395Y-99060000D01*
X133236253Y-99045858D01*
X133415858Y-98866253D01*
X133430000Y-98880395D01*
X134243097Y-98067298D01*
X134171514Y-97823329D01*
X133916004Y-97702429D01*
X133641816Y-97633700D01*
X133359488Y-97619783D01*
X133079870Y-97661213D01*
X132844373Y-97745431D01*
X135130001Y-95459803D01*
X135130001Y-102555197D01*
G37*
X135130001Y-102555197D02*
X131765199Y-105920000D01*
X129488043Y-105920000D01*
X129384637Y-105765241D01*
X129184759Y-105565363D01*
X128952241Y-105410000D01*
X129184759Y-105254637D01*
X129384637Y-105054759D01*
X129541680Y-104819727D01*
X129649853Y-104558574D01*
X129705000Y-104281335D01*
X129705000Y-103998665D01*
X129649853Y-103721426D01*
X129541680Y-103460273D01*
X129384637Y-103225241D01*
X129184759Y-103025363D01*
X128952241Y-102870000D01*
X129184759Y-102714637D01*
X129384637Y-102514759D01*
X129541680Y-102279727D01*
X129649853Y-102018574D01*
X129705000Y-101741335D01*
X129705000Y-101458665D01*
X129668688Y-101276114D01*
X129906005Y-101038797D01*
X129935002Y-101015000D01*
X130029975Y-100899275D01*
X130050000Y-100861811D01*
X130050001Y-103436288D01*
X130006063Y-103480226D01*
X129892795Y-103649744D01*
X129814774Y-103838102D01*
X129775000Y-104038061D01*
X129775000Y-104241939D01*
X129814774Y-104441898D01*
X129892795Y-104630256D01*
X130006063Y-104799774D01*
X130150226Y-104943937D01*
X130319744Y-105057205D01*
X130508102Y-105135226D01*
X130708061Y-105175000D01*
X130911939Y-105175000D01*
X131111898Y-105135226D01*
X131300256Y-105057205D01*
X131469774Y-104943937D01*
X131613937Y-104799774D01*
X131727205Y-104630256D01*
X131805226Y-104441898D01*
X131845000Y-104241939D01*
X131845000Y-104038061D01*
X131805226Y-103838102D01*
X131727205Y-103649744D01*
X131613937Y-103480226D01*
X131570000Y-103436289D01*
X131570000Y-100052702D01*
X132616903Y-100052702D01*
X132688486Y-100296671D01*
X132943996Y-100417571D01*
X133218184Y-100486300D01*
X133500512Y-100500217D01*
X133780130Y-100458787D01*
X134046292Y-100363603D01*
X134171514Y-100296671D01*
X134243097Y-100052702D01*
X133430000Y-99239605D01*
X132616903Y-100052702D01*
X131570000Y-100052702D01*
X131570000Y-99019803D01*
X132123284Y-98466519D01*
X132072429Y-98573996D01*
X132003700Y-98848184D01*
X131989783Y-99130512D01*
X132031213Y-99410130D01*
X132126397Y-99676292D01*
X132193329Y-99801514D01*
X132437298Y-99873097D01*
X133250395Y-99060000D01*
X133609605Y-99060000D01*
X134422702Y-99873097D01*
X134666671Y-99801514D01*
X134787571Y-99546004D01*
X134856300Y-99271816D01*
X134870217Y-98989488D01*
X134828787Y-98709870D01*
X134733603Y-98443708D01*
X134666671Y-98318486D01*
X134422702Y-98246903D01*
X133609605Y-99060000D01*
X133250395Y-99060000D01*
X133236253Y-99045858D01*
X133415858Y-98866253D01*
X133430000Y-98880395D01*
X134243097Y-98067298D01*
X134171514Y-97823329D01*
X133916004Y-97702429D01*
X133641816Y-97633700D01*
X133359488Y-97619783D01*
X133079870Y-97661213D01*
X132844373Y-97745431D01*
X135130001Y-95459803D01*
X135130001Y-102555197D01*
G36*
X141675198Y-81790000D02*
G01*
X137197333Y-81790000D01*
X137160000Y-81786323D01*
X137122667Y-81790000D01*
X137011014Y-81800997D01*
X136867753Y-81844454D01*
X136735724Y-81915026D01*
X136650000Y-81985378D01*
X136650000Y-81983711D01*
X136693937Y-81939774D01*
X136807205Y-81770256D01*
X136885226Y-81581898D01*
X136925000Y-81381939D01*
X136925000Y-81178061D01*
X136885226Y-80978102D01*
X136807205Y-80789744D01*
X136693937Y-80620226D01*
X136549774Y-80476063D01*
X136380256Y-80362795D01*
X136191898Y-80284774D01*
X135991939Y-80245000D01*
X135788061Y-80245000D01*
X135588102Y-80284774D01*
X135399744Y-80362795D01*
X135380000Y-80375987D01*
X135380000Y-78173711D01*
X135423937Y-78129774D01*
X135537205Y-77960256D01*
X135615226Y-77771898D01*
X135655000Y-77571939D01*
X135655000Y-77368061D01*
X135615226Y-77168102D01*
X135537205Y-76979744D01*
X135423937Y-76810226D01*
X135279774Y-76666063D01*
X135110256Y-76552795D01*
X134921898Y-76474774D01*
X134721939Y-76435000D01*
X134518061Y-76435000D01*
X134318102Y-76474774D01*
X134129744Y-76552795D01*
X133960226Y-76666063D01*
X133816063Y-76810226D01*
X133702795Y-76979744D01*
X133624774Y-77168102D01*
X133585000Y-77368061D01*
X133585000Y-77571939D01*
X133624774Y-77771898D01*
X133702795Y-77960256D01*
X133816063Y-78129774D01*
X133860001Y-78173712D01*
X133860000Y-91125197D01*
X131569002Y-93416197D01*
X131568997Y-93416201D01*
X129564128Y-95421071D01*
X129539915Y-95377000D01*
X128397000Y-95377000D01*
X128397000Y-96520624D01*
X128619040Y-96641909D01*
X128634131Y-96636505D01*
X128631325Y-96664999D01*
X128635002Y-96702331D01*
X128635002Y-97621928D01*
X127470000Y-97621928D01*
X127345518Y-97634188D01*
X127225820Y-97670498D01*
X127115506Y-97729463D01*
X127034999Y-97795533D01*
X127034999Y-97555000D01*
X127101939Y-97555000D01*
X127301898Y-97515226D01*
X127490256Y-97437205D01*
X127659774Y-97323937D01*
X127803937Y-97179774D01*
X127917205Y-97010256D01*
X127995226Y-96821898D01*
X128035000Y-96621939D01*
X128035000Y-96579617D01*
X128143000Y-96520624D01*
X128143000Y-95377000D01*
X128123000Y-95377000D01*
X128123000Y-95123000D01*
X128143000Y-95123000D01*
X128143000Y-95103000D01*
X128397000Y-95103000D01*
X128397000Y-95123000D01*
X129539915Y-95123000D01*
X129661904Y-94900961D01*
X129621246Y-94766913D01*
X129501037Y-94512580D01*
X129333519Y-94286586D01*
X129125131Y-94097615D01*
X128939135Y-93986067D01*
X128949727Y-93981680D01*
X129184759Y-93824637D01*
X129384637Y-93624759D01*
X129541680Y-93389727D01*
X129649853Y-93128574D01*
X129705000Y-92851335D01*
X129705000Y-92679803D01*
X129775000Y-92749803D01*
X129775000Y-92811939D01*
X129814774Y-93011898D01*
X129892795Y-93200256D01*
X130006063Y-93369774D01*
X130150226Y-93513937D01*
X130319744Y-93627205D01*
X130508102Y-93705226D01*
X130708061Y-93745000D01*
X130911939Y-93745000D01*
X131111898Y-93705226D01*
X131300256Y-93627205D01*
X131469774Y-93513937D01*
X131613937Y-93369774D01*
X131727205Y-93200256D01*
X131805226Y-93011898D01*
X131845000Y-92811939D01*
X131845000Y-92608061D01*
X131805226Y-92408102D01*
X131727205Y-92219744D01*
X131613937Y-92050226D01*
X131469774Y-91906063D01*
X131300256Y-91792795D01*
X131111898Y-91714774D01*
X130911939Y-91675000D01*
X130849803Y-91675000D01*
X129668688Y-90493886D01*
X129705000Y-90311335D01*
X129705000Y-90028665D01*
X129649853Y-89751426D01*
X129541680Y-89490273D01*
X129384637Y-89255241D01*
X129384600Y-89255204D01*
X129906004Y-88733800D01*
X129935002Y-88710002D01*
X130004576Y-88625226D01*
X130029975Y-88594278D01*
X130100547Y-88462248D01*
X130116388Y-88410025D01*
X130144004Y-88318987D01*
X130155001Y-88207334D01*
X130155001Y-88207325D01*
X130158677Y-88170002D01*
X130155001Y-88132679D01*
X130155001Y-87127322D01*
X130158677Y-87089999D01*
X130155001Y-87052676D01*
X130155001Y-87052666D01*
X130144004Y-86941013D01*
X130100547Y-86797752D01*
X130090296Y-86778574D01*
X130029975Y-86665722D01*
X129958800Y-86578996D01*
X129935002Y-86549998D01*
X129906005Y-86526201D01*
X129384600Y-86004796D01*
X129384637Y-86004759D01*
X129541680Y-85769727D01*
X129649853Y-85508574D01*
X129705000Y-85231335D01*
X129705000Y-84948665D01*
X129649853Y-84671426D01*
X129541680Y-84410273D01*
X129384637Y-84175241D01*
X129184759Y-83975363D01*
X128952241Y-83820000D01*
X129184759Y-83664637D01*
X129384637Y-83464759D01*
X129541680Y-83229727D01*
X129649853Y-82968574D01*
X129705000Y-82691335D01*
X129705000Y-82408665D01*
X129649853Y-82131426D01*
X129541680Y-81870273D01*
X129384637Y-81635241D01*
X129184759Y-81435363D01*
X128952241Y-81280000D01*
X129184759Y-81124637D01*
X129384637Y-80924759D01*
X129541680Y-80689727D01*
X129649853Y-80428574D01*
X129705000Y-80151335D01*
X129705000Y-79868665D01*
X129649853Y-79591426D01*
X129541680Y-79330273D01*
X129384637Y-79095241D01*
X129184759Y-78895363D01*
X128952241Y-78740000D01*
X129184759Y-78584637D01*
X129384637Y-78384759D01*
X129541680Y-78149727D01*
X129649853Y-77888574D01*
X129705000Y-77611335D01*
X129705000Y-77328665D01*
X129649853Y-77051426D01*
X129541680Y-76790273D01*
X129414544Y-76599999D01*
X130916325Y-76599999D01*
X130920002Y-76637331D01*
X130920001Y-85922679D01*
X130916325Y-85960001D01*
X130920001Y-85997323D01*
X130920001Y-85997333D01*
X130930998Y-86108986D01*
X130961948Y-86211015D01*
X130974455Y-86252247D01*
X131045000Y-86384226D01*
X131045000Y-86461939D01*
X131084774Y-86661898D01*
X131162795Y-86850256D01*
X131276063Y-87019774D01*
X131420226Y-87163937D01*
X131589744Y-87277205D01*
X131778102Y-87355226D01*
X131978061Y-87395000D01*
X132181939Y-87395000D01*
X132381898Y-87355226D01*
X132570256Y-87277205D01*
X132739774Y-87163937D01*
X132883937Y-87019774D01*
X132997205Y-86850256D01*
X133075226Y-86661898D01*
X133115000Y-86461939D01*
X133115000Y-86258061D01*
X133075226Y-86058102D01*
X132997205Y-85869744D01*
X132883937Y-85700226D01*
X132739774Y-85556063D01*
X132570256Y-85442795D01*
X132440001Y-85388841D01*
X132440001Y-76914800D01*
X133389802Y-75965000D01*
X133451939Y-75965000D01*
X133651898Y-75925226D01*
X133840256Y-75847205D01*
X134009774Y-75733937D01*
X134153937Y-75589774D01*
X134267205Y-75420256D01*
X134345226Y-75231898D01*
X134385000Y-75031939D01*
X134385000Y-74828061D01*
X134345226Y-74628102D01*
X134267205Y-74439744D01*
X134153937Y-74270226D01*
X134009774Y-74126063D01*
X133840256Y-74012795D01*
X133651898Y-73934774D01*
X133451939Y-73895000D01*
X133248061Y-73895000D01*
X133048102Y-73934774D01*
X132859744Y-74012795D01*
X132690226Y-74126063D01*
X132546063Y-74270226D01*
X132432795Y-74439744D01*
X132354774Y-74628102D01*
X132315000Y-74828061D01*
X132315000Y-74890198D01*
X131168999Y-76036200D01*
X131140001Y-76059998D01*
X131116203Y-76088996D01*
X131116202Y-76088997D01*
X131045027Y-76175723D01*
X130974455Y-76307753D01*
X130957090Y-76365000D01*
X130935857Y-76435000D01*
X130930999Y-76451014D01*
X130916325Y-76599999D01*
X129414544Y-76599999D01*
X129384637Y-76555241D01*
X129184759Y-76355363D01*
X128952241Y-76200000D01*
X129184759Y-76044637D01*
X129384637Y-75844759D01*
X129541680Y-75609727D01*
X129649853Y-75348574D01*
X129705000Y-75071335D01*
X129705000Y-74788665D01*
X129649853Y-74511426D01*
X129551923Y-74275001D01*
X129647677Y-74275001D01*
X129684999Y-74278677D01*
X129722321Y-74275001D01*
X129722332Y-74275001D01*
X129833985Y-74264004D01*
X129977246Y-74220547D01*
X130109275Y-74149975D01*
X130225000Y-74055002D01*
X130248803Y-74025999D01*
X130849802Y-73425000D01*
X130911939Y-73425000D01*
X131111898Y-73385226D01*
X131300256Y-73307205D01*
X131469774Y-73193937D01*
X131613937Y-73049774D01*
X131727205Y-72880256D01*
X131805226Y-72691898D01*
X131845000Y-72491939D01*
X131845000Y-72288061D01*
X131805226Y-72088102D01*
X131727205Y-71899744D01*
X131613937Y-71730226D01*
X131469774Y-71586063D01*
X131300256Y-71472795D01*
X131111898Y-71394774D01*
X130911939Y-71355000D01*
X130708061Y-71355000D01*
X130508102Y-71394774D01*
X130319744Y-71472795D01*
X130150226Y-71586063D01*
X130006063Y-71730226D01*
X129892795Y-71899744D01*
X129814774Y-72088102D01*
X129775000Y-72288061D01*
X129775000Y-72350198D01*
X129705000Y-72420199D01*
X129705000Y-72248665D01*
X129649853Y-71971426D01*
X129541680Y-71710273D01*
X129384637Y-71475241D01*
X129184759Y-71275363D01*
X128952241Y-71120000D01*
X129184759Y-70964637D01*
X129384637Y-70764759D01*
X129541680Y-70529727D01*
X129649853Y-70268574D01*
X129705000Y-69991335D01*
X129705000Y-69819801D01*
X141675198Y-81790000D01*
G37*
X141675198Y-81790000D02*
X137197333Y-81790000D01*
X137160000Y-81786323D01*
X137122667Y-81790000D01*
X137011014Y-81800997D01*
X136867753Y-81844454D01*
X136735724Y-81915026D01*
X136650000Y-81985378D01*
X136650000Y-81983711D01*
X136693937Y-81939774D01*
X136807205Y-81770256D01*
X136885226Y-81581898D01*
X136925000Y-81381939D01*
X136925000Y-81178061D01*
X136885226Y-80978102D01*
X136807205Y-80789744D01*
X136693937Y-80620226D01*
X136549774Y-80476063D01*
X136380256Y-80362795D01*
X136191898Y-80284774D01*
X135991939Y-80245000D01*
X135788061Y-80245000D01*
X135588102Y-80284774D01*
X135399744Y-80362795D01*
X135380000Y-80375987D01*
X135380000Y-78173711D01*
X135423937Y-78129774D01*
X135537205Y-77960256D01*
X135615226Y-77771898D01*
X135655000Y-77571939D01*
X135655000Y-77368061D01*
X135615226Y-77168102D01*
X135537205Y-76979744D01*
X135423937Y-76810226D01*
X135279774Y-76666063D01*
X135110256Y-76552795D01*
X134921898Y-76474774D01*
X134721939Y-76435000D01*
X134518061Y-76435000D01*
X134318102Y-76474774D01*
X134129744Y-76552795D01*
X133960226Y-76666063D01*
X133816063Y-76810226D01*
X133702795Y-76979744D01*
X133624774Y-77168102D01*
X133585000Y-77368061D01*
X133585000Y-77571939D01*
X133624774Y-77771898D01*
X133702795Y-77960256D01*
X133816063Y-78129774D01*
X133860001Y-78173712D01*
X133860000Y-91125197D01*
X131569002Y-93416197D01*
X131568997Y-93416201D01*
X129564128Y-95421071D01*
X129539915Y-95377000D01*
X128397000Y-95377000D01*
X128397000Y-96520624D01*
X128619040Y-96641909D01*
X128634131Y-96636505D01*
X128631325Y-96664999D01*
X128635002Y-96702331D01*
X128635002Y-97621928D01*
X127470000Y-97621928D01*
X127345518Y-97634188D01*
X127225820Y-97670498D01*
X127115506Y-97729463D01*
X127034999Y-97795533D01*
X127034999Y-97555000D01*
X127101939Y-97555000D01*
X127301898Y-97515226D01*
X127490256Y-97437205D01*
X127659774Y-97323937D01*
X127803937Y-97179774D01*
X127917205Y-97010256D01*
X127995226Y-96821898D01*
X128035000Y-96621939D01*
X128035000Y-96579617D01*
X128143000Y-96520624D01*
X128143000Y-95377000D01*
X128123000Y-95377000D01*
X128123000Y-95123000D01*
X128143000Y-95123000D01*
X128143000Y-95103000D01*
X128397000Y-95103000D01*
X128397000Y-95123000D01*
X129539915Y-95123000D01*
X129661904Y-94900961D01*
X129621246Y-94766913D01*
X129501037Y-94512580D01*
X129333519Y-94286586D01*
X129125131Y-94097615D01*
X128939135Y-93986067D01*
X128949727Y-93981680D01*
X129184759Y-93824637D01*
X129384637Y-93624759D01*
X129541680Y-93389727D01*
X129649853Y-93128574D01*
X129705000Y-92851335D01*
X129705000Y-92679803D01*
X129775000Y-92749803D01*
X129775000Y-92811939D01*
X129814774Y-93011898D01*
X129892795Y-93200256D01*
X130006063Y-93369774D01*
X130150226Y-93513937D01*
X130319744Y-93627205D01*
X130508102Y-93705226D01*
X130708061Y-93745000D01*
X130911939Y-93745000D01*
X131111898Y-93705226D01*
X131300256Y-93627205D01*
X131469774Y-93513937D01*
X131613937Y-93369774D01*
X131727205Y-93200256D01*
X131805226Y-93011898D01*
X131845000Y-92811939D01*
X131845000Y-92608061D01*
X131805226Y-92408102D01*
X131727205Y-92219744D01*
X131613937Y-92050226D01*
X131469774Y-91906063D01*
X131300256Y-91792795D01*
X131111898Y-91714774D01*
X130911939Y-91675000D01*
X130849803Y-91675000D01*
X129668688Y-90493886D01*
X129705000Y-90311335D01*
X129705000Y-90028665D01*
X129649853Y-89751426D01*
X129541680Y-89490273D01*
X129384637Y-89255241D01*
X129384600Y-89255204D01*
X129906004Y-88733800D01*
X129935002Y-88710002D01*
X130004576Y-88625226D01*
X130029975Y-88594278D01*
X130100547Y-88462248D01*
X130116388Y-88410025D01*
X130144004Y-88318987D01*
X130155001Y-88207334D01*
X130155001Y-88207325D01*
X130158677Y-88170002D01*
X130155001Y-88132679D01*
X130155001Y-87127322D01*
X130158677Y-87089999D01*
X130155001Y-87052676D01*
X130155001Y-87052666D01*
X130144004Y-86941013D01*
X130100547Y-86797752D01*
X130090296Y-86778574D01*
X130029975Y-86665722D01*
X129958800Y-86578996D01*
X129935002Y-86549998D01*
X129906005Y-86526201D01*
X129384600Y-86004796D01*
X129384637Y-86004759D01*
X129541680Y-85769727D01*
X129649853Y-85508574D01*
X129705000Y-85231335D01*
X129705000Y-84948665D01*
X129649853Y-84671426D01*
X129541680Y-84410273D01*
X129384637Y-84175241D01*
X129184759Y-83975363D01*
X128952241Y-83820000D01*
X129184759Y-83664637D01*
X129384637Y-83464759D01*
X129541680Y-83229727D01*
X129649853Y-82968574D01*
X129705000Y-82691335D01*
X129705000Y-82408665D01*
X129649853Y-82131426D01*
X129541680Y-81870273D01*
X129384637Y-81635241D01*
X129184759Y-81435363D01*
X128952241Y-81280000D01*
X129184759Y-81124637D01*
X129384637Y-80924759D01*
X129541680Y-80689727D01*
X129649853Y-80428574D01*
X129705000Y-80151335D01*
X129705000Y-79868665D01*
X129649853Y-79591426D01*
X129541680Y-79330273D01*
X129384637Y-79095241D01*
X129184759Y-78895363D01*
X128952241Y-78740000D01*
X129184759Y-78584637D01*
X129384637Y-78384759D01*
X129541680Y-78149727D01*
X129649853Y-77888574D01*
X129705000Y-77611335D01*
X129705000Y-77328665D01*
X129649853Y-77051426D01*
X129541680Y-76790273D01*
X129414544Y-76599999D01*
X130916325Y-76599999D01*
X130920002Y-76637331D01*
X130920001Y-85922679D01*
X130916325Y-85960001D01*
X130920001Y-85997323D01*
X130920001Y-85997333D01*
X130930998Y-86108986D01*
X130961948Y-86211015D01*
X130974455Y-86252247D01*
X131045000Y-86384226D01*
X131045000Y-86461939D01*
X131084774Y-86661898D01*
X131162795Y-86850256D01*
X131276063Y-87019774D01*
X131420226Y-87163937D01*
X131589744Y-87277205D01*
X131778102Y-87355226D01*
X131978061Y-87395000D01*
X132181939Y-87395000D01*
X132381898Y-87355226D01*
X132570256Y-87277205D01*
X132739774Y-87163937D01*
X132883937Y-87019774D01*
X132997205Y-86850256D01*
X133075226Y-86661898D01*
X133115000Y-86461939D01*
X133115000Y-86258061D01*
X133075226Y-86058102D01*
X132997205Y-85869744D01*
X132883937Y-85700226D01*
X132739774Y-85556063D01*
X132570256Y-85442795D01*
X132440001Y-85388841D01*
X132440001Y-76914800D01*
X133389802Y-75965000D01*
X133451939Y-75965000D01*
X133651898Y-75925226D01*
X133840256Y-75847205D01*
X134009774Y-75733937D01*
X134153937Y-75589774D01*
X134267205Y-75420256D01*
X134345226Y-75231898D01*
X134385000Y-75031939D01*
X134385000Y-74828061D01*
X134345226Y-74628102D01*
X134267205Y-74439744D01*
X134153937Y-74270226D01*
X134009774Y-74126063D01*
X133840256Y-74012795D01*
X133651898Y-73934774D01*
X133451939Y-73895000D01*
X133248061Y-73895000D01*
X133048102Y-73934774D01*
X132859744Y-74012795D01*
X132690226Y-74126063D01*
X132546063Y-74270226D01*
X132432795Y-74439744D01*
X132354774Y-74628102D01*
X132315000Y-74828061D01*
X132315000Y-74890198D01*
X131168999Y-76036200D01*
X131140001Y-76059998D01*
X131116203Y-76088996D01*
X131116202Y-76088997D01*
X131045027Y-76175723D01*
X130974455Y-76307753D01*
X130957090Y-76365000D01*
X130935857Y-76435000D01*
X130930999Y-76451014D01*
X130916325Y-76599999D01*
X129414544Y-76599999D01*
X129384637Y-76555241D01*
X129184759Y-76355363D01*
X128952241Y-76200000D01*
X129184759Y-76044637D01*
X129384637Y-75844759D01*
X129541680Y-75609727D01*
X129649853Y-75348574D01*
X129705000Y-75071335D01*
X129705000Y-74788665D01*
X129649853Y-74511426D01*
X129551923Y-74275001D01*
X129647677Y-74275001D01*
X129684999Y-74278677D01*
X129722321Y-74275001D01*
X129722332Y-74275001D01*
X129833985Y-74264004D01*
X129977246Y-74220547D01*
X130109275Y-74149975D01*
X130225000Y-74055002D01*
X130248803Y-74025999D01*
X130849802Y-73425000D01*
X130911939Y-73425000D01*
X131111898Y-73385226D01*
X131300256Y-73307205D01*
X131469774Y-73193937D01*
X131613937Y-73049774D01*
X131727205Y-72880256D01*
X131805226Y-72691898D01*
X131845000Y-72491939D01*
X131845000Y-72288061D01*
X131805226Y-72088102D01*
X131727205Y-71899744D01*
X131613937Y-71730226D01*
X131469774Y-71586063D01*
X131300256Y-71472795D01*
X131111898Y-71394774D01*
X130911939Y-71355000D01*
X130708061Y-71355000D01*
X130508102Y-71394774D01*
X130319744Y-71472795D01*
X130150226Y-71586063D01*
X130006063Y-71730226D01*
X129892795Y-71899744D01*
X129814774Y-72088102D01*
X129775000Y-72288061D01*
X129775000Y-72350198D01*
X129705000Y-72420199D01*
X129705000Y-72248665D01*
X129649853Y-71971426D01*
X129541680Y-71710273D01*
X129384637Y-71475241D01*
X129184759Y-71275363D01*
X128952241Y-71120000D01*
X129184759Y-70964637D01*
X129384637Y-70764759D01*
X129541680Y-70529727D01*
X129649853Y-70268574D01*
X129705000Y-69991335D01*
X129705000Y-69819801D01*
X141675198Y-81790000D01*
G36*
X105574039Y-95613843D02*
G01*
X105448963Y-95782580D01*
X105328754Y-96036913D01*
X105288096Y-96170961D01*
X105410085Y-96393000D01*
X106553000Y-96393000D01*
X106553000Y-96373000D01*
X106807000Y-96373000D01*
X106807000Y-96393000D01*
X106827000Y-96393000D01*
X106827000Y-96647000D01*
X106807000Y-96647000D01*
X106807000Y-96667000D01*
X106553000Y-96667000D01*
X106553000Y-96647000D01*
X105410085Y-96647000D01*
X105385872Y-96691071D01*
X104449990Y-95755189D01*
X104449990Y-94489793D01*
X105574039Y-95613843D01*
G37*
X105574039Y-95613843D02*
X105448963Y-95782580D01*
X105328754Y-96036913D01*
X105288096Y-96170961D01*
X105410085Y-96393000D01*
X106553000Y-96393000D01*
X106553000Y-96373000D01*
X106807000Y-96373000D01*
X106807000Y-96393000D01*
X106827000Y-96393000D01*
X106827000Y-96647000D01*
X106807000Y-96647000D01*
X106807000Y-96667000D01*
X106553000Y-96667000D01*
X106553000Y-96647000D01*
X105410085Y-96647000D01*
X105385872Y-96691071D01*
X104449990Y-95755189D01*
X104449990Y-94489793D01*
X105574039Y-95613843D01*
G36*
X122047000Y-96393000D02*
G01*
X122067000Y-96393000D01*
X122067000Y-96647000D01*
X122047000Y-96647000D01*
X122047000Y-96667000D01*
X121793000Y-96667000D01*
X121793000Y-96647000D01*
X121773000Y-96647000D01*
X121773000Y-96393000D01*
X121793000Y-96393000D01*
X121793000Y-96373000D01*
X122047000Y-96373000D01*
X122047000Y-96393000D01*
G37*
X122047000Y-96393000D02*
X122067000Y-96393000D01*
X122067000Y-96647000D01*
X122047000Y-96647000D01*
X122047000Y-96667000D01*
X121793000Y-96667000D01*
X121793000Y-96647000D01*
X121773000Y-96647000D01*
X121773000Y-96393000D01*
X121793000Y-96393000D01*
X121793000Y-96373000D01*
X122047000Y-96373000D01*
X122047000Y-96393000D01*
G36*
X132616903Y-56157298D02*
G01*
X133430000Y-56970395D01*
X134243097Y-56157298D01*
X134198998Y-56007000D01*
X137557689Y-56007000D01*
X137515241Y-56035363D01*
X137315363Y-56235241D01*
X137158320Y-56470273D01*
X137050147Y-56731426D01*
X136995000Y-57008665D01*
X136995000Y-57291335D01*
X137050147Y-57568574D01*
X137158320Y-57829727D01*
X137315363Y-58064759D01*
X137515241Y-58264637D01*
X137750273Y-58421680D01*
X138011426Y-58529853D01*
X138288665Y-58585000D01*
X138571335Y-58585000D01*
X138848574Y-58529853D01*
X139109727Y-58421680D01*
X139344759Y-58264637D01*
X139544637Y-58064759D01*
X139701680Y-57829727D01*
X139809853Y-57568574D01*
X139865000Y-57291335D01*
X139865000Y-57008665D01*
X139809853Y-56731426D01*
X139701680Y-56470273D01*
X139544637Y-56235241D01*
X139344759Y-56035363D01*
X139302311Y-56007000D01*
X140640377Y-56007000D01*
X140459003Y-56188374D01*
X140429999Y-56212177D01*
X140378760Y-56274613D01*
X140335026Y-56327902D01*
X140295956Y-56400997D01*
X140264454Y-56459932D01*
X140220997Y-56603193D01*
X140210000Y-56714846D01*
X140210000Y-56714856D01*
X140206324Y-56752178D01*
X140210000Y-56789501D01*
X140210001Y-62796288D01*
X140166063Y-62840226D01*
X140052795Y-63009744D01*
X139974774Y-63198102D01*
X139935000Y-63398061D01*
X139935000Y-63601939D01*
X139974774Y-63801898D01*
X140052795Y-63990256D01*
X140166063Y-64159774D01*
X140310226Y-64303937D01*
X140340820Y-64324379D01*
X139188998Y-65476201D01*
X139160000Y-65499999D01*
X139136202Y-65528997D01*
X139136201Y-65528998D01*
X139065026Y-65615724D01*
X138994454Y-65747754D01*
X138964180Y-65847558D01*
X138950999Y-65891013D01*
X138950998Y-65891015D01*
X138936324Y-66040000D01*
X138940001Y-66077332D01*
X138940000Y-71686289D01*
X138896063Y-71730226D01*
X138875621Y-71760820D01*
X135830010Y-68715209D01*
X135830010Y-61802341D01*
X135833687Y-61765008D01*
X135819013Y-61616022D01*
X135775556Y-61472761D01*
X135704984Y-61340732D01*
X135633809Y-61254005D01*
X135610011Y-61225007D01*
X135581013Y-61201209D01*
X132836520Y-58456716D01*
X132943996Y-58507571D01*
X133218184Y-58576300D01*
X133500512Y-58590217D01*
X133780130Y-58548787D01*
X134046292Y-58453603D01*
X134171514Y-58386671D01*
X134243097Y-58142702D01*
X133430000Y-57329605D01*
X133415858Y-57343748D01*
X133236253Y-57164143D01*
X133250395Y-57150000D01*
X133609605Y-57150000D01*
X134422702Y-57963097D01*
X134666671Y-57891514D01*
X134787571Y-57636004D01*
X134856300Y-57361816D01*
X134870217Y-57079488D01*
X134828787Y-56799870D01*
X134733603Y-56533708D01*
X134666671Y-56408486D01*
X134422702Y-56336903D01*
X133609605Y-57150000D01*
X133250395Y-57150000D01*
X132437298Y-56336903D01*
X132193329Y-56408486D01*
X132072429Y-56663996D01*
X132003700Y-56938184D01*
X131989783Y-57220512D01*
X132031213Y-57500130D01*
X132115431Y-57735627D01*
X130386803Y-56007000D01*
X132661002Y-56007000D01*
X132616903Y-56157298D01*
G37*
X132616903Y-56157298D02*
X133430000Y-56970395D01*
X134243097Y-56157298D01*
X134198998Y-56007000D01*
X137557689Y-56007000D01*
X137515241Y-56035363D01*
X137315363Y-56235241D01*
X137158320Y-56470273D01*
X137050147Y-56731426D01*
X136995000Y-57008665D01*
X136995000Y-57291335D01*
X137050147Y-57568574D01*
X137158320Y-57829727D01*
X137315363Y-58064759D01*
X137515241Y-58264637D01*
X137750273Y-58421680D01*
X138011426Y-58529853D01*
X138288665Y-58585000D01*
X138571335Y-58585000D01*
X138848574Y-58529853D01*
X139109727Y-58421680D01*
X139344759Y-58264637D01*
X139544637Y-58064759D01*
X139701680Y-57829727D01*
X139809853Y-57568574D01*
X139865000Y-57291335D01*
X139865000Y-57008665D01*
X139809853Y-56731426D01*
X139701680Y-56470273D01*
X139544637Y-56235241D01*
X139344759Y-56035363D01*
X139302311Y-56007000D01*
X140640377Y-56007000D01*
X140459003Y-56188374D01*
X140429999Y-56212177D01*
X140378760Y-56274613D01*
X140335026Y-56327902D01*
X140295956Y-56400997D01*
X140264454Y-56459932D01*
X140220997Y-56603193D01*
X140210000Y-56714846D01*
X140210000Y-56714856D01*
X140206324Y-56752178D01*
X140210000Y-56789501D01*
X140210001Y-62796288D01*
X140166063Y-62840226D01*
X140052795Y-63009744D01*
X139974774Y-63198102D01*
X139935000Y-63398061D01*
X139935000Y-63601939D01*
X139974774Y-63801898D01*
X140052795Y-63990256D01*
X140166063Y-64159774D01*
X140310226Y-64303937D01*
X140340820Y-64324379D01*
X139188998Y-65476201D01*
X139160000Y-65499999D01*
X139136202Y-65528997D01*
X139136201Y-65528998D01*
X139065026Y-65615724D01*
X138994454Y-65747754D01*
X138964180Y-65847558D01*
X138950999Y-65891013D01*
X138950998Y-65891015D01*
X138936324Y-66040000D01*
X138940001Y-66077332D01*
X138940000Y-71686289D01*
X138896063Y-71730226D01*
X138875621Y-71760820D01*
X135830010Y-68715209D01*
X135830010Y-61802341D01*
X135833687Y-61765008D01*
X135819013Y-61616022D01*
X135775556Y-61472761D01*
X135704984Y-61340732D01*
X135633809Y-61254005D01*
X135610011Y-61225007D01*
X135581013Y-61201209D01*
X132836520Y-58456716D01*
X132943996Y-58507571D01*
X133218184Y-58576300D01*
X133500512Y-58590217D01*
X133780130Y-58548787D01*
X134046292Y-58453603D01*
X134171514Y-58386671D01*
X134243097Y-58142702D01*
X133430000Y-57329605D01*
X133415858Y-57343748D01*
X133236253Y-57164143D01*
X133250395Y-57150000D01*
X133609605Y-57150000D01*
X134422702Y-57963097D01*
X134666671Y-57891514D01*
X134787571Y-57636004D01*
X134856300Y-57361816D01*
X134870217Y-57079488D01*
X134828787Y-56799870D01*
X134733603Y-56533708D01*
X134666671Y-56408486D01*
X134422702Y-56336903D01*
X133609605Y-57150000D01*
X133250395Y-57150000D01*
X132437298Y-56336903D01*
X132193329Y-56408486D01*
X132072429Y-56663996D01*
X132003700Y-56938184D01*
X131989783Y-57220512D01*
X132031213Y-57500130D01*
X132115431Y-57735627D01*
X130386803Y-56007000D01*
X132661002Y-56007000D01*
X132616903Y-56157298D01*
G36*
X120320217Y-61839980D02*
G01*
X110987930Y-61839980D01*
X110950607Y-61836304D01*
X110913284Y-61839980D01*
X110913275Y-61839980D01*
X110801622Y-61850977D01*
X110658361Y-61894434D01*
X110526332Y-61965006D01*
X110526330Y-61965007D01*
X110526331Y-61965007D01*
X110439604Y-62036181D01*
X110439600Y-62036185D01*
X110410607Y-62059979D01*
X110386813Y-62088972D01*
X104267000Y-68208787D01*
X104267000Y-67358285D01*
X114357031Y-56007000D01*
X126153196Y-56007000D01*
X120320217Y-61839980D01*
G37*
X120320217Y-61839980D02*
X110987930Y-61839980D01*
X110950607Y-61836304D01*
X110913284Y-61839980D01*
X110913275Y-61839980D01*
X110801622Y-61850977D01*
X110658361Y-61894434D01*
X110526332Y-61965006D01*
X110526330Y-61965007D01*
X110526331Y-61965007D01*
X110439604Y-62036181D01*
X110439600Y-62036185D01*
X110410607Y-62059979D01*
X110386813Y-62088972D01*
X104267000Y-68208787D01*
X104267000Y-67358285D01*
X114357031Y-56007000D01*
X126153196Y-56007000D01*
X120320217Y-61839980D01*
G36*
X126871312Y-64446114D02*
G01*
X126835000Y-64628665D01*
X126835000Y-64911335D01*
X126890147Y-65188574D01*
X126998320Y-65449727D01*
X127155363Y-65684759D01*
X127355241Y-65884637D01*
X127587759Y-66040000D01*
X127355241Y-66195363D01*
X127155363Y-66395241D01*
X126998320Y-66630273D01*
X126890147Y-66891426D01*
X126835000Y-67168665D01*
X126835000Y-67451335D01*
X126890147Y-67728574D01*
X126928017Y-67820000D01*
X109257325Y-67820000D01*
X109220000Y-67816324D01*
X109182675Y-67820000D01*
X109182667Y-67820000D01*
X109071014Y-67830997D01*
X108927753Y-67874454D01*
X108795724Y-67945026D01*
X108700705Y-68023006D01*
X108753937Y-67969774D01*
X108867205Y-67800256D01*
X108945226Y-67611898D01*
X108985000Y-67411939D01*
X108985000Y-67349801D01*
X111541928Y-64792874D01*
X111541928Y-65620000D01*
X111554188Y-65744482D01*
X111590498Y-65864180D01*
X111649463Y-65974494D01*
X111728815Y-66071185D01*
X111825506Y-66150537D01*
X111935820Y-66209502D01*
X112055518Y-66245812D01*
X112180000Y-66258072D01*
X113880000Y-66258072D01*
X114004482Y-66245812D01*
X114124180Y-66209502D01*
X114234494Y-66150537D01*
X114331185Y-66071185D01*
X114410537Y-65974494D01*
X114469502Y-65864180D01*
X114493966Y-65783534D01*
X114569731Y-65867588D01*
X114803080Y-66041641D01*
X115065901Y-66166825D01*
X115213110Y-66211476D01*
X115443000Y-66090155D01*
X115443000Y-64897000D01*
X115697000Y-64897000D01*
X115697000Y-66090155D01*
X115926890Y-66211476D01*
X116074099Y-66166825D01*
X116336920Y-66041641D01*
X116570269Y-65867588D01*
X116765178Y-65651355D01*
X116914157Y-65401252D01*
X117011481Y-65126891D01*
X116890814Y-64897000D01*
X115697000Y-64897000D01*
X115443000Y-64897000D01*
X115423000Y-64897000D01*
X115423000Y-64643000D01*
X115443000Y-64643000D01*
X115443000Y-64623000D01*
X115697000Y-64623000D01*
X115697000Y-64643000D01*
X116890814Y-64643000D01*
X117011481Y-64413109D01*
X116957169Y-64260000D01*
X126685199Y-64260000D01*
X126871312Y-64446114D01*
G37*
X126871312Y-64446114D02*
X126835000Y-64628665D01*
X126835000Y-64911335D01*
X126890147Y-65188574D01*
X126998320Y-65449727D01*
X127155363Y-65684759D01*
X127355241Y-65884637D01*
X127587759Y-66040000D01*
X127355241Y-66195363D01*
X127155363Y-66395241D01*
X126998320Y-66630273D01*
X126890147Y-66891426D01*
X126835000Y-67168665D01*
X126835000Y-67451335D01*
X126890147Y-67728574D01*
X126928017Y-67820000D01*
X109257325Y-67820000D01*
X109220000Y-67816324D01*
X109182675Y-67820000D01*
X109182667Y-67820000D01*
X109071014Y-67830997D01*
X108927753Y-67874454D01*
X108795724Y-67945026D01*
X108700705Y-68023006D01*
X108753937Y-67969774D01*
X108867205Y-67800256D01*
X108945226Y-67611898D01*
X108985000Y-67411939D01*
X108985000Y-67349801D01*
X111541928Y-64792874D01*
X111541928Y-65620000D01*
X111554188Y-65744482D01*
X111590498Y-65864180D01*
X111649463Y-65974494D01*
X111728815Y-66071185D01*
X111825506Y-66150537D01*
X111935820Y-66209502D01*
X112055518Y-66245812D01*
X112180000Y-66258072D01*
X113880000Y-66258072D01*
X114004482Y-66245812D01*
X114124180Y-66209502D01*
X114234494Y-66150537D01*
X114331185Y-66071185D01*
X114410537Y-65974494D01*
X114469502Y-65864180D01*
X114493966Y-65783534D01*
X114569731Y-65867588D01*
X114803080Y-66041641D01*
X115065901Y-66166825D01*
X115213110Y-66211476D01*
X115443000Y-66090155D01*
X115443000Y-64897000D01*
X115697000Y-64897000D01*
X115697000Y-66090155D01*
X115926890Y-66211476D01*
X116074099Y-66166825D01*
X116336920Y-66041641D01*
X116570269Y-65867588D01*
X116765178Y-65651355D01*
X116914157Y-65401252D01*
X117011481Y-65126891D01*
X116890814Y-64897000D01*
X115697000Y-64897000D01*
X115443000Y-64897000D01*
X115423000Y-64897000D01*
X115423000Y-64643000D01*
X115443000Y-64643000D01*
X115443000Y-64623000D01*
X115697000Y-64623000D01*
X115697000Y-64643000D01*
X116890814Y-64643000D01*
X117011481Y-64413109D01*
X116957169Y-64260000D01*
X126685199Y-64260000D01*
X126871312Y-64446114D01*
M02*
