M48
; DRILL file {KiCad 5.1.5+dfsg1-2} date Sat 25 Jan 2020 11:12:15 AM CET
; FORMAT={-:-/ absolute / inch / decimal}
; #@! TF.CreationDate,2020-01-25T11:12:15+01:00
; #@! TF.GenerationSoftware,Kicad,Pcbnew,5.1.5+dfsg1-2
FMAT,2
INCH
T1C0.0157
T2C0.0315
T3C0.0394
%
G90
G05
T1
X4.25Y-2.65
X4.35Y-3.9
X4.35Y-5.0
X4.4Y-2.75
X4.4Y-3.8
X4.45Y-2.4
X4.5Y-4.75
X4.5Y-4.8
X4.55Y-5.45
X4.6Y-4.5
X4.6Y-4.6
X4.6Y-5.45
X4.6026Y-4.0
X4.6026Y-4.1
X4.65Y-4.05
X4.65Y-5.05
X4.7Y-2.4
X4.7Y-4.2
X4.7Y-4.55
X4.75Y-5.05
X4.8Y-5.35
X4.85Y-3.75
X4.9Y-3.4
X4.9Y-3.45
X4.9Y-3.6
X4.9Y-3.7
X4.9Y-4.0
X4.9Y-4.5
X4.9128Y-3.9
X4.95Y-4.15
X4.95Y-5.25
X5.0Y-3.5
X5.0Y-3.8
X5.0Y-4.05
X5.15Y-2.85
X5.15Y-3.65
X5.15Y-4.1
X5.15Y-4.3
X5.15Y-5.1
X5.2Y-3.4
X5.2Y-5.25
X5.2Y-5.3
X5.25Y-2.95
X5.3Y-3.05
X5.3Y-3.7
X5.3392Y-4.2
X5.35Y-3.2
X5.4Y-2.95
X5.4Y-3.65
X5.4Y-3.7
X5.4343Y-4.7657
X5.45Y-5.25
X5.5Y-2.85
X5.5Y-3.05
X5.5Y-4.8
X5.55Y-2.5
X5.55Y-2.65
X5.55Y-4.8
X5.55Y-5.35
X5.575Y-3.7208
X5.7Y-3.8
X5.75Y-4.15
X5.75Y-4.35
X5.75Y-5.45
X5.8Y-4.45
T2
X4.3Y-2.8
X4.3Y-2.9
X4.3Y-3.0
X4.3Y-3.1
X4.3Y-3.2
X4.3Y-3.3
X4.3Y-3.4
X4.3Y-3.5
X4.3Y-3.6
X4.3Y-3.7
X4.3Y-3.8
X5.05Y-2.25
X5.05Y-2.35
X5.05Y-2.45
X5.05Y-2.55
X5.05Y-2.65
X5.05Y-2.75
X5.05Y-2.85
X5.05Y-2.95
X5.05Y-3.05
X5.05Y-3.15
X5.05Y-3.25
X5.05Y-3.35
X5.05Y-3.45
X5.05Y-3.55
X5.05Y-3.65
X5.05Y-3.75
X5.65Y-2.25
X5.65Y-2.35
X5.65Y-2.45
X5.65Y-2.55
X5.65Y-2.65
X5.65Y-2.75
X5.65Y-2.85
X5.65Y-2.95
X5.65Y-3.05
X5.65Y-3.15
X5.65Y-3.25
X5.65Y-3.35
X5.65Y-3.45
X5.65Y-3.55
X5.65Y-3.65
X5.65Y-3.75
X4.7Y-2.8
X4.7Y-2.9
X4.7Y-3.0
X4.7Y-3.1
X4.7Y-3.2
X4.7Y-3.3
X4.7Y-3.4
X4.7Y-3.5
X4.7Y-3.6
X4.7Y-3.7
X4.7Y-3.8
X4.2Y-2.8
X4.2Y-2.9
X4.2Y-3.0
X4.2Y-3.1
X4.2Y-3.2
X4.2Y-3.3
X4.2Y-3.4
X4.2Y-3.5
X4.2Y-3.6
X4.2Y-3.7
X4.2Y-3.8
X4.2Y-3.9
X4.2Y-4.0
X4.2Y-4.1
X4.2Y-4.2
X4.2Y-4.3
X4.2Y-4.4
X4.2Y-4.5
X4.2Y-4.6
X4.2Y-4.7
X4.8Y-2.8
X4.8Y-2.9
X4.8Y-3.0
X4.8Y-3.1
X4.8Y-3.2
X4.8Y-3.3
X4.8Y-3.4
X4.8Y-3.5
X4.8Y-3.6
X4.8Y-3.7
X4.8Y-3.8
X4.8Y-3.9
X4.8Y-4.0
X4.8Y-4.1
X4.8Y-4.2
X4.8Y-4.3
X4.8Y-4.4
X4.8Y-4.5
X4.8Y-4.6
X4.8Y-4.7
X5.2531Y-3.9
X5.45Y-3.9
X5.2531Y-2.25
X5.45Y-2.25
X5.05Y-3.9
X5.05Y-4.0
X5.05Y-4.1
X5.05Y-4.2
X5.05Y-4.3
X5.05Y-4.4
X5.05Y-4.5
X5.05Y-4.6
X5.05Y-4.7
X5.05Y-4.8
X5.05Y-4.9
X5.05Y-5.0
X5.05Y-5.1
X5.05Y-5.2
X5.05Y-5.3
X5.05Y-5.4
X5.65Y-3.9
X5.65Y-4.0
X5.65Y-4.1
X5.65Y-4.2
X5.65Y-4.3
X5.65Y-4.4
X5.65Y-4.5
X5.65Y-4.6
X5.65Y-4.7
X5.65Y-4.8
X5.65Y-4.9
X5.65Y-5.0
X5.65Y-5.1
X5.65Y-5.2
X5.65Y-5.3
X5.65Y-5.4
T3
X4.45Y-5.0
X4.55Y-5.0
X4.45Y-2.55
X4.55Y-2.55
X4.45Y-5.15
X4.55Y-5.15
T0
M30
